<svg xmlns="http://www.w3.org/2000/svg" width="18.889" height="21.108" viewBox="0 0 18.889 21.108">
  <g id="icon" transform="translate(-828 -487)">
    <path id="Path_120" data-name="Path 120" d="M52.494,58.991a.385.385,0,0,0,.545,0l4.436-4.436a.385.385,0,0,0-.545-.545l-4.164,4.164-1.5-1.5a.385.385,0,1,0-.545.545Z" transform="translate(783.693 442.762)" fill="#be0c11" stroke="#be0c11" stroke-linecap="square" stroke-width="0.25"/>
    <path id="np_loading-error_1222923_000000" d="M43.167,32.282,44.5,30.949a.549.549,0,0,0-.777-.777L41.5,32.395a.537.537,0,0,0,0,.777l2.222,2.222a.549.549,0,0,0,.777-.777L43.278,33.4a8.317,8.317,0,1,1-6.723,2.385A.549.549,0,1,0,35.778,35a9.448,9.448,0,1,0,7.389-2.721Z" transform="translate(795 456.994)" fill="#707172"/>
  </g>
</svg>
