<svg xmlns="http://www.w3.org/2000/svg" width="18.655" height="22.879" viewBox="0 0 18.655 22.879">
  <g id="icon" transform="translate(-2.223 -2.749)">
    <path id="Path_115" data-name="Path 115" d="M45.106,53.219a.46.46,0,0,0,.543,0c.342-.251,8.394-6.211,9-10.552a.392.392,0,0,0,.005-.065V34.037a.462.462,0,0,0-.14-.33.436.436,0,0,0-.335-.129,14.455,14.455,0,0,1-8.517-2.925.463.463,0,0,0-.57,0,14.456,14.456,0,0,1-8.517,2.925.433.433,0,0,0-.335.129.462.462,0,0,0-.14.33V42.6a.355.355,0,0,0,.005.063c.608,4.34,8.657,10.3,9,10.554ZM37.018,34.493a15.237,15.237,0,0,0,8.36-2.9,15.236,15.236,0,0,0,8.36,2.9v8.078c-.529,3.539-6.951,8.625-8.36,9.7-1.41-1.079-7.831-6.161-8.36-9.7Z" transform="translate(-33.828 -27.741)" fill="#707172" stroke="#707070" stroke-width="0.1"/>
    <path id="Path_116" data-name="Path 116" d="M52.854,59.962a.459.459,0,0,0,.649,0l5.281-5.281a.459.459,0,1,0-.649-.649l-4.957,4.957L51.39,57.2a.459.459,0,0,0-.649.649Z" transform="translate(-42.844 -43.25)" fill="#be0c11"/>
  </g>
</svg>
