<svg xmlns="http://www.w3.org/2000/svg" width="27.678" height="14.097" viewBox="0 0 27.678 14.097">
  <g id="icon" transform="translate(-888 -585)">
    <path id="np_shipping_191968_000000" d="M9.353,37.9h1.924a.363.363,0,0,0,.173-.029,2,2,0,0,0,3.962.029h8.04a2.005,2.005,0,0,0,3.962,0h1.579a.5.5,0,0,0,.488-.488V32.047a4.7,4.7,0,0,0-1.119-3.3A3.659,3.659,0,0,0,25.632,27.6H22.761V25.988a.5.5,0,0,0-.488-.488H9.352a.5.5,0,0,0-.488.488V37.416a.5.5,0,0,0,.489.488Zm16.079.69a1.034,1.034,0,1,1,1.034-1.034A1.03,1.03,0,0,1,25.432,38.594ZM22.762,28.572h2.871c1.78,0,2.871,1.321,2.871,3.446V36.9H27.327a2.052,2.052,0,0,0-1.9-1.349,2,2,0,0,0-1.9,1.349h-.747V28.572Zm-9.3,10.021a1.034,1.034,0,1,1,1.034-1.034A1.048,1.048,0,0,1,13.458,38.594ZM9.841,26.476H21.757V36.9h-6.23a.363.363,0,0,0-.173.029A2.019,2.019,0,0,0,13.43,35.55a2.044,2.044,0,0,0-1.924,1.406.534.534,0,0,0-.23-.057H9.841ZM1.8,28.888a.5.5,0,0,1,.488-.488H7a.488.488,0,1,1,0,.976H2.289a.5.5,0,0,1-.488-.488ZM7,32.19H3.035a.488.488,0,1,1,0-.976H7a.488.488,0,1,1,0,.976Zm-3.79,2.3A.5.5,0,0,1,3.7,34H6.968a.488.488,0,1,1,0,.976H3.7A.466.466,0,0,1,3.208,34.487Z" transform="translate(886.199 559.5)" fill="#707172"/>
    <path id="np_shipping_191968_000000-2" data-name="np_shipping_191968_000000" d="M1.8,28.888a.5.5,0,0,1,.488-.488H7a.488.488,0,1,1,0,.976H2.289a.5.5,0,0,1-.488-.488ZM7,32.19H3.035a.488.488,0,1,1,0-.976H7a.488.488,0,1,1,0,.976Zm-3.79,2.3A.5.5,0,0,1,3.7,34H6.968a.488.488,0,1,1,0,.976H3.7A.466.466,0,0,1,3.208,34.487Z" transform="translate(886.199 559.5)" fill="#be0c11"/>
  </g>
</svg>
