<svg xmlns="http://www.w3.org/2000/svg" width="30" height="31.321" viewBox="0 0 30 31.321">
  <g id="icon" transform="translate(-29 -2340)">
    <path id="np_shipping_196515_000000" d="M50.5,27.542,43.944,19.2H27.063L20.5,27.542V50.525h30Zm-2.594-.56H36.367v-6.05H43.13Zm-20.033-6.05h6.763v6.05H23.1ZM22.181,48.795V28.658H48.824V48.795ZM35.5,32.373,39.926,36.8l-1.22,1.22-2.389-2.389v9.051H34.639V35.626l-2.389,2.389L31.03,36.8Z" transform="translate(8.495 2320.796)" fill="#707172"/>
    <path id="np_shipping_196515_000000-2" data-name="np_shipping_196515_000000" d="M35.5,32.373,39.926,36.8l-1.22,1.22-2.389-2.389v9.051H34.639V35.626l-2.389,2.389L31.03,36.8Z" transform="translate(8.495 2320.796)" fill="#be0c11"/>
  </g>
</svg>
