<svg xmlns="http://www.w3.org/2000/svg" width="30" height="23.006" viewBox="0 0 30 23.006">
  <g id="Group_134" data-name="Group 134" transform="translate(-198 -3056)">
    <path id="np_management_135361_000000" d="M54.773,48.032a4.007,4.007,0,0,0-5.225-1.614l-5.3-6.633a5.238,5.238,0,0,0,.605-6.087,5.246,5.246,0,0,0-9.61,1.263,5.125,5.125,0,0,0,1.137,4.817l-5.3,6.64a4.028,4.028,0,1,0-1.738,7.663,4.054,4.054,0,0,0,3.5-2.015,4.033,4.033,0,0,0-.33-4.515l5.3-6.63a5.274,5.274,0,0,0,1.593.556v4.653a4.028,4.028,0,1,0,4.8,4.964,4,4,0,0,0-.4-3.06,4.044,4.044,0,0,0-2.58-1.9V41.475a5.268,5.268,0,0,0,1.6-.558l5.294,6.633a4.03,4.03,0,1,0,7.055,3.542,3.965,3.965,0,0,0-.394-3.06ZM31.264,51.151a2.207,2.207,0,0,1-3.017.807,2.21,2.21,0,0,1-.807-3.017,2.207,2.207,0,0,1,3.017-.807,2.21,2.21,0,0,1,.807,3.017Zm10.965-2.208a2.209,2.209,0,1,1-3.015-.81,2.237,2.237,0,0,1,1.1-.3h.007a2.217,2.217,0,0,1,1.909,1.106Zm-1.9-9.2-.012,0-.009,0A3.439,3.439,0,0,1,37.35,38.03,3.422,3.422,0,0,1,38.6,33.356a3.417,3.417,0,0,1,4.674,1.251,3.423,3.423,0,0,1-1.251,4.674,3.432,3.432,0,0,1-1.7.461ZM53.415,50.619a2.209,2.209,0,1,1-3.236-2.486,2.206,2.206,0,0,1,3.236,2.485Z" transform="translate(172.688 3024.925)" fill="#707172"/>
    <g id="Ellipse_8" data-name="Ellipse 8" transform="translate(207.8 3056)" fill="none" stroke="#be0c11" stroke-width="1.75">
      <circle cx="5.2" cy="5.2" r="5.2" stroke="none"/>
      <circle cx="5.2" cy="5.2" r="4.325" fill="none"/>
    </g>
  </g>
</svg>
