<svg xmlns="http://www.w3.org/2000/svg" width="31.637" height="31.637" viewBox="0 0 31.637 31.637">
  <g id="np_price-match_1588482_000000" transform="translate(-30.753 -41.802)">
    <path id="np_tag_464420_000000" d="M5.5,17.434,22.566,34.5a1.651,1.651,0,0,0,2.367,0L34.5,24.934a1.651,1.651,0,0,0,0-2.367L17.434,5.5a1.636,1.636,0,0,0-1.2-.5H6.667A1.65,1.65,0,0,0,5,6.667v9.566a1.637,1.637,0,0,0,.5,1.2Zm6.3-7.6A1.72,1.72,0,0,1,9.833,11.8a1.663,1.663,0,0,1-1.4-1.4A1.72,1.72,0,0,1,10.4,8.434,1.7,1.7,0,0,1,11.8,9.834Z" transform="translate(26.503 37.552)" fill="none" stroke="#707172" stroke-miterlimit="10" stroke-width="1.5"/>
    <path id="Path_119" data-name="Path 119" d="M50.666,55.508a.8.8,0,0,1,.586.237.838.838,0,0,1-.586,1.424l-7.659,0a.819.819,0,0,1-.6-.251.843.843,0,0,1,0-1.173.844.844,0,0,1,.6-.237Zm0,4.143a.838.838,0,0,1,0,1.676H43.007a.819.819,0,0,1-.6-.251.843.843,0,0,1,0-1.173.819.819,0,0,1,.6-.251Z" fill="#be0c11"/>
  </g>
</svg>
