<svg xmlns="http://www.w3.org/2000/svg" width="20.386" height="22.375" viewBox="0 0 20.386 22.375">
  <g id="icon" transform="translate(-893.123 -511)">
    <path id="np_box_3520734_000000" d="M25.482,18.45V9.4a.145.145,0,0,0-.025-.1V9.276c-.025-.05-.025-.075-.05-.1L22.424,5.2A.612.612,0,0,0,22,5H12.554a.52.52,0,0,0-.4.2L9.172,9.177a.188.188,0,0,0-.05.1V9.3c0,.025-.025.05-.025.1V24.392a.5.5,0,0,0,.5.5H21.006A4.472,4.472,0,0,0,29.484,22.9a4.532,4.532,0,0,0-4-4.45ZM21.753,5.994,23.99,8.978H20.36L19.241,5.994Zm-3.579,0,1.119,2.983H15.264l1.119-2.983Zm1.342,3.978v3.481H15.04V9.972ZM12.8,5.994h2.511L14.2,8.978h-3.63Zm7.831,17.9H10.068V9.972h3.978V13.95a.5.5,0,0,0,.5.5h5.469a.5.5,0,0,0,.5-.5V9.972h3.978V18.45A4.473,4.473,0,0,0,20.51,22.9,4.35,4.35,0,0,0,20.634,23.894Zm4.351,2.486A3.481,3.481,0,1,1,28.465,22.9,3.491,3.491,0,0,1,24.985,26.381ZM26.973,22.9a.5.5,0,0,1-.5.5H24.985a.5.5,0,0,1-.5-.5V20.911a.5.5,0,0,1,.994,0V22.4h.994A.5.5,0,0,1,26.973,22.9Z" transform="translate(884.025 506)" fill="#707172"/>
    <g id="Ellipse_11" data-name="Ellipse 11" transform="translate(904.5 524.3)" fill="none" stroke="#be0c11" stroke-width="1">
      <circle cx="4.5" cy="4.5" r="4.5" stroke="none"/>
      <circle cx="4.5" cy="4.5" r="4" fill="none"/>
    </g>
  </g>
</svg>
