<svg xmlns="http://www.w3.org/2000/svg" width="25.313" height="33.231" viewBox="0 0 25.313 33.231">
  <g id="Group_135" data-name="Group 135" transform="translate(-200 -3056.298)">
    <path id="np_taxes_3265889_000000" d="M12.948,0a1.038,1.038,0,0,0-1.035,1.042V32.2a1.04,1.04,0,0,0,1.035,1.035H36.184A1.038,1.038,0,0,0,37.227,32.2V8.393a1.032,1.032,0,0,0-.1-.436.8.8,0,0,0-.044-.088s0,0,0,0a.06.06,0,0,1-.009-.009c-.013-.022-.026-.043-.04-.064l-.008-.014-.043-.052a.26.26,0,0,0-.025-.029.533.533,0,0,0-.036-.04L29.568.306A1.037,1.037,0,0,0,28.832,0Zm1.042,2.077h13.8V8.394a1.039,1.039,0,0,0,1.042,1.036H35.15V31.155H13.991ZM29.868,3.541l3.8,3.809h-3.8ZM20.706,14.366a2.962,2.962,0,1,0,2.967,2.965A2.98,2.98,0,0,0,20.706,14.366Zm6.526,0a1.039,1.039,0,0,0-.913.527l-5.3,9.17a1.041,1.041,0,1,0,1.8,1.044l5.29-9.17a1.039,1.039,0,0,0-.88-1.571Zm-6.526,2.077a.885.885,0,1,1,0,1.771.885.885,0,0,1,0-1.771Zm7.72,3.472a2.964,2.964,0,1,0,2.96,2.96A2.974,2.974,0,0,0,28.425,19.915Zm0,2.077a.885.885,0,1,1-.883.883A.872.872,0,0,1,28.425,21.992Z" transform="translate(188.086 3056.298)" fill="#707172"/>
    <path id="np_taxes_3265889_000000-2" data-name="np_taxes_3265889_000000" d="M21.856,17.2a2.962,2.962,0,1,0,2.967,2.965A2.98,2.98,0,0,0,21.856,17.2Zm6.526,0a1.039,1.039,0,0,0-.913.527l-5.3,9.17a1.041,1.041,0,1,0,1.8,1.044l5.29-9.17a1.039,1.039,0,0,0-.88-1.571Zm-6.526,2.077a.885.885,0,1,1,0,1.771.885.885,0,0,1,0-1.771Zm7.72,3.472a2.964,2.964,0,1,0,2.96,2.96A2.974,2.974,0,0,0,29.575,22.748Zm0,2.077a.885.885,0,1,1-.883.883A.872.872,0,0,1,29.575,24.825Z" transform="translate(187.104 3053.466)" fill="#be0c11"/>
  </g>
</svg>
