<svg xmlns="http://www.w3.org/2000/svg" width="30" height="30" fill="none" xmlns:v="https://vecta.io/nano"><g clip-path="url(#A)" fill="#000"><path d="M15.331 13.888c2.186 0 3.949-1.727 3.949-3.869S17.531 6.15 15.331 6.15c-2.186 0-3.949 1.727-3.949 3.869.014 2.156 1.777 3.869 3.949 3.869zM6.163 25.094H-.932c-2.299 0-2.426-3.441.042-3.441h6.15l3.526-5.085c1.044-1.396 2.229-2.059 3.907-2.059h5.261c1.678 0 2.863.608 3.907 2.059l3.54 5.085h6.192c2.482 0 2.327 3.441.085 3.441h-7.095c-.564 0-1.241-.194-1.636-.788l-2.708-3.786-.014 9.48h-9.704l-.014-9.479-2.708 3.786c-.395.58-1.072.788-1.636.788zm20.199-9.034c1.873 0 3.403-1.52 3.403-3.403a3.4 3.4 0 0 0-3.403-3.403 3.4 3.4 0 0 0-3.393 3.414c0 1.873 1.52 3.393 3.393 3.393zm-.188-3.115c-.624-.218-1.014-.534-1.014-1.094 0-.517.342-.923.97-1.051v-.56h.47v.534c.389 0 .671.08.879.191l-.191.671c-.154-.064-.406-.171-.752-.171s-.534.171-.534.342c0 .235.218.326.688.517.641.235.94.561.94 1.094s-.326.94-1.014 1.094v.534h-.47v-.517c-.406 0-.816-.107-1.014-.218l.171-.688c.218.107.561.235.923.235.389 0 .581-.171.581-.406s-.185-.332-.634-.507zM4.92 10.959L3.523 12.89l-.894-.971c-.099-.11-.096-.276.011-.383.11-.099.276-.096.382.011l.452.489 1.008-1.39c.088-.118.254-.151.379-.062a.27.27 0 0 1 .059.375zm2.126 1.361c.184.176.099.485-.143.544l-.846.217.239.839a.33.33 0 0 1-.401.401l-.824-.235 1.177 2.343-.982-.279-.272.908-1.302-2.596-1.302 2.596-.272-.908-.982.279 1.177-2.342-.824.235a.33.33 0 0 1-.401-.401l.239-.838-.846-.217c-.243-.059-.327-.368-.143-.544l.618-.607-.622-.607c-.184-.177-.099-.485.143-.544l.846-.217-.239-.838a.33.33 0 0 1 .401-.401l.838.239.217-.846c.059-.243.375-.324.544-.143l.607.625.607-.625c.173-.184.485-.096.544.143l.217.846.838-.239a.33.33 0 0 1 .401.401l-.239.838.846.217c.243.059.327.368.143.544l-.622.607.618.607zm-1.247-.607c0-1.125-.916-2.034-2.034-2.034-1.125 0-2.034.912-2.034 2.037a2.03 2.03 0 0 0 2.034 2.034c1.125 0 2.034-.912 2.034-2.037z"/></g><defs><clipPath id="A"><path fill="#fff" d="M0 0h30v30H0z"/></clipPath></defs></svg>