<svg xmlns="http://www.w3.org/2000/svg" width="30" height="30"><path d="m8.851 21.814-.002-.001-.001.004.003-.003zm2.533-1.191v.004h.003l-.003-.004zm4.864-1.792h-.002v.002l.002-.002z"/><path d="M29.842 12.787c-.084-.052-.067-.126-.069-.202-.002-.099.012-.203-.012-.295-.042-.159-.106-.31-.151-.438-.105-.032-.212-.036-.277-.095-.033-.03.008-.159.014-.243l.042.001c-.022-.041-.164-.072-.017-.131.018-.007.026-.065.027-.1l-.009-.264a.798.798 0 0 0-.029-.177l-.126-.371c-.036-.132-.05-.27-.083-.403l-.155-.563-.01-.04-.131-.366c-.038-.142-.058-.291-.089-.435l-.081-.31-.142-.492c-.032-.115-.047-.237-.09-.347-.065-.167-.167-.319-.215-.49a.867.867 0 0 0-.16-.318c-.146-.185-.307-.343-.529-.411a.784.784 0 0 1-.21-.09c-.195-.132-.403-.068-.602-.042-.152.02-.299.098-.449.15-.016.005-.042-.003-.049.008-.117.165-.176.023-.235-.059l-.378-.545-.303-.387-.426-.548-.507-.554-.529-.544-.451-.415c-.007.009-.014.025-.025.036s-.031.02-.048.03c-.07-.283-.309-.354-.481-.501-.182-.156-.352-.346-.607-.351l-.03-.143c-.041-.011-.092-.006-.112-.031-.069-.09-.127-.113-.19.002-.005.01-.037.015-.046.007s-.025-.035-.026-.054l-.002-.171c-.056-.019-.11-.021-.141-.051-.088-.084-.165-.098-.248.004-.011.013-.049.02-.056.012-.142-.17-.211.042-.314.07-.129.035-.24.165-.429.08.08-.058.135-.113.199-.139.125-.051.209-.302.127-.412-.116-.155-.287-.199-.445-.268-.054-.024-.105-.054-.158-.08l-.367-.171c-.061-.026-.13.007-.188-.078-.04-.059-.144-.064-.22-.092L19.33.867c-.104-.044-.201-.108-.307-.142-.137-.045-.279-.069-.418-.102l-.037-.011-.372-.142c-.108-.031-.216-.015-.332-.071-.162-.079-.358-.072-.539-.107-.068-.013-.132-.048-.2-.058-.054-.008-.11.006-.191.013.004.004-.015-.029-.039-.033l-.52-.084c-.2-.015-.402-.002-.603-.008l-.405-.029c-.071-.005-.147-.021-.214-.004-.08.021-.153.073-.229.112L14.889 0c-.06.148-.111.118-.157.067a.512.512 0 0 1-.18.058c-.17.014-.351-.07-.507.077-.019.017-.076-.013-.114-.025s-.075-.049-.107-.043c-.058.01-.111.063-.167.064a2.295 2.295 0 0 0-.631.08c-.116.036-.248.006-.368.032-.17.037-.333.121-.504.142-.137.016-.25.049-.312.14-.08-.015-.141-.046-.188-.03-.113.037-.219.102-.331.144l-.518.174-.399.113-.027.091c-.085 0-.146-.007-.204.003-.037.006-.069.04-.105.055l-.274.103c-.089.042-.172.102-.259.148l-.367.182c-.031.016-.055.061-.085.065-.16.021-.282.124-.409.216-.021.015-.041.041-.063.041-.172.001-.215.178-.218.281-.004.153-.086.252-.13.382-.015-.073-.032-.171.003-.209.087-.093.045-.17.021-.255l-.2.083c-.125.065-.205.208-.352.242-.046.01-.083.072-.124.11l.074.076.26.312c.023.028.041.061.061.091l-.239-.155c-.096-.054-.132-.223-.275-.185a.655.655 0 0 0-.243.102l-.449.351c-.151.097-.262.268-.41.374-.19.136-.319.34-.509.48-.215.158-.379.401-.564.61-.054.061-.099.132-.153.193-.045.051-.103.089-.144.143l-.515.698c-.112.152-.256.286-.332.457s-.21.297-.294.461c-.074.142-.197.257-.246.406s-.163.244-.22.383c-.025.061-.08.118-.081.177s.052.114.082.171l.088.166.264-.061.091.105c-.137.044-.255.099-.379.118-.169.025-.217.055-.263.25-.028-.007-.069-.004-.082-.023-.073-.104-.128-.043-.167.026-.044.079-.07.168-.103.253.081.037.018.072-.004.1-.048.062-.121.111-.15.181l-.247.685-.101.284-.126.369c-.033.105-.03.241-.092.312-.087.1-.054.162-.005.227-.047.06-.107.104-.125.163l-.154.618-.153.756c-.025.147-.029.294-.067.444-.058.233-.039.485-.081.732-.067.39-.066.795-.094 1.194 0 .008-.008.015-.01.019l-.395.112c-.091.028-.183.053-.269.094a1.248 1.248 0 0 0-.27.16c-.1.083-.199.175-.275.284-.086.125-.144.274-.218.41-.04.075-.03.285.027.297.134.027.094.14.111.227l.044.195c-.077.118-.223.233-.197.438.008.058.05.111.064.17l.093.45a.29.29 0 0 0 .012.039l.127.367c.036.131.022.303.095.39.113.135.033.302.126.441.075.114.067.293.101.443l.082.304c.044.141.106.279.135.424.022.107.019.213.133.222-.017.056-.052.11-.041.148a1.26 1.26 0 0 0 .122.281c.031.053.087.123.133.124.124.003.127.085.124.176-.001.051-.015.1-.022.143l.122.106-.178.015c-.002.049-.013.097-.006.141l.095.475c.035.126.095.243.145.364.019.045.052.086.06.133.024.132-.017.27.075.401.1.142.151.326.247.473.074.113.18.203.28.292.068.061.151.103.234.158.08-.055.14-.147.093-.261-.038-.091-.114-.164-.172-.242-.106.018-.17-.041-.205-.137-.039-.106-.058-.221-.101-.324-.059-.145-.147-.277-.197-.425-.067-.2-.113-.41-.162-.617l-.093-.444a.169.169 0 0 0-.042-.067c-.085-.093-.106-.198-.106-.333 0-.158-.054-.317-.09-.473-.017-.073-.048-.141-.073-.212-.044-.122-.099-.24-.13-.366-.042-.171-.062-.348-.097-.52a2.74 2.74 0 0 0-.083-.292l-.131-.379c-.043-.157-.071-.319-.107-.492l-.125.087.03-.155c.011-.053.04-.107.033-.155-.014-.091-.048-.179-.072-.268-.029-.107-.047-.22-.088-.321a1.949 1.949 0 0 1-.139-.627c-.01-.189.029-.37.061-.556s.137-.312.224-.447.21-.234.329-.332a1.02 1.02 0 0 1 .304-.181c.148-.051.304-.07.453-.101l.034-.137.014.042c.064 0 .13.007.193-.003.044-.007.085-.042.13-.054s.096-.004.139-.021c.107-.043.208-.107.317-.143.136-.044.278-.068.417-.101.02-.005.039-.015.05-.019l-.039-.134.126.028c.052.01.108.037.155.023.132-.039.261-.094.391-.143l.299-.11c.011-.005.012-.041.018-.062-.024-.023-.047-.052-.075-.067-.061-.034-.106-.201-.189-.03-.056-.048-.222.013-.283.07-.036.034-.069.209-.162.04-.009-.018-.092.008-.138.021s-.097.04-.147.059l-.17.061c-.043.013-.089.018-.143.028l.002-.407c.011-.14.041-.279.06-.419.008-.056.022-.118.006-.167s-.065-.081-.103-.116c-.003-.003-.038.021-.042.037-.027.135-.065.271-.072.408l-.004.715-.025-.013-.108.194-.056-.485c-.003.004.026-.016.031-.043l.071-.473c.011-.111-.013-.229.007-.337.029-.155-.082-.335.05-.449-.01-.059-.038-.117-.022-.143.066-.112.137-.217.129-.36a.42.42 0 0 1 .011-.112l.142-.638c.024-.108.018-.248.078-.317.109-.125.051-.292.138-.423.067-.1.064-.256.098-.385.026-.098.055-.195.092-.289l.203-.489.16-.445c.017-.045.054-.081.072-.125.06-.153.093-.326.181-.456.072-.108.076-.172.023-.227l.181-.202c.04-.055.055-.137.101-.182.147-.144.198-.35.294-.526.02-.004.048-.002.056-.015l.16-.27.39-.603c.058-.09.103-.189.167-.272.092-.12.201-.224.293-.344l.448-.546c.136-.153.327-.274.358-.52.001-.007.011-.012.017-.018.06.054.057.052.112-.006.041-.044.093-.077.132-.123l.222-.283-.022-.024.194-.038.016-.044c-.058-.038-.111-.093-.173-.109-.07-.019-.147-.004-.239-.004l.04-.144c.053.025.09.05.13.059.093.022.203-.032.275.086.01.016.072.011.096-.006.062-.045.116-.104.174-.155l.207-.177.416-.335.292-.218V3.09l.097-.044c.059.014.104.04.125.026l.428-.31c.159-.101.329-.182.492-.276l.473-.283.017-.193.031-.003.056.149c.032-.005.064-.004.09-.016.166-.079.34-.146.495-.247.126-.082.343-.05.366-.305l.027.16c.043-.038.075-.082.114-.095.115-.037.233-.061.35-.091a.212.212 0 0 0 .058-.025c.126-.078.254-.15.406-.142a.287.287 0 0 0 .101-.013l.456-.146c.191-.044.387-.067.583-.099L12.874.9h.04l.038.249c.054-.033.087-.068.125-.074l.572-.083a7.29 7.29 0 0 1 .768-.014c.138.005.244-.03.331-.173l.051.169h1.473L16.373.8l-.009.242.841.091c.021.002.042.01.062.016l.515.156c.161.041.325.064.488.096.008.002.017.002.025.005.128.051.253.123.385.149a2.23 2.23 0 0 1 .503.17c.174.077.36.12.541.177.012.004.025.007.035.014l.227.161.032-.259.047.002c.006.056.016.112.014.168-.004.092.03.144.11.17a1.52 1.52 0 0 1 .258.104c.126.069.245.152.369.226l.43.252.182.096c.062.035.127.067.184.109.168.127.322.286.503.382.162.086.266.245.423.331.073.041.125.125.194.179.163.13.342.239.493.385.198.192.362.429.567.613.13.116.211.335.394.304l.156.312c.036.058.101.094.142.148l.685.914c.057.073.092.133.043.244l-.126-.115c-.054.117-.161.161-.261.172-.109.013-.155.046-.137.166v.177l.44-.103c.118-.055.223-.111.334-.145.142-.042.29-.061.433-.1.085-.023.166-.065.249-.102.107-.046.212-.134.319-.136.296-.005.602-.09.886.076.111.065.232.12.328.207s.177.195.235.312c.032.062.004.162.003.244-.091-.089-.139-.179-.206-.249-.094-.098-.164-.23-.303-.273-.058-.018-.127-.045-.162-.094-.084-.112-.142-.056-.211.029-.015-.034-.025-.077-.036-.077-.151-.002-.308-.025-.451.013-.129.034-.245.122-.384.14-.114.015-.222 0-.342.076-.198.125-.433.182-.655.258-.127.044-.261.068-.397.103l.008.265c0 .023-.027.045-.042.067-.013-.021-.034-.04-.036-.061-.005-.063-.002-.127-.002-.203-.086.007-.157 0-.22.021-.127.042-.249.103-.376.15-.103.038-.209.063-.313.097l-.475.161c-.097.032-.214.035-.287.099-.133.118-.302.054-.442.151-.131.09-.3.11-.452.163l-.271.098-.435.094c-.008.002-.015.007-.024.011l-.372.146-.374.104c-.14.052-.274.122-.443.199l.108.32c.088 0 .15-.017.199.003.131.054.245.152.398.142.089-.006.14.059.169.164-.192-.001-.355.014-.535-.057a1.63 1.63 0 0 1-.444-.277l-.038.126-.061-.051v-.355l-.265.123.025.251c-.114-.083-.148-.221-.277-.182l-.37.103-.346.147c-.128.044-.259.076-.4.117.037.048.06.099.098.122.046.029.108.044.05.109-.018.02-.117 0-.125-.025-.053-.152-.092.007-.13.006l-.135-.129-.416.141c-.118.031-.252-.019-.356.088-.028.029-.058.065-.093.074l-.469.107c-.029.006-.06.003-.086.016l-.344.19.178.299-.03.029c-.043-.023-.095-.036-.126-.071-.105-.125-.18-.324-.38-.147a2.78 2.78 0 0 0-.448.075c-.174.04-.302.163-.468.209-.152.041-.293.134-.454.155a.179.179 0 0 0-.103.058c-.046.053-.081.117-.127.188l-.037-.16-.363.103-.422.15c-.046.017-.098.036-.133.071-.044.046-.074.109-.093.139-.072-.017-.139-.048-.203-.042-.07.007-.136.054-.206.074l-.398.1a3.228 3.228 0 0 0-.302.099l-.337.145c-.124.043-.253.069-.375.101-.005.099.021.209-.018.261-.093.124-.042.255-.058.382-.005.038-.031.073-.046.109-.011-.035-.033-.07-.033-.105l-.001-.578c-.05.011-.099.017-.144.033l-.365.136-.383.099-.485.163c-.016.005-.041-.001-.049.01-.1.12-.225.062-.342.065-.023-.133.046-.179.149-.181l.027-.106.313.046-.133-.347c-.029.028-.052.065-.083.075l-.354.096-.072.02-.428.148-.368.102-.576.227c-.132.046-.27.067-.406.101a.218.218 0 0 0-.048.019l-.297.152c-.066.037-.129.082-.192.126s-.088.147-.196.13c-.033-.005-.078.083-.118.129l.03.048c.094-.034.185-.083.282-.099s.2-.002.315 0c-.054.133-.115.165-.212.173-.118.01-.233.057-.349.092l-.258.087c-.115.046-.225.129-.342.142a.79.79 0 0 0-.473.232c-.071-.021-.116-.044-.159-.042-.021.001-.039.046-.059.074-.196-.021-.366.072-.54.149-.107.047-.221.078-.333.109l-.396.097a1.762 1.762 0 0 0-.24.086l-.327.147-.501.166-.265.095-.431.099c-.17.054-.335.128-.51.196l-.013.142c-.072-.139-.162-.111-.242-.079-.107.042-.204.123-.313.147a2.424 2.424 0 0 0-.473.162c-.114.051-.189.108-.19.206-.073.063-.129.099-.169.149-.03.036-.036.095-.06.138-.094.169-.124.362-.14.552-.015.176-.007.353.07.522.054.119.071.257.108.385l.118.379.097.49c.002.013.013.025.017.038l.126.392c.06.157.02.375.226.444-.088.092-.094.193-.029.293.016.025.023.056.03.086l.087.407.154.532.015.054.133.488c.024.1.048.192.151.221a.78.78 0 0 0 .112.505l.097-.092.035.02-.042.243c-.009.04-.053.08-.048.113.019.119.048.235.08.35.027.096.04.215.099.279.19.207.335.46.629.556.211.068.413.081.602.03.138-.038.243-.048.36.026-.001.042.011.1-.009.12-.045.044-.03.183-.149.123a.492.492 0 0 0-.181-.061l-.55-.014a.28.28 0 0 1-.097-.025l-.151-.075-.025.047.061.079-.071.332.305-.052c.03.011.084.05.133.043l.608-.106c.017-.003.031-.027.046-.041a.17.17 0 0 1 .238.019c.139.197.288.383.399.606.08.162.218.289.33.432.071.091.114.224.225.204.038.088.055.17.1.226l.487.569.438.46.41.413c.079.079.152.167.237.235l.499.378a4.95 4.95 0 0 0 .682.516.454.454 0 0 0 .524-.021c.01-.008.031 0 .047.003a.938.938 0 0 0 .302.621l.02-.455.042-.005c.007.034.018.067.019.101l.01.309c.003.034.025.078.051.094l.496.306a2.46 2.46 0 0 0 .243.126l.41.177c.031.014.052.058.083.07l.393.151.043-.179c.025.062.045.086.041.105-.029.14.083.15.15.18.109.048.228.07.342.106l.075.021a.58.58 0 0 1 .134.052c.014.008.031.011.043.021.061.051.116.07.171.064a.266.266 0 0 0 .056.028c.053.02.108.032.163.043l.542.168c.02.005.041.006.061.01l.114.036c.204.046.411.067.617.1.017.003.032.01.049.014.071.02.141.047.213.057.048.006.08-.004.096-.031l.072.008c.032.005.063.023.093.04.059.031.102.058.146.062l1.222.091c.047.003.095.009.14-.001s.08-.025.12-.039l.178-.002.1.055.025-.057.085-.002c.127.136.233-.107.333.021l.32-.092c.039.013.079.037.117.035.155-.007.304-.012.46-.063.222-.073.464-.075.697-.107.022-.003.044-.012.066-.018.034-.021.067-.024.098-.029.013-.002.024-.007.037-.011l.078-.025c.114-.017.224-.056.336-.08l.473-.097c.012-.003.023-.01.035-.015l.37-.145c.108-.038.224-.056.328-.104.015-.007.028-.018.043-.026a2.75 2.75 0 0 0 .276-.1l.346-.149c.102-.04.212-.062.312-.109l.42-.221.442-.19c.129-.066.245-.162.372-.234s.266-.119.388-.198l.693-.488.687-.511c.149-.111.268-.261.42-.37s.28-.257.416-.389l.573-.565c.146-.159.258-.358.41-.509.261-.258.465-.566.684-.862.074-.099.161-.189.218-.299.021-.04.156-.1.03-.174.265-.151.37-.409.385-.739l.099.093.406-.739-.122-.042.2-.274c.016-.027.002-.085-.011-.123-.018-.052-.05-.1-.075-.149l.044-.033.186.202.125-.4.131-.22.169-.404.21-.496c.029-.071.056-.144.078-.218l.098-.353.207-.6c.058-.195.076-.4.149-.595.059-.157.062-.339.09-.509l.011-.084.133-.559c.033-.177.006-.357.066-.544.074-.234.067-.5.088-.753a2.4 2.4 0 0 0 .003-.353c-.003-.058-.031-.115-.048-.172.028-.094.044-.196.05-.299.006-.11.002-.221.002-.328.298-.047.572-.059.992-.645-.085-.071-.097-.237-.022-.365l.101.128c-.01-.132.011-.193.118-.244.088-.042.141-.179.202-.277.03-.049.069-.11.065-.162-.009-.148-.037-.294-.061-.442-.017-.123.018-.265-.097-.336zM3.097 8.519c.089-.19.162-.214.285-.126l-.285.126zM4.171 7.06a.296.296 0 0 1 .142.256c-.132-.039-.164-.09-.142-.256zm4.082-4.151v-.212l.041-.002.01.211-.051.002zm.58-.418L8.79 2.49l-.002-.252c.033.034.049.043.049.052l-.004.201zM14.835.823c-.09-.138-.073-.241.016-.27l-.016.27zm.087-.341c-.002.023-.042.042-.066.062l-.001-.266c.002-.025.044-.045.07-.068l-.002.271zm1.46.309c.066-.068.104-.191.23-.149-.026.147-.063.169-.23.149zm4.934 1.577.286-.133.017.051c-.069.12-.173.139-.303.082zM1.399 17.939c0-.098-.01-.163.004-.222.006-.027.057-.046.091-.056a.1.1 0 0 1 .046.055c-.035.064-.076.123-.141.223zm.28-.646.17.06-.124.173-.046-.233zm.096 3.755v-.253l.156.02c-.038.103-.044.208-.156.233zm26.33-13.132c.154.214.23.517.176.652-.036-.033-.097-.061-.111-.105-.041-.143-.066-.292-.092-.439-.005-.03.015-.065.026-.108zm-.06 4.676-.152-.099c-.017-.012-.026-.037-.039-.056.016-.011.032-.03.049-.032a.761.761 0 0 1 .455.107c.024.013.024.106.013.157-.006.03-.054.049-.076.068l-.25-.145zm.195 1.838c-.108.025-.157-.014-.15-.139.112-.034.147.023.15.139zm-.382-2.71.002-.28c.001-.014.026-.039.038-.037s.038.026.037.04l-.02.279-.057-.002zm.108-2.753.127.115h-.262l.135-.115zm-.399-1.029h.031v.227l-.031.001v-.227zm.098 1.025.135.12h-.308l-.006-.025.18-.095zm.013 4.705c-.038.079-.062.167-.096.261-.122-.193.053-.335.051-.504.069.035.082.166.045.243zm-.453-4.902.016.211-.424-.046c-.034-.004-.067-.014-.137-.03.189-.108.382.04.546-.135zm-.01.764v.356c-.108-.103.039-.28-.16-.309l.033-.035.127-.012zm-3.752-.526-.222.014c.032-.106.092-.12.222-.014zm-.573.076.159-.248.055.181.129.01c-.025.149-.151.042-.219.105l.073.183-.409-.139c-.042-.017-.074-.067-.111-.101.116-.081.248-.073.323.01zm-.318-.249h-.404c.036-.074.267-.087.404 0zm-.346-.485.002.052h-.21l-.002-.04.211-.012zm-.507.341h.033v.228h-.033v-.228zm-.517 1.001c.195-.018.373.047.544.125l.11.02c.023.006.046.03.067.027.135-.018.207.094.287.176s.217.112.309.054c.045-.028.098-.041.146-.062l.355-.144c.074-.036.193.027.218.121l.143.482c.011.039.003.085.013.126.011.048.032.093.057.161-.118.183-.343.188-.524.312l-.014.136-.037.005-.034-.161-.28.103.079.213.011-.021.252.191.052-.063c.091.091.179.094.286.014.134-.101.27.002.315.167.038.143.032.313.146.425.028.027.069.054.104.054a.442.442 0 0 1 .363.16c.01.012.031.02.046.017.143-.025.239.088.355.141.111.05.229.081.382.1l-.085-.263-.079-.281-.094-.434c-.036-.133-.088-.26-.133-.39a.464.464 0 0 1-.016-.053l-.087-.437c-.033-.126-.089-.243-.129-.368l-.091-.34-.121-.45c.158-.099.389-.072.54-.255.104.075.316.002.432-.133.101.005.193.041.245.006.133-.09.271-.054.406-.065.051-.004.103 0 .154 0a.903.903 0 0 1 .518.156c.07.046.161.053.23.1a.91.91 0 0 1 .205.198l.362.51c.049.078.063.182.105.266.077.153.037.362.207.48.036.025-.004.18-.023.271.014.078.042.157.039.234-.006.178-.072.369-.029.527.036.133-.017.198-.048.289a.9.9 0 0 1-.081.18l-.223.351-.222.197c-.103.092-.178.22-.334.237-.076.009-.144.094-.222.127-.113.048-.232.08-.349.121l-.418.149c-.094.032-.187.068-.283.086-.064.012-.149-.146-.173-.258-.034-.156-.044-.329-.149-.451-.052-.061-.138-.088-.211-.124l-.243-.105a3.412 3.412 0 0 1-.273-.16c-.03-.019-.052-.051-.085-.084l-.061.093-.198-.184c-.13-.106-.175-.095-.224.078-.023.082-.064.088-.125.106-.148.042-.293.103-.441.153-.04.014-.083.016-.13.025v.224l.136.028c.008.046.003.111.03.141.06.066.125.182.224.037.016-.024.073-.015.111-.018.117-.012.117-.011.096-.168h-.252l.145-.158c.051.101.107.136.158-.059l.047.231c.057-.026.107-.054.16-.07.042-.013.112-.03.128-.008.086.117.146.095.201-.058l.03.032.017.332-.132.038.17.633c-.073.131-.199.187-.362.204-.11.011-.214.088-.321.135a.094.094 0 0 1-.023.01l-.383.1c-.122.041-.239.097-.359.147l-.023.01-.282.09c-.088.03-.164.002-.203-.081-.043-.09-.063-.194-.092-.291l-.144-.478-.078-.281-.091-.421c-.023-.09-.061-.175-.092-.262-.018-.052-.05-.103-.051-.156-.006-.207-.08-.39-.146-.578-.043-.123-.058-.258-.094-.384l-.141-.457c-.004-.013-.005-.028-.008-.041l-.124-.486c-.007-.041.034-.13.067-.138.183-.048.329-.211.54-.188.086.009.18-.062.281-.1l.008-.125c-.172-.037-.352-.036-.491-.117-.121-.071-.278-.002-.371-.142-.006-.009-.047.011-.072.018-.019.005-.046.02-.057.012-.034-.027-.061-.063-.091-.096.04-.016.08-.04.121-.044zm6.237 2.799c-.007.005-.023-.007-.062-.021l.073-.058.077-.08c.005.028.023.069.012.083-.026.032-.064.054-.099.076zm.013 1.478-.003.454c0 .004-.04.006-.064.009l.021-.463h.045zm-.07.473v.409c-.09-.145-.074-.329 0-.409zm-.21-1.526-.012-.243c.087.042.104.138.012.243zm-.472 1.931c-.018.015-.042.021-.074.036l-.155-.125c-.006-.005.003-.048.007-.049.04-.004.085-.014.12.001s.067.055.096.088c.009.01.014.043.007.049zm-.623-.642v.2l-.212.115-.14-.213-.065.045-.039-.023.09-.22c.004-.008.043-.011.046-.004.075.154.217.053.32.1zm-1.08-.091c-.127-.019-.223-.076-.231-.237-.155-.064-.162-.08-.127-.382l.065.08.201.267c.072.079.132.152.092.272zm.098.036c.061.039.134.075.174.134.05.073.076.168.11.253-.123-.029-.252-.056-.322-.185-.036-.066-.04-.152-.057-.23.033.008.067.011.094.028zm.362.635c.02-.072.044-.144-.056-.182-.01-.004-.01-.037-.014-.06l.218-.057-.137.442c-.007.018-.076.023-.106.009-.045-.023-.08-.069-.148-.133l.244-.02zm-.938-.578v.309h-.035v-.309h.035zm-1.752 1.407-.163.018.04-.179.123.161zm-1.391-3.161-.117.152v-.29l.117.137zm-.349.728.041.002v.223h-.041v-.224zm-1.774-2.619.033-.003.073.313-.106.028v-.338zm.056.576.304-.103c.042-.015.081-.042.124-.057l.227-.075c.081-.02.159-.048.205.083.064.181.13.357.155.553.017.13.09.251.132.379l.083.307.091.452c.032.121.086.235.131.351a.131.131 0 0 1 .006.027l.091.447c.036.131.093.255.134.383l.083.307.091.435c.011.045.05.082.062.127.036.132-.038.229-.204.277l-.404.113.072.568c-.023-.025-.053-.047-.064-.078-.033-.09-.053-.185-.085-.275-.008-.025-.037-.047-.06-.057l-.27-.102c-.021-.009-.051-.044-.049-.065.016-.167-.114-.242-.186-.349-.086-.127-.094-.196.02-.295l-.133-.26c.117-.122-.018-.21-.053-.298-.046-.111-.131-.204-.208-.295-.03-.036-.085-.047-.136-.073.102-.118.116-.223-.006-.339-.045-.043-.057-.131-.083-.199l.033-.037.192.08c-.002-.02 0-.047-.007-.071l-.052-.152c-.024-.07-.03-.158-.075-.206-.109-.12-.07-.268-.086-.405-.005-.048.005-.099-.062-.073-.03-.182-.036-.377-.102-.541-.056-.136-.057-.263-.066-.399-.003-.046-.039-.09-.065-.147.061-.013.123-.091.155.041.002.014.045.026.065.021zm1.461 4.632c.007.062-.003.126-.006.19-.022-.016-.061-.029-.063-.049-.008-.061-.003-.125-.002-.189.026.016.069.029.071.048zm-.349.877a1.77 1.77 0 0 1-.175-.312c-.055-.133.001-.204.151-.192-.026.15.046.245.125.341.173.211.131.323-.016.495-.008.009-.021.015-.03.023l-.082.058c.006-.054-.006-.128.022-.16.078-.091.068-.161.006-.254zm-.769-.338c.015.011.034.02.046.035l.455.572c.01.013.007.041.008.063h-.298l-.1-.372c-.016-.048-.067-.08-.096-.125a.29.29 0 0 1-.046-.11c-.003-.017.021-.042.032-.063zm-.049-.255c-.02-.009-.044-.015-.059-.03-.056-.056-.124-.111-.037-.224l.114.183c.008.014-.011.047-.018.071zm-.525.673c0-.029.026-.057.041-.086.016.027.046.057.044.082-.011.138.034.237.135.279l-.092.283c-.163-.151-.126-.36-.128-.558zm-.051-3.748c-.111-.114-.134-.314-.063-.474l.177.491c-.035-.004-.09.008-.114-.017zm.076-.736-.104-.322.035-.025.087.078.068-.055.131.245c-.045.145-.154.03-.217.079zm-.314-2.205.358.025.08.319-.162-.149c-.067.019-.138.063-.166.041-.063-.048-.174-.09-.109-.236zm-.06 1.61.137.129c-.025.02-.052.049-.058.045a.61.61 0 0 1-.111-.103c-.007-.007.021-.046.032-.071zm.038.443-.002.217-.053.001v-.217l.056-.001zm-1.382-1.163c.005-.016.026-.031.043-.037.007-.003.032.022.031.032-.02.175.096.293.149.436.002.005-.008.015-.017.029l-.1-.083a.46.46 0 0 1-.105-.377zm-.751-.313c.054.04.116.071.161.121a.456.456 0 0 1 .119.196c.026.149.116.203.229.235-.028.156-.032.155-.146.071-.032-.023-.081-.019-.117-.026l-.109-.382c-.064-.041-.135-.07-.183-.123-.029-.032-.024-.102-.035-.156l.083.063zm-.225 1.47.441-.108.497-.169.495-.197.026-.215c.114.177.113.173.312.123.034-.008.092.031.119.067.04.052.074.117.088.182l.081.452c.01.052.033.1.058.175-.06.091-.134.186-.288.201-.115.011-.223.102-.337.145-.058.022-.124.019-.195.029-.056.198.027.376.09.548l.235-.065c.021-.008.032-.044.047-.069l.214-.012a.199.199 0 0 0 .092-.032c.114-.085.207-.038.241.108.032.133.088.26.129.391.013.043.012.092.021.137l.053.228c-.097.118-.24.172-.404.197-.106.016-.208.07-.327.113-.012.071-.054.164.043.239.013.01.011.043.016.066l.089.44.15.546c.018.064.068.164.047.187-.075.085-.15.17-.279.187-.14.018-.273.105-.413.14-.112.028-.231.023-.34.032l-.185-.732-.153-.571c-.036-.12-.091-.234-.13-.353a3.602 3.602 0 0 1-.088-.324l-.091-.433c-.038-.14-.096-.273-.137-.412-.036-.123-.053-.253-.088-.377l-.127-.403c-.03-.098-.072-.194-.082-.294-.005-.05.05-.107.079-.166zm1.667 1.091c-.067-.067-.178-.104-.134-.264.094.068.146.145.134.264zm-1.149 2.532c-.1.025-.161.007-.154-.11.001-.016.059-.044.061-.041.032.045.059.095.092.152zm-2.241-3.783.003.389-.06.003-.004-.414c.023.007.06.014.061.022zm-.065-.427.001.399c-.027-.019-.074-.037-.074-.058l-.003-.444c.075-.012.075.046.076.103zm-.115-.371.036.014v.251h-.259l.222-.264zm-.01 1.614c.082-.01.159-.059.239-.085l.305-.091c.029-.01.051-.043.075-.064.122.094.193.2.211.372.021.198.096.388.15.58l.15.536.155.575.142.408.073.265.092.42.128.414.094.367c.018.107-.062.182-.163.209-.16.043-.316.103-.474.156l-.271.086c-.102.026-.124-.075-.164-.142-.015-.025-.012-.061-.022-.122l-.126.12-.337-1.808-.109.114-.093-.463a.63.63 0 0 0-.132-.331c-.037-.052-.038-.18-.005-.238.055-.097.059-.171.005-.26a.334.334 0 0 1-.029-.075l-.145-.484c-.091-.257.004-.432.251-.462zm1.12 4.583.077.623c-.067-.058-.134-.086-.142-.127l-.088-.603c-.002-.019.021-.043.033-.064.016.02.041.038.048.061.013.048-.008.118.072.11zm.065.029c-.006-.017-.039-.022-.062-.031l-.001-.194c.001-.019.015-.042.03-.052s.04 0 .045.011l.086.201.112.288c.011.028.036.055.034.08-.003.059-.019.118-.029.177-.04-.056-.092-.106-.119-.169-.04-.098-.061-.207-.097-.309zM13.8 12.325c.096.071.146.28.07.416l-.09-.419c.007 0 .015-.001.021.003zm-.102-.286c.11.095.074.192.077.277-.027-.02-.067-.037-.073-.062-.012-.056-.004-.117-.004-.214zm-.229-.43c.004-.043.021-.097.049-.123.038-.034.052-.019.156.108l-.13.136c-.091.01-.08-.067-.075-.122zm.093.363-.018-.237c.09.019.107.099.018.237zm-.468-.594.166.171-.166.01v-.181zm-.449.338.063.089.058.069c-.025.009-.056.032-.075.023a.14.14 0 0 1-.066-.073c-.008-.022.01-.055.02-.107zm-1.018 1.595.151.175-.151.029v-.204zm-.238-.544c.003-.011.028-.022.042-.02s.03.022.031.035c.004.047.001.094.001.141l.028.014-.1.201c-.01.017-.039.022-.059.033-.009-.023-.029-.05-.026-.07l.082-.334zm.191.92c.131-.044.271-.059.403-.102.115-.037.225-.094.338-.143l.037-.013.473-.164c.13-.04.262-.079.396-.096.156-.02.21.057.242.232.03.164.078.328.138.482.075.195-.007.358-.202.394-.103.019-.201.071-.315.113.005.073-.05.176.063.235.005.003.008.016.009.025l.08.433c.034.131.088.256.13.386l.087.295.089.434c.028.116.068.229.105.351.15.027.156.041.075.202-.01.02-.023.047-.018.065.028.107.046.222.094.318.076.148.068.201-.074.282a1.41 1.41 0 0 1-.492.168c-.091.015-.178.061-.269.079-.057.011-.117-.004-.159-.006l-.182-.55c-.041-.148-.054-.304-.093-.453-.034-.126-.089-.246-.13-.37l-.082-.295-.092-.423c-.035-.13-.086-.254-.126-.382a.76.76 0 0 1-.026-.164c-.018-.246-.123-.301-.32-.179-.055.034-.131.027-.207.04l-.026.429-.059-.013v-.151c0-.115.026-.228-.079-.324-.05-.046-.054-.153-.081-.232l-.134-.413c-.023-.102-.016-.212-.022-.31l.43-.18zm.769 5.321c-.011-.012-.029-.028-.028-.041.004-.061.014-.121.023-.191.245.278.32.504.232.762l-.043-.175-.143-.013c-.005-.015-.011-.03-.01-.032.15-.124.058-.217-.031-.311zm-.113.216-.042.025c-.039-.064-.15-.092-.077-.238l.118.213zm-1.256-6.172c.042.083.069.176.096.267.008.028-.004.062-.006.093-.102.032-.134-.012-.14-.115-.005-.09-.032-.178-.055-.294.033.014.09.019.106.049zm-.14.619-.002.486c0 .009-.026.026-.038.024s-.032-.022-.032-.034l-.002-.476h.074zm-.229.704h.231v.039h-.236l.005-.039zm-1.365-.354.031-.001.118.233c-.05-.014-.124-.012-.143-.046-.026-.046-.006-.123-.006-.187zm-.071-.501-.051.192-.101-.257.335-.299c.072.223.017.327-.183.364zm.448.79c-.128.081-.204.06-.225-.054l.122-.048.103.102zm-.008-1.988v.238l-.137.025c-.025.062.005.187-.12.157-.018-.004-.045-.032-.045-.05.001-.107.186-.329.302-.371zm-1.419.419.287-.167c.12-.058.244-.114.37-.154.145-.046.296-.075.458-.115a.33.33 0 0 1-.231.276c-.141.036-.275.098-.414.14l-.442.112c-.02.005-.044-.015-.066-.023.013-.023.02-.056.039-.068zm-.09 2.117c.131-.034.258-.093.386-.142l.048-.017.342-.095c.062-.021.117-.066.197-.112l.024-.122.023-.001.037.151c.064-.025.125-.068.189-.072.174-.011.349-.011.523-.005.05.002.098.043.149.049.043.005.089-.014.133-.022l.072-.014c-.028.162.13.144.188.227.093.134.216.242.325.362.011.012.014.033.021.05.104.239.086.496.099.75.011.229-.082.419-.19.58-.102.153.02.206.06.263.141.2.308.379.463.567l.391.492a.805.805 0 0 1 .11.191c.052.135-.021.222-.148.243-.139.023-.273.089-.411.131s-.268.091-.406.109c-.124.015-.183.073-.191.205l-.016.307-.046.002-.019-.14c-.006-.074.029-.161-.064-.206-.01-.005-.006-.059.002-.087.006-.019.032-.03.046-.047.125-.15.124-.208.005-.353l-.306-.382-.337-.413-.05.027.058.181c.007.022.022.04.027.063l.091.434c.034.126.081.249.13.369.059.146.007.262-.128.303-.112.034-.217.093-.325.141l-.417.107c-.115.021-.168-.052-.197-.171-.037-.151-.095-.296-.135-.445l-.096-.42-.13-.423c-.035-.12-.08-.24-.092-.364s-.046-.221-.125-.312c-.042-.048-.053-.129-.086-.215.045-.056.096-.138-.012-.223-.012-.009-.011-.044-.011-.068-.004-.186-.075-.348-.148-.511-.037-.082-.048-.178-.066-.269l-.097-.53c-.011-.077.035-.105.106-.124zm3.572 3.984c-.084-.036-.096-.278-.022-.416.052.067.061.237.022.416zm-.592.498c-.025-.033-.016-.096-.023-.151.122-.028.182.005.178.141-.003.088-.006.168.053.255.041.061.015.178.018.27l.029-.027.211.146-.021.044c-.081.008-.153.035-.234-.053-.043-.047-.155-.014-.186-.116-.012-.041-.031-.099-.015-.129.072-.133.086-.254-.011-.383zm-.399.009-.059.014-.086-.279c-.005-.02.021-.049.033-.075l.043.068c.021.04.045.079.056.121.011.049.009.1.013.15zm-.246.62v.261l-.033-.001v-.263l.033.002zm-1.811.068-.016-.103.162.04-.146.063zm-1.02-6.605.002-.314c.001-.038.017-.074.026-.111l.071.057c.052.034.112.058.157.101.035.034.052.09.078.137l-.033.036-.119-.034c-.058.202-.123.408-.277.562-.049.049-.085.112-.127.169-.086.115-.189.078-.302.051l.526-.652zm.222 3.904c-.081-.127-.073-.215.022-.267l-.022.267zm.014.406h-.043l-.133-.268c.077.024.15.027.159.055.022.064.013.142.016.213zm-.103-.779c-.129-.084-.119-.08-.061-.224.044-.109.061-.232.089-.349l.026-.127.048.009c-.015.233.081.481-.102.69zm-1.157-1.951c.128-.238.326-.398.481-.603a.34.34 0 0 1 .124-.114c.087-.037.114.023.078.099l-.707.837c-.024-.104-.019-.141.023-.219zm-.806-1.146-.144.175-.021-.269.165.094zm.035.399.017.036c-.111.155-.111.155-.235.095l.218-.13zm-.011 1.047-.108-.232.031-.018c.125.114.125.114.077.25zm-.635-.491.022-.034c.04.017.079.044.119.047.048.004.107.004.143-.024.073-.056.126-.153.232-.097l-.279.489-.046-.187-.2.096c.004-.051-.006-.136.014-.145.104-.049.039-.095-.005-.145zm.214.963c.113-.009.22-.096.332-.137.119-.042.242-.07.362-.105.115-.033.233-.056.343-.104.032-.014.041-.093.109-.203l.026.105.499-.087.107.545.074.339c.014.104-.031.154-.135.175-.124.025-.239.096-.362.136-.084.027-.173.035-.27.053.054.086.127.157.009.249-.022.017.034.157.058.252l.152-.104c.03.085.149.116.229.062.04-.027.086-.043.13-.06.035-.013.077-.008.106-.029.093-.067.199-.026.228.093l.163.663c.007.028.043.047.06.066l-.184.281c-.089-.088-.197-.089-.309.007-.023.02-.065.016-.099.019-.158.015-.217.12-.156.285.018.047.052.088.065.136s.009.101.012.149c.161.025.229-.043.225-.204-.002-.056.007-.112.011-.168h.043l.032.297.473-.16c.095-.033.161.035.193.105.046.102.064.22.09.333l.082.405c.019.124-.023.182-.152.19-.097.006-.191.069-.287.106l-.14.052-.454.158-.284.092c-.122.035-.249.055-.367.102-.042.016-.083.087-.093.14-.019.102.038.218-.072.303-.02.016.016.119.032.214l-.028.168c-.019.097-.056.175-.161.179-.002-.161-.042-.328.066-.474.015-.021.018-.084.007-.092-.111-.076-.027-.147-.013-.231.017-.104.084-.239-.049-.325-.008-.005-.012-.025-.012-.038a.86.86 0 0 0-.062-.373c-.059-.15-.073-.321-.113-.514-.044.03-.095.046-.118.084-.063.102-.101.23-.178.315-.04.044-.141.023-.214.031-.001-.018-.007-.05-.003-.052.146-.068.137-.266.244-.357s.136-.208.141-.348c.005-.13-.054-.211-.146-.286.076-.073.096-.153.011-.236a.087.087 0 0 1-.015-.038l-.095-.463c-.032-.119-.085-.231-.128-.346a.264.264 0 0 1-.012-.04l-.09-.453c-.034-.128-.093-.25-.132-.377-.026-.085-.037-.176-.059-.283.025-.146.124-.191.274-.203zm1.308 1.109c-.017-.116.049-.18.123-.243.039.121-.018.226-.123.243zm-.614 4.322c-.104-.024-.141-.1-.088-.182.031-.048-.015-.153.088-.15v.331zm.263-.075c-.039.072-.059.157-.098.17-.058.019-.155.04-.161-.09l.259-.08zm-.768-.367.166.116-.068.411-.029.004-.058-.17-.073.151c-.03-.021-.075-.034-.085-.062-.019-.052-.04-.127-.019-.167.044-.083.115-.149.175-.222l-.008-.061zm-.498-5.73.014.029-.146.134-.025-.161.157-.001zm-1.968-.359.139.166-.156.025-.01-.173.027-.018zM2.081 17.85l.054-.012.085.331-.053.015-.085-.334zm.254 4.222-.13-.254c.167.037.194.089.13.254zm.054-2.126c-.004-.023.009-.049.014-.074.02.01.045.015.059.032l.151.192c-.111.02-.21-.049-.224-.149zm.245 2.608v-.295c.177.147.177.149 0 .295zm.342-1.766c-.104.067.007.233-.129.289-.076.031-.085.21-.233.127-.039-.311.252-.368.34-.58l.043.013c-.005.052.005.135-.021.151zm.402-.454c-.112-.055-.193-.217-.365-.14.029-.207-.12-.293-.214-.423-.076-.104-.122-.233-.184-.351-.025-.047-.045-.114-.084-.132-.086-.04-.064-.115-.077-.185l-.126-.7c-.016-.163.015-.332.032-.498l.058-.404a.401.401 0 0 1 .045-.121l.23-.414c.172-.249.355-.488.643-.585.109-.194.308-.11.45-.18.152-.076.293-.055.442-.065.043-.003.083-.047.153-.09l-.017.151c-.014.06-.059.127-.046.178.025.103.081.197.122.295a.29.29 0 0 1 .017.066c.011.067-.008.136.068.19.031.023.026.149.001.21-.02.048-.091.079-.145.102-.041.017-.091.008-.147.011l-.015.277-.073-.11c-.118-.125-.243-.131-.368.007-.196.217-.342.485-.296.79.024.162.038.339.116.504.071.15.128.302.241.422.097.103.213.165.328.237.191.121.331-.022.492-.034.057-.005.106-.12.161-.189.034.007.088.025.143.026.122 0 .169.058.2.189.026.114.09.218.133.328.012.03.008.069.012.104l.049.404-.288.173c-.048.028-.093.068-.145.083l-.596.161c-.046.013-.088.044-.135.068-.138-.169-.418-.211-.52-.092-.1-.092-.185-.21-.296-.265zm.441-2.182c-.076.035-.109.019-.114-.084v-.224l.035.007.08.3zm1.333 3.824c.095.072-.007.124-.025.18-.01.029-.056.043-.085.065-.047-.103-.021-.162.11-.245zm.001-.004c-.007-.113.029-.196.131-.24.032.142-.035.255-.131.24zm-.605-.903-.144.177v-.184l.144.007zm-.909.343c.087.055.18.103.259.169.024.02.014.09.02.137l-.076-.05c-.054-.037-.114-.068-.161-.114-.034-.034-.053-.088-.079-.133l.035-.01zm.283 1.261-.158.397c-.006.013-.043.01-.067.014-.036-.178-.101-.35-.079-.539.009-.077.016-.144.116-.118-.014.07-.035.139-.039.209-.003.065.012.131.019.196l.034-.002.104-.304c.006-.016.029-.038.042-.037s.036.027.037.043c.002.047.005.098-.01.139zm.313.281c-.115.086-.174.062-.225-.091l.825-.294.037-.158h.031l.045.145.035.032c.011-.028.015-.072.034-.083a.695.695 0 0 0 .266-.247l.038.161.388-.132c.023-.008.042-.036.065-.04l.576-.088c.037-.005.077.007.116.011-.004.03-.004.046-.007.048l-.382.118c-.112.041-.218.1-.328.145a2.306 2.306 0 0 1-.266.089l-.397.104c-.089.03-.17.085-.255.129-.019.009-.038.023-.058.027l-.46.094a.194.194 0 0 0-.079.032zm.252.797.236.247c-.19.023-.263-.058-.236-.247zm.636.924c-.025-.023-.023-.081-.033-.123l.031-.004.147.132c-.071 0-.122.016-.145-.005zm3.177 2.74c-.003.027-.042.048-.066.071l.002-.342c.001-.027.028-.054.043-.081.013.026.035.051.035.076a1.83 1.83 0 0 1-.014.277zm2.811 1.671c-.085-.131.056-.155.08-.242.061.116.061.116-.08.242zm2.181.164-.033.005c-.009-.035-.014-.074-.027-.108s-.033-.06-.061-.109l.121-.014v.227zm1.85.568-.043-.002v-.367h.043v.369zm-1.602-.403c-.008.013-.059.014-.061.009l-.1-.324c.132.034.218.224.161.315zm-.146.089.145.049-.101.124a.06.06 0 0 0-.035.014l-.009-.188zm8.881-2.042c-.132-.26-.132-.26-.054-.311l.102.297-.048.014zm1.053-1.44-.015-.229c.103.049.11.105.015.229zm.311.279c-.031-.027-.068-.05-.091-.085-.009-.013.014-.051.022-.078.018.013.04.024.053.041.018.023.029.052.043.079l-.027.042zm3.103-5.069c-.043-.099-.177-.13-.11-.27.101.045.145.138.11.27zm.288.245c-.072.003-.106-.043-.105-.118 0-.02.024-.038.037-.058l.134.136c-.029.019-.047.039-.066.04zm.527-3.676c-.112.082-.124.248-.033.369a.14.14 0 0 1 .011.112l-.178.381c-.057.104-.067.195.001.299.022.033.019.087.028.13l-.031.012-.106-.135-.091.375-.113.352-.028.074-.1.333-.142.386c-.028.074-.04.171-.09.217-.087.079-.048.168-.054.254-.053.065-.137.126-.149.2-.028.186-.199.309-.173.513.001.009 0 .024-.004.027-.124.087-.175.232-.238.366-.035.074-.059.154-.084.219l-.215.252.115.1c-.274-.001-.285.266-.4.413l-.522.74c-.16.252-.357.455-.541.676l-.742.861c-.085.092-.165.203-.254.271-.109.085-.197.192-.302.277l-.465.36c-.062.049-.116.111-.178.161l-.422.335-.37.303c-.054.042-.117.069-.176.103l-.636.361-.507.318c-.035.021-.082.02-.128.03l-.029.153c-.135-.2-.222.051-.362 0 .042.175.136.326.038.543-.048-.1-.093-.165-.112-.238-.029-.107-.2-.175-.297-.116a2.69 2.69 0 0 1-.291.15l-.367.154a.14.14 0 0 1-.024.008l-.449.101-.442.149c-.064.02-.134.016-.196.023l-.07.199c.101.13.092.18-.065.286l-.122-.408c-.107.023-.221-.045-.323.08-.033.041-.146 0-.221.006l-.854.09c-.032.004-.06.048-.091.074a.35.35 0 0 0-.355-.052c-.021.014-.041.044-.061.043l-.706-.038-.27-.023c-.244-.006-.488.002-.73-.015-.234-.016-.475-.027-.698-.098-.146-.047-.288-.045-.43-.076-.171-.036-.338-.099-.507-.15-.008-.003-.017-.003-.025-.005l-.481-.099c-.118-.035-.228-.102-.344-.147a3.46 3.46 0 0 0-.294-.094l-.623-.186c-.133-.052-.251-.15-.378-.22-.068-.038-.141-.063-.212-.093l-.288-.116-.043.176-.036-.002c-.006-.042-.018-.084-.016-.125.008-.132-.064-.175-.163-.202-.052-.014-.1-.048-.149-.076l-.321-.187c-.102-.068-.195-.153-.298-.219A.51.51 0 0 0 8.318 27c-.107-.01-.17-.044-.165-.175l-.204-.024-.038-.15-.188-.018c-.069-.211-.085-.217-.285-.236-.042-.004-.091-.059-.116-.104-.045-.081-.088-.147-.177-.178-.036-.012-.055-.084-.087-.138l-.114-.021-.031-.139c-.118-.056-.353.058-.301-.231l-.308-.127c-.024-.01-.045-.028-.068-.043.026-.016.051-.034.078-.045.022-.008.047-.007.087-.013l-.264-.313-.508-.545c-.126-.164-.26-.263-.459-.223l-.017-.408c-.107-.011-.154-.082-.16-.201-.002-.037-.045-.07-.069-.105l-.294-.441c.065-.02.098-.081.152.02.071.133.174.244.275.38.077-.213-.005-.352-.143-.489l.388-.124.332-.14c.023-.01.049-.014.074-.02l.403-.098.48-.164.5-.169.557-.184c.126-.051.242-.122.377-.154.204-.047.32.067.442.215.072.088.13.208.258.225.008.001.019.007.022.013.092.206.283.314.434.434.129.102.235.254.401.316.107.04.189.154.291.22l.478.283c.074.045.143.097.213.148s.202-.03.211-.136c.004-.055.001-.111.001-.136l-.401-.28-.331-.197c-.207-.147-.417-.286-.6-.474-.192-.197-.413-.358-.62-.536-.066-.057-.138-.113-.185-.187-.014-.023.043-.102.063-.144l.15.072.101-.298c.077.146.146.174.232.075a.087.087 0 0 1 .045-.022l.409-.103c.109-.036.21-.099.317-.142a2.63 2.63 0 0 1 .28-.094l.394-.105c.09-.031.171-.09.272-.145l.053.04.432-.16v-.233c-.191-.014-.355.086-.53.146-.068.023-.14.028-.219.044l-.039.217h-.029l-.039-.154c-.025.011-.05.019-.072.032s-.036.043-.057.048l-.419.096c-.131.038-.257.095-.386.143-.008.003-.015.008-.023.01l-.402.102c-.117.038-.227.1-.343.143-.056.021-.118.017-.175.034l-.326.101-.339.138-.462.158-.362.1-.403.143c-.067.021-.141.023-.235.036.013-.054.012-.105.029-.114.102-.053.18-.147.309-.161.135-.014.265-.091.397-.14a.335.335 0 0 1 .062-.017c.147-.011.287-.043.395-.167.005-.006.015-.007.023-.009l.461-.09c.12-.033.233-.093.35-.14l.251-.095.36-.099.399-.148.267-.092.404-.102a1.66 1.66 0 0 0 .276-.096c.024-.011.033-.077.039-.121.008-.061.006-.123.009-.184l.043-.002.029.259.225-.089.047-.018.436-.155c.032-.011.068-.012.101-.013.124-.005.171-.089.182-.209.004-.046-.003-.094.001-.141l.091-1.006c.004-.038.068-.068.104-.102l.035.032v.319l.144.028.005.03-.146.055.077.299-.031.019-.075-.068-.12.178a.138.138 0 0 0-.006.096l.117.363c.113-.065.225-.139.373-.156s.296-.1.445-.149l.366-.107.397-.145.306-.102.452-.151c.098-.033.195-.09.293-.093.131-.003.209-.081.289-.185.059.102.12.125.188.025a.04.04 0 0 1 .021-.014l.388-.098c.09-.027.176-.066.275-.104.009.183-.053.268-.177.277a1.03 1.03 0 0 0-.461.157c-.007.004-.016.005-.024.007l-.467.11-.034.138c-.085-.063-.168-.114-.246-.002-.008.011-.032.01-.048.015l-.41.097-.522.173c-.101.039-.196.098-.293.149-.007.004-.015.009-.023.011l-.409.09c-.118.036-.229.1-.346.141-.063.023-.133.024-.227.04.014.076.016.209.044.217.084.022.178-.006.269-.017.013-.001.022-.033.035-.036l.393-.101.304-.101.453-.154.367-.154c.011-.005.024-.008.036-.011l.37-.09.54-.176c.172-.075.343-.136.525-.171.114-.023.218-.104.33-.144.129-.045.262-.074.404-.112-.001-.088.067-.192-.053-.258-.006-.003-.007-.017-.009-.025l-.083-.486c-.009-.052-.039-.099-.046-.15a.622.622 0 0 1-.003-.215c.005-.022.089-.026.137-.027.019-.001.051.025.057.046l.093.336.088.274c.004.009.048 0 .075-.002-.025-.078.03-.058.067-.072l.326-.138c.09-.036.18-.086.273-.096.157-.018.305-.044.424-.172.006-.006.015-.008.023-.01l.474-.092c.117-.03.23-.085.345-.129.023-.009.045-.026.07-.031l.396-.099c.127-.041.248-.107.374-.152.111-.04.229-.059.341-.096l.367-.136c.028-.011.056-.029.084-.028.113.004.213-.007.207-.172l.185.098.037-.032-.073-.489c.049.05.114.092.14.154.085.205.209.245.409.126.011-.006.021-.016.033-.019l.424-.101c.11-.035.213-.092.32-.139a.193.193 0 0 1 .073-.019.595.595 0 0 0 .389-.153c.012-.01.032-.008.049-.011l.487-.104.524-.169.486-.167.367-.157c.102-.038.21-.057.314-.091l.449-.158.354-.097c.116-.041.226-.103.342-.144a.642.642 0 0 1 .2-.03c.089-.002.102-.06.107-.138.002-.037.017-.072.027-.107l.031.113.014.069.149-.071c.011-.005.018-.021.029-.023l.407-.099c.119-.037.232-.097.35-.139l.333-.103c.052-.014.108-.013.177-.021l-.085-.153c.07.014.133.006.148.033.068.115.096.024.119-.007l.08.143c0 .108-.121.09-.237.096l-.039.144c-.083-.095-.158-.079-.251-.015-.081.056-.184.075-.278.105l-.342.096-.383.144c-.015.006-.031.014-.048.019l-.394.098c-.163.05-.339.083-.48.176-.088.058-.17.047-.252.075-.115.038-.226.09-.338.137-.016.006-.031.016-.048.019l-.406.103c-.114.037-.222.096-.332.145-.02.009-.04.021-.06.022-.167.003-.312.079-.462.148-.111.051-.237.063-.353.102l-.4.15-.44.121-.037.165c-.079-.101-.152-.159-.225-.023-.003.005-.015.005-.024.006l-.448.095c-.128.038-.248.104-.373.155-.026.011-.063-.003-.086.011-.047.027-.089.067-.132.102.036.051.067.139.109.144.068.01.143-.033.215-.055.012-.004.022-.015.034-.018l.479-.107.036-.146c.048.012.096.168.139.008.002-.008.024-.017.032-.014.193.078.347-.083.526-.105s.355-.1.529-.164l.612-.248c.019-.007.034-.025.052-.032.037-.016.079-.042.113-.035.024.006.059.062.056.091-.014.119.033.244-.06.358-.054.067-.06.181-.085.274l-.095.379-.207.513-.085.202c-.082.203-.151.414-.254.603a.48.48 0 0 0-.061.185c.148-.001.16-.158.219-.252.085-.136.149-.289.215-.438.039-.089.06-.187.096-.277l.138-.314a2.33 2.33 0 0 0 .085-.261l.09-.375.132-.439.016-.065.081-.282.074.012-.018.311c-.007.055-.034.108-.05.162l-.145.471-.085.275-.25.759c-.079.199-.216.372-.276.576-.038.128-.163.245-.094.405h-.111l-.114.182c-.116.171-.117.23.005.38.03.037.068.066.113.108l.243-.44-.075-.173c.155.035.197 0 .245-.158.026-.087.086-.161.127-.241l.102-.214.216-.471c.039-.092.059-.193.093-.287l.13-.311c.007-.016.011-.034.017-.052l.146-.495c.015-.057-.002-.125.014-.182l.142-.466c.01-.035-.001-.078.012-.111.025-.067.044-.158.092-.188.09-.054.199-.07.299-.104l.467-.16.314-.097.451-.156.267-.089.355-.098.388-.15.357-.101c.054-.017.105-.047.159-.063.047-.013.096-.016.157-.026l-.008.858c-.008.094-.069.186-.07.298s.064.15.161.23l.002-.45c.013-.15.052-.297.065-.447.012-.136.006-.273.007-.409v-.149l.172-.018-.074.471-.015.675c0 .03.047.06.075.092-.172.108-.209.296-.09.422-.092.081-.092.081 0 .17-.156.137-.169.241-.137.513zm.253-.164-.119-.124c.061 0 .109-.015.127.004s.016.075.022.115l-.03.005zm.308-1.497c-.012-.015-.036-.03-.036-.045.003-.065.013-.13.021-.194l.041.001.016.185c0 .017-.028.035-.043.052zm.654-1.353-.02-.029-.179.132c-.038.034-.06.093-.12.024-.014-.015-.073.017-.074.017l-.346-.314c-.019-.018-.021-.057-.03-.086h-.163l.025-.165.031-.012.111.173c.025.001.052-.004.075.004l.301.118.028.098.434-.14-.072.18zm.065-2.808.041-.16.165.16h-.206zm.059 1.891c-.075-.2-.045-.269.126-.256l-.126.256zm.163-.708-.04.001v-.474h.04v.473zm.696.326-.134.036.089.305c-.178.039-.244-.021-.242-.195l.002-.282a1.59 1.59 0 0 0-.142-.64c-.026-.063-.024-.139-.042-.25l-.079.209-.108-.11.126-.298c.008-.023-.024-.083-.049-.094-.092-.039-.101-.111-.094-.203.019-.257-.072-.487-.153-.718-.009-.026-.04-.042-.033-.075l-.03-.123c-.003-.013-.012-.024-.014-.038l-.082-.435c-.034-.131-.092-.254-.13-.384-.021-.07-.022-.147-.033-.23l-.143-.03c.073-.104.067-.189.038-.313-.059-.25-.246-.462-.191-.745.001-.009.008-.016.014-.029.081-.008.123.022.146.121.033.141.09.273.134.411l.082.295.094.438c.027.098.08.187.118.282.013.033.016.07.023.106l.093.505c.037.148.071.314.155.426s.038.23.068.338l.132.41c.006.018.009.036.014.054l.15.549.084.436c.014.108-.025.241.168.229a.447.447 0 0 0-.034.04z"/><path d="M24.458 6.955a.579.579 0 0 1-.229.113c-.162.042-.329.066-.494.099-.011.002-.019.015-.035.029l.062.092-.009.041c-.084-.006-.175.006-.253-.022-.119-.044-.215.037-.323.047-.054.005-.105.045-.159.064-.023.008-.052-.004-.075.005l-.382.152c-.122.041-.25.058-.371.1-.106.037-.204.108-.31.141-.084.026-.173.049-.257-.051-.112-.135-.251-.243-.377-.364l-.329-.321a2.03 2.03 0 0 0-.203-.17l-.311-.207c-.125-.094-.239-.209-.369-.291-.171-.107-.353-.19-.53-.285l-.178-.105-.4-.219c-.041-.023-.09-.084-.118-.072-.146.058-.229-.094-.345-.131-.088-.028-.131-.061-.169.002-.127-.077-.236-.166-.36-.212-.148-.054-.306-.071-.459-.103a.4.4 0 0 1-.037-.01l-.43-.143a2.99 2.99 0 0 0-.443-.082l-.728-.074c-.349-.049-.708-.012-1.062-.018-.104-.002-.175.019-.172.142l-.281.127-.013-.215-.778.12.049.166c.017.05.039.097.069.17.038-.019.081-.059.125-.06.099-.002.168-.179.287-.037.021-.114.048-.203.184-.144l-.082.147.528-.035c.052-.005.103-.034.155-.04.445-.052.883.064 1.325.075.086.002.173-.001.256.018l.6.148.542.102c.008.002.018.002.024.007.107.08.212.122.319-.048l.025.187.343.106.251.097c.082.04.157.099.239.138l.44.193c.128.062.25.139.385.215l.148.111c.053.035.116.054.165.093l.28.239.567.432a3.24 3.24 0 0 1 .287.252c.077.076.132.186.218.243.096.063.042.104.014.183l-.395-.349c-.078-.073-.126-.197-.259-.159.004.026.002.061.016.076l.341.343c.015.015.016.078.009.081-.074.034-.15.064-.228.089-.041.013-.086.013-.137.02l.081.118c-.042.012-.085.019-.124.037-.079.039-.129-.065-.229-.023-.22.094-.458.133-.689.194-.012.003-.023.008-.035.013l-.336.146c-.128.042-.263.064-.394.096-.012.003-.024.009-.035.014l-.362.145c-.127.04-.259.059-.386.099l-.444.168c-.045.019-.113.048-.12.084-.014.082.003.17.008.256.1-.024.232.011.232-.184.103.108.103.107.223.026a.158.158 0 0 1 .047-.018l.406-.099a.16.16 0 0 0 .047-.019c.118-.073.236-.151.38-.144a.246.246 0 0 0 .1-.018l.398-.149c.118-.039.245-.05.356-.102.151-.07.294-.16.464-.157a.125.125 0 0 0 .05-.011l.508-.195.033-.147c.063.038.116.098.164.094a.56.56 0 0 0 .255-.086 1.13 1.13 0 0 1 .476-.172c.203-.031.399-.11.599-.169l.381-.154.316-.096.469-.163.301-.121c.007.003.045.034.069.024.111-.045.215-.113.328-.151.136-.045.279-.066.418-.098.014-.003.026-.014.058-.031l-.153-.083.207-.14c-.071-.076-.139-.103-.232-.024z"/><path d="M17.557 9.543v-.004l-.002.001.002.003zm7.133-2.565zM4.699 13.84c.012-.003.026-.001.038-.005l.456-.161c.012-.004.026-.003.037-.008.125-.051.248-.134.376-.146.169-.015.302-.098.44-.182.036-.022.068-.067.105-.073l.585-.089.103-.342-.281.052c-.013-.076-.047-.163.039-.241.018-.016.007-.08-.003-.117-.004-.014-.052-.03-.065-.02a.198.198 0 0 0-.057.08c-.009.019-.004.046-.006.07a.626.626 0 0 1-.22.429c0-.126-.036-.26.008-.311.089-.105.052-.17-.019-.259l.132-.031.11-.472c.038-.131.096-.256.142-.385l.095-.288.203-.419.173-.434c.026-.063.052-.127.087-.183.117-.186.265-.355.348-.558.088-.214.254-.351.364-.542.08-.139.173-.298.318-.401.107-.076.167-.229.26-.333l.524-.553.323-.322.415-.349.427-.318.288-.195.317-.196-.015-.054c-.121 0-.245.015-.364-.004-.15-.023-.257.054-.367.141l-.357.277-.416.318c-.073.059-.137.129-.206.194l-.418.397-.432.457-.324.383c-.104.138-.195.287-.296.437l.035.057c-.078.061-.182.099-.2.165-.049.185-.163.327-.263.46-.156.206-.235.453-.363.67-.069.115-.119.244-.176.368l-.208.474c-.04.101-.061.211-.095.316l-.144.414c-.007.021-.012.046-.026.059-.078.077-.048.15-.032.185a.52.52 0 0 0-.084.15 3.19 3.19 0 0 0-.077.31l-.08.44-.24.05-.226.061-.283.094-.383.151c-.076.031-.167.044-.224.099s-.095.063-.16.062c-.243-.004-.393.126-.411.345a.52.52 0 0 0 .33-.064c.133-.071.292-.078.441-.112z"/><path d="M3.928 14.016h-.004l.003.003v-.003zm13.629-4.474-.002-.003v.001l.003.002z"/><path d="M17.154 9.363c-.053.02-.102.065-.155.072-.138.021-.25.136-.404.111-.072-.012-.154.048-.232.075l-.277.094-.433.153-.357.101c-.09.028-.178.066-.267.101l-.326.13-.42.107a2.66 2.66 0 0 0-.255.088l-.344.144c-.133.043-.274.057-.406.102-.165.055-.327.128-.503.199l-.015.068c-.092-.005-.175-.03-.248-.01-.155.041-.306.105-.458.159l-.046.018-.4.147-.202.083c-.012.007-.017.074-.003.087.056.056.121.103.17.143l.402-.145c.125-.039.259-.05.379-.102.17-.074.331-.172.522-.16.012.001.026 0 .038-.005.199-.08.393-.184.598-.235a3.06 3.06 0 0 0 .531-.171c.187-.084.39-.125.586-.184l.048-.016.397-.145c.146-.04.296-.062.445-.092.008-.002.015-.007.023-.011l.305-.147.312-.127-.066-.088.133-.16.025.208.488-.101c.008-.002.014-.009.023-.012l.346-.148c.131-.042.268-.063.401-.099.019-.005.033-.038.049-.058-.032-.02-.063-.046-.097-.059-.102-.036-.176-.165-.303-.117zM9.013 2.764c-.123.07-.235.165-.355.241l-.329.189-.524.403-.427.342c-.081.07-.138.194-.226.227-.112.041-.179.124-.259.198l-.567.529c-.065.063-.125.144-.095.256.006.02.017.038.026.058.02-.011.043-.018.059-.034l.569-.562c.103-.098.237-.167.314-.284a.65.65 0 0 1 .263-.245c.159-.085.297-.218.444-.33l.546-.414c.089-.065.187-.115.279-.176.136-.092.255-.216.416-.262.055-.016.103-.059.155-.089l.39-.227a.21.21 0 0 0 .139-.255l-.282.16-.536.275zm-5.728 7.684.112-.404c.061-.165.14-.323.209-.485l.235-.567c.027-.067.08-.137.075-.202-.012-.192.17-.269.193-.436.004-.03.027-.056.041-.084-.045-.004-.111-.029-.13-.006a1.3 1.3 0 0 0-.17.261c-.059.122-.104.254-.157.38-.023.054-.056.103-.078.158l-.096.257-.135.319-.097.286-.204.547c-.039.118-.059.243-.089.365l-.08.294-.137.467c-.04.185-.059.377-.088.564-.004.022-.018.041-.025.063l-.054.177c.16-.007.227-.075.235-.209.005-.084.005-.171.023-.252l.13-.513.108-.45.121-.369c.005-.017-.018-.043-.029-.065l-.033-.062c.021-.01.041-.023.063-.03s.043-.002.057-.003zM12.26 5.485c-.188.148-.425.113-.629.281-.004.063-.029.132-.134.122-.03-.003-.064.032-.096.049.025.052.044.109.079.152a.11.11 0 0 0 .097.032c.059-.016.116-.048.173-.077.156-.079.306-.177.469-.233l.529-.174c.166-.067.355-.061.531-.101a.33.33 0 0 0 .17-.111c.053-.066.005-.217-.065-.215-.127.005-.254.029-.379.058s-.245.078-.37.112-.277.027-.375.104zm5.614-3.84.445.092a.226.226 0 0 1 .037.011l.341.145c.117.04.24.063.36.1a1.73 1.73 0 0 1 .216.085l.287.148c.072.035.148.059.221.093l.31.149.381.143-.008-.184c-.049-.011-.093-.012-.13-.03l-.292-.156c-.077-.037-.161-.058-.237-.097-.082-.042-.156-.105-.239-.141-.104-.044-.216-.068-.323-.105l-.296-.113c-.112-.044-.223-.101-.338-.131-.155-.041-.315-.061-.473-.091-.013-.002-.029-.003-.035-.012-.097-.123-.247-.083-.367-.146-.094-.049-.212-.041-.337-.062-.048.107.055.178.109.205.113.056.244.069.37.097zM5.572 5.801l-.326.375c-.122.17-.222.358-.336.535l-.444.68-.233.402c-.039.063-.111.109-.047.2l.176-.093.221-.403.259-.397.273-.441.573-.736.316-.399c.087-.113.219-.209.12-.405l-.421.486c-.05.059-.082.136-.131.195zm15.62-2.718.486.289c.129.089.243.206.367.304l.559.428c.12.1.224.221.338.33s.239.129.366.057l-.302-.268-.501-.442c-.131-.106-.288-.176-.412-.291-.136-.126-.269-.241-.456-.252l-.023-.105-.39-.249c-.05-.033-.096-.08-.15-.1-.123-.045-.23-.176-.394-.089.019.044.027.101.056.119l.457.271zm-2.195 3.315-.447-.191c-.094-.043-.182-.107-.277-.144-.114-.044-.235-.068-.351-.103l-.271-.089-.399-.148c-.101-.029-.203-.03-.309-.07-.19-.072-.401-.077-.604-.103-.184-.024-.367-.014-.555-.062-.245-.062-.514-.015-.772-.015.002.149.084.188.217.122a.233.233 0 0 1 .13-.028c.085.01.169.041.255.055.252.041.508-.041.765.072.162.072.361.018.542.093.157.065.335.068.502.105.1.022.207.038.293.093.181.116.4.097.578.227.081.059.19.067.285.104.063.024.131.046.184.089.118.098.244.162.394.155-.013-.1-.09-.131-.159-.162zm-5.265-5.081.807-.021c.064-.002.128-.025.195-.039.043.011.134.042.138.033.05-.131.121-.036.182-.027.046.007.09.029.135.03l.474.012c.112.009.188-.031.261-.156l-1.001-.082c-.016-.001-.032.011-.049.014l-.133.032-.008-.032c-.037.016-.075.048-.112.046-.476-.015-.947.04-1.418.106-.093.013-.18.072-.271.11l.011.051c.039.002.078.011.116.006l.673-.085zM12.283 1.413c-.142.035-.277.102-.418.144s-.28.068-.42.101c-.008.002-.017.002-.025.006l-.318.147c-.116.042-.238.064-.357.1l-.252.094-.558.279v.16l.226-.109c.142-.089.279-.188.452-.183.024.001.049-.011.072-.021l.354-.15c.103-.039.21-.063.315-.097l.486-.158c.02-.006.042-.005.062-.012l.425-.148c.169-.043.342-.064.524-.096l-.012-.157-.556.101zM10.14 11.98c.057 0 .107.016.121-.003.089-.118.237-.037.342-.139.073-.072.204-.074.31-.102l.404-.098c.08-.019.091-.079.063-.147-.024-.056-.062-.105-.1-.167-.327.11-.665.278-1.02.333l-.12.323zM8.253 9.124l.463-.53.604-.663c-.052.002-.12-.015-.151.014a5.685 5.685 0 0 0-.397.423l-.666.816c-.097.129-.242.226-.264.414.033-.01.078-.011.095-.034l.315-.442zM9.322 7.929l-.002.002h.005l-.003-.002zm9.838-1.366-.005-.001.002.004h.003v-.003l-.001.001zM20.213 7.163a4.61 4.61 0 0 0-.356-.253l-.383-.232c-.098-.06-.186-.154-.314-.113.003.025 0 .063.012.071l.325.183c.062.034.131.055.188.097.098.072.186.162.283.235.159.121.333.222.48.358.058.054.104.071.167.07-.008-.03-.008-.071-.025-.087l-.377-.329zM20.616 7.579l.001.004h.003V7.58l-.003-.001zm-10.073-.613c.023.003.052.017.069.006l.497-.321c.188-.107.386-.193.579-.289l.001-.042c-.067 0-.143-.023-.199.005-.131.064-.25.158-.378.229l-.53.281c-.026.015-.026.086-.038.132zm6.421-5.553c.113.022.224.059.349.092V1.32c-.281-.012-.547-.177-.836-.068.045.126.125.144.221.141a1.19 1.19 0 0 1 .266.02zM9.96 7.409c.073-.064.157-.113.234-.171.017-.013.028-.036.042-.055-.023-.011-.053-.036-.069-.029-.042.018-.08.051-.118.08l-.439.34c-.073.056-.137.129-.215.171s-.102.097-.071.183c.067-.039.141-.069.2-.119l.436-.4z"/><path d="m9.322 7.929.003.003v-.004l-.002.002zm15.388-1.83c-.055-.084-.101-.052-.144-.022-.014.01.003.098.025.136.061.103.137.195.2.298.074.123.164.184.297.126-.002-.018.002-.04-.007-.051l-.37-.487zM25.088 6.638v.003-.001.001l.004-.004-.004.001zM7.091 11.154v-.001.001h.001z"/><path d="m6.928 11.274-.107.279-.122.313c-.026.086-.033.178-.049.277.066.02.099-.022.119-.103l.095-.341a1.97 1.97 0 0 1 .076-.21l.152-.335c-.109-.052-.131.047-.163.119zm.802-1.34c.049-.101.164-.183.108-.327-.045.043-.1.078-.134.13l-.219.381c-.059.107-.148.206-.091.349.022-.016.05-.026.063-.048l.272-.485zM7.841 9.604l.002-.005-.004.001.001.006.003-.002v-.001zm-.445.868-.001-.005-.002.002-.001.002.004.002z"/><path d="M7.299 10.735c.036-.086.063-.175.093-.264-.02-.006-.048-.02-.053-.014l-.178.273c-.05.091-.088.19-.13.283l.059.141c.014-.016.033-.029.042-.047l.166-.371zm7.612-5.282-.28.071c-.066-.062-.135-.033-.158.098l.342.001c.101.004.128-.044.097-.171zm-3.622.56c-.021-.042-.132-.03-.202-.042l-.011.059.174.071-.241.07.199.125c.118-.061.131-.181.081-.283zm1.735-.216-.463.102c-.01.003-.011.043-.016.068l.568-.097c-.027-.047-.06-.078-.089-.074zM12.543 5.968h-.003v.004h.003v-.004zm-.616.212a.43.43 0 0 0 .383-.114c-.142-.026-.279-.02-.383.114zM12.314 6.056l.002-.004-.006.001v.003h.003zm2.079-.473c-.001-.013-.018-.035-.029-.035l-.353-.002v.08l.361-.002c.008 0 .023-.028.022-.041zM10.318 6.98l-.019.152.027.032.139-.146-.147-.038zM12.539 5.972c-.058.001-.117-.005-.173.006-.02.004-.034.047-.05.075.058-.001.116.005.171-.007.021-.004.035-.046.052-.073zm3.709 12.859-.002.002.002.002v-.004z"/><path d="m16.365 19.19.444-.107c.083-.022.166-.047.246-.079l.33-.149c.132-.043.27-.064.403-.102.094-.027.186-.066.276-.102l.364-.145c.126-.04.257-.057.384-.092.09-.024.178-.058.266-.092l.391-.151c.122-.04.248-.059.369-.1l.483-.188-.017-.253-.335.111c-.13.037-.266.053-.392.103-.152.06-.289.167-.46.16a.053.053 0 0 0-.025.005l-.472.165-.335.101-.438.176-.02.102c-.058-.017-.107-.048-.151-.04a3.02 3.02 0 0 0-.406.103c-.122.04-.237.106-.36.147s-.27.04-.379.109c-.122.077-.198.056-.284-.038l-.015.205c-.008.106.037.167.133.149zm-3.142 5.249a.117.117 0 0 1-.059-.018c-.121-.107-.255-.05-.393-.064l.002.231c.003.032.018.085.038.092.099.036.2.071.303.086.113.016.229.009.345.016.03.002.065.011.088.031.084.072.267.068.335-.001l.134.056c.047.015.095.032.143.035s.098-.01.147-.017c.028-.003.071-.022.082-.009.094.118.184.078.266.012.166.101.334.03.504.052v-.305l-.905-.103-1.029-.094zm6.401-1.27h-.005v.004h.005v-.004zM16.757 24.36c-.037.009-.077.003-.114.01l-.326.074c-.107.025-.212.065-.319.073l-.652.019c-.092.003-.145.087-.104.153l.105.169.607.002c.136.007.227-.018.214-.197-.001-.014.014-.03.038-.08l.049.189h.125l.032-.236.136.201.601-.157v-.304c-.051.004-.094.003-.134.012l-.259.072zm2.937-.938.005.004.001-.006h-.004l-.002.002z"/><path d="M19.625 23.356c-.011-.059-.006-.123-.006-.184-.048.007-.102.002-.142.025l-.352.227c-.077.046-.163.073-.24.121-.138.086-.262.202-.427.223a.16.16 0 0 0-.059.021c-.069.045-.132.107-.205.137-.109.045-.225.07-.347.106l.105.234.011.04.63-.221-.041-.225c.068.029.115.056.137.098.049.093.079.069.101-.011.009-.033-.007-.073-.008-.111-.001-.021.006-.043.009-.064.019.004.044.002.055.013.04.043.076.091.108.131l.217-.157.384-.209c.052-.032.093-.086.14-.13-.026-.02-.064-.037-.069-.064zm7.643-5.773-.101.394-.095.556-.147.566-.016.054-.128.338c-.035.111-.056.228-.088.341a2.02 2.02 0 0 1-.084.25c-.038.089-.09.171-.13.259a1.38 1.38 0 0 0-.076.213c-.005.02.019.049.03.074l.041.086c.111-.014.104-.141.139-.209.079-.156.117-.337.172-.506l.086-.259.055-.198c.061-.007.07-.087.083-.183.018-.129.059-.254.096-.378l.128-.418c.038-.168.059-.342.088-.514.002-.009.001-.021.006-.027.112-.131.047-.289.071-.449l-.13.01zM26.47 20.718h.005l-.002-.005-.002.001-.001.004zM24.939 23.302l.066.121c.021.001.052.01.06-.001l.318-.46c.076-.119.138-.249.211-.371l.247-.402c.055-.093.1-.193.149-.291l.165-.338c.06-.135.098-.286.174-.409.082-.135.149-.266.141-.432h-.127a13.32 13.32 0 0 1-1.405 2.583zM8.184 26.475l-.397-.276-.457-.397c-.189-.137-.331-.334-.534-.457-.131-.08-.223-.239-.333-.364-.085-.096-.177-.159-.254-.123.017.049.025.13.065.172l.566.545.592.552c.143.125.297.237.452.345.135.094.25.229.415.268.034-.126-.022-.203-.116-.265zM8.3 26.74v.004l.002-.004H8.3zm14.137-6.529-.122.185-.146.198-.434.617-.189.273c-.027.011-.061.013-.081.032l-.377.393-.253.245-.264.245-.399.294-.422.318c-.051.041-.087.104-.129.157.091.022.129.102.09.19-.008.018-.01.04-.014.06.134.014.205-.122.314-.165.141-.055.164-.183.184-.323.019.036.018.076.035.103.012.02.055.036.072.027.048-.028.089-.068.138-.107l-.044-.086.121-.106c.055.148.079.03.131-.007.141-.103.28-.203.388-.352.061-.085.117-.192.249-.185.032.001.068-.083.101-.129.043-.058.075-.15.129-.169.117-.042.117-.124.109-.226l-.008-.154.137.169.209-.291-.026-.029.106-.013c.046-.079.071-.162.123-.203.083-.065.075-.113-.005-.191.146.024.23-.049.294-.164.024-.044.061-.08.082-.125.032-.071.093-.162.075-.218-.034-.101-.117-.183-.174-.266zm-11.588 7.874.002-.003h-.002v.003z"/><path d="M10.628 27.839c-.115-.04-.234-.068-.351-.102-.011-.003-.021-.012-.032-.019-.069-.047-.135-.101-.209-.138l-.406-.185-.438-.248c-.07-.041-.13-.103-.2-.143-.089-.05-.184-.087-.298-.14.012.097-.048.163.059.21.155.068.299.168.449.251l.471.257.177.098.268.145c.111.054.222.116.338.147.131.035.244.159.394.11v-.13c-.091-.047-.154-.089-.222-.113zm14.14-4.208c-.075.062-.127.096-.166.141s-.052.104-.088.144l-.421.464-.681.753c-.048.055-.072.134-.107.202l.044.047c.041-.023.089-.037.122-.069l.434-.444.637-.738c.104-.123.213-.245.295-.386.059-.103.206-.158.167-.322-.156-.021-.193.017-.236.206z"/><path d="M25.007 23.422h-.003v.003h.003v-.003zm-13.063.657-.215-.08-.092.328.219.079.148-.017c.01.152.119.116.201.13s.181.056.227-.126l.058.242.054-.079c.015-.017.034-.028.059-.049l.039.177.039-.004v-.38l-.473-.125c-.089-.026-.176-.063-.264-.095zM13.695 24.345l1.148.086c.104.009.174-.029.236-.133l-.093-.016c-.416-.04-.837.053-1.252-.082-.173-.056-.365.006-.547-.084-.117-.057-.263-.043-.401-.062v.09l.416.117c.163.036.329.068.495.083zm6.445 3.322a2.45 2.45 0 0 0 .327-.133l.395-.215c.12-.07.225-.159.364-.203s.254-.171.392-.269v-.154l-1.604.923c.042.037.089.062.127.05zM11.262 23.589l.271.098.464.235c.162.068.332.115.5.167.036.011.078-.002.117-.005l.013-.056-.227-.097-.315-.106c-.105-.041-.205-.1-.311-.141s-.21-.061-.312-.1c-.074-.028-.144-.069-.214-.109-.125-.07-.24-.177-.396-.125.051.042.098.09.154.121.083.048.171.084.258.119zM10.851 23.351l-.007.001zm9.321-.848zm-1.703 1.004h-.004v.004h.004v-.004zM19.196 23.173l.486-.279c.104-.066.196-.154.293-.232l.192-.156c-.062.011-.127.014-.184.039s-.113.077-.171.112l-.331.199-.587.391c-.128.077-.27.125-.403.191-.014.007-.015.043-.022.068.124-.034.254-.051.37-.105.126-.059.236-.157.358-.229zm-1.876 1.033c-.093.036-.098.151-.066.236.015.04.091.079.135.074.084-.009.165-.051.246-.081l.212-.087-.107-.253c-.136.035-.283.057-.42.111zm4.934 1.974c-.151.089-.285.21-.432.307-.129.087-.15.134-.1.306.05-.057.088-.114.138-.153s.115-.053.17-.085c.037-.021.07-.053.105-.079l.396-.291-.019-.056c-.087.015-.185.006-.258.049zM9.928 22.742zm-1.077-.928-.003.003h.002l.001-.003z"/><path d="m8.853 21.881.424.371c.165.142.343.269.488.432.057.063.104.044.155.057-.06-.082-.112-.176-.185-.241l-.578-.48c-.097-.076-.15-.239-.307-.203-.001.023-.007.055.003.064zm12.763-.806.281-.355.403-.548c.02-.029.003-.089.004-.134-.019 0-.047-.009-.057.002l-.157.206-.367.543c-.078.109-.167.21-.251.314l.023.047c.041-.024.091-.04.122-.076zm-.992.99-.005.002-.002.006.005-.003.002-.005zM21.057 21.721l.393-.446-.031-.055c-.036.023-.076.039-.105.069l-.603.62c-.038.041-.058.103-.087.157.051-.023.107-.036.148-.071a3.87 3.87 0 0 0 .285-.274zM9.928 22.743l-.004.004h.007l-.003-.004zm.919.604-.005-.002.002.006.002-.004zM10.382 23.099c.143.108.291.199.46.247-.03-.171-.183-.182-.286-.256l-.32-.207c-.095-.065-.182-.152-.305-.134.039.054.071.122.12.157.105.072.228.116.33.194zm7.069.892c.114-.03.218-.116.332-.136.095-.018.158-.045.203-.157-.044 0-.083-.011-.115.002l-.533.224c-.144.05-.297.068-.446.101-.013.003-.025.018-.047.032.021.018.035.039.045.037l.561-.103zM16.716 24.118c-.052-.007-.081-.018-.106-.012-.103.024-.207.084-.306.074-.186-.019-.342.086-.516.112-.003 0-.004.016-.006.025.124.061.792-.069.934-.199zm3.901-2.046c-.05.019-.104.031-.149.061-.079.055-.143.142-.227.179-.098.044-.099.103-.068.187l.374-.317c.03-.027.047-.073.069-.111zM20.171 22.502l.003.003-.002-.005-.002.001zm-8.332-1.786v-.258c-.051.007-.126.008-.128.019-.015.124-.096.053-.147.068-.061.018-.152-.037-.175.079l.287.034c.047-.12.097.014.164.059zM11.384 20.623l.003.003.002-.003-.004-.001zM8.3 26.744l.004-.003-.001-.001-.003.004z"/><path d="M8.477 26.702c-.045-.093-.072-.067-.113-.001-.012.02-.039.027-.061.04l.286.253.032-.027-.011-.217c-.057-.019-.119-.019-.133-.047zm14.529-1.115c.141.106.217.004.297-.085l-.111-.135-.186.22zm-.387-6.153.002.002.002.002zm-4.151 4.088a1.95 1.95 0 0 0-.287.079.1.1 0 0 0 .001.072c.048.037.269-.083.286-.151zm-7.582.059-.036.024.017.232.036.011c.031-.043.092-.093.086-.129-.009-.052-.066-.093-.103-.138zm9.583-5.962c-.006-.017-.029-.036-.042-.035s-.036.026-.037.042c-.005.063-.002.127-.002.204l.146-.014-.065-.197zM22.278 19.928c.168.04.206-.022.19-.147.024-.01.052-.014.072-.03.102-.079.083-.196.079-.308a.367.367 0 0 0-.152.328l-.188.157zM5.933 24.626l.079-.006-.01-.039-.069.045zM6.05 24.771l.021-.001v-.155l-.059.005.038.151zm19.5-14.156.084.322c.014.045.055.081.066.126l.087.405c.039.142.095.277.138.417l.091.359c.057-.04.104-.059.132-.096.082-.109.204-.215.226-.339.053-.302-.001-.598-.118-.888-.057-.141-.087-.299-.173-.425-.102-.152-.229-.283-.402-.325-.064-.015-.139.026-.218.044l.027.202c.015.068.043.132.061.198zm.323.028.034-.005.024.234-.058.006v-.236zM9.515 16.217l.037-.135c.002-.007.01-.013.023-.028l.077.074c.132-.066.115-.188.119-.303.005-.15-.085-.3-.21-.351-.165-.067-.269.011-.247.198a2.59 2.59 0 0 0 .089.42c.014.049.072.084.111.125z"/></svg>