<svg xmlns="http://www.w3.org/2000/svg" width="30" height="30" fill="none" xmlns:v="https://vecta.io/nano"><g clip-path="url(#A)"><path d="M11.25 20a6.27 6.27 0 0 0 7.5 0" stroke="#1c274c" stroke-width="5.147" stroke-linecap="round"/><g fill="#1c274c"><path d="M18.75 15c.69 0 1.25-.839 1.25-1.875s-.56-1.875-1.25-1.875-1.25.839-1.25 1.875S18.06 15 18.75 15zm-7.5 0c.69 0 1.25-.839 1.25-1.875s-.56-1.875-1.25-1.875-1.25.84-1.25 1.875S10.56 15 11.25 15z"/></g><path d="M27.5 15c0 5.892 0 8.839-1.831 10.669S20.893 27.5 15 27.5s-8.839 0-10.669-1.831S2.5 20.893 2.5 15s0-8.839 1.831-10.669S9.107 2.5 15 2.5s8.839 0 10.669 1.831c1.217 1.217 1.625 2.928 1.762 5.669" stroke="#1c274c" stroke-width="5.147" stroke-linecap="round"/></g><defs><clipPath id="A"><path fill="#fff" d="M0 0h30v30H0z"/></clipPath></defs></svg>