<svg xmlns="http://www.w3.org/2000/svg" width="30" height="30" fill="none" xmlns:v="https://vecta.io/nano"><g clip-path="url(#A)" fill="#000"><path d="M3.763 1.972c2.132-.326 4.138.927 4.839 2.884h2.58v2.221H8.786c-.305 1.838-1.74 3.361-3.683 3.658-2.419.37-4.681-1.292-5.052-3.711s1.292-4.682 3.712-5.052zm16.709 17.846a.73.73 0 0 1 .73-.731h3.163a.73.73 0 1 1 0 1.461h-3.163a.73.73 0 0 1-.73-.73zM6.973 13.944l6.371 6.005 2.225.551v-5.075H30V28.08H15.568v-3.484l-2.083-.336c-.993-.142-1.722-.392-2.598-.88l-2.713-1.42v6.119H.414v-12.21c0-3.997 4.507-4.008 6.558-1.925zm10.371 12.36h10.88V17.2h-10.88v3.739l2.134.528c.936.258 1.506 1.202 1.299 2.15l-.018.073c-.204.932-1.093 1.549-2.038 1.415l-1.377-.222v1.421z"/></g><defs><clipPath id="A"><path fill="#fff" transform="matrix(-1 0 0 1 30 0)" d="M0 0h30v30H0z"/></clipPath></defs></svg>