<svg xmlns="http://www.w3.org/2000/svg" width="31" height="31" fill="none" xmlns:v="https://vecta.io/nano"><g clip-path="url(#A)" fill="#000"><path d="M30.224 9.707l-5.203-5.133h-8.156v5.133h13.359zM14.052 4.574H5.86L.692 9.707h13.359V4.574zm2.812 6.679v5.203h-2.812v-5.203H.692v19.828h29.531V11.253H16.864zm3.996 10.102l1.945 1.945h-.844v3.316h-2.215V23.3h-.844l1.957-1.945zm7.348 7.711h-9.293v-1.512h9.293v1.512zm-.832-5.766v3.316h-2.215V23.3h-.844l1.945-1.945 1.945 1.945h-.832z"/></g><defs><clipPath id="A"><path fill="#fff" transform="translate(.224 .25)" d="M0 0h30v30H0z"/></clipPath></defs></svg>