<svg xmlns="http://www.w3.org/2000/svg" width="30" height="30" fill="#000" xmlns:v="https://vecta.io/nano"><path d="M18.227 1.083C18.17.458 17.884 0 17.548 0H2.076c-.446 0-.807.684-.807 1.527s.361 1.527.807 1.527h3.765c.446 0 .807.684.807 1.527s-.361 1.527-.807 1.527H.807C.361 6.109 0 6.793 0 7.636s.361 1.526.807 1.526h6.862c.394 0 .713.606.713 1.351s-.319 1.35-.713 1.35H4.023c-.446 0-.807.684-.807 1.527s.361 1.527.807 1.527H6.71c.394 0 .714.605.714 1.35s-.32 1.35-.714 1.35H3.001c-.446 0-.807.684-.807 1.527s.361 1.527.807 1.527h5.098l.322 3.443h1.847a7.64 7.64 0 0 0-.17 1.619c0 2.356 1.009 4.266 2.254 4.266s2.253-1.91 2.253-4.266a7.62 7.62 0 0 0-.171-1.619h5.862L18.227 1.083zm-4.906 24.651c0 1.014-.434 1.836-.97 1.836s-.97-.822-.97-1.836c0-.706.213-1.311.521-1.619h.898c.309.308.521.913.521 1.619zm16.656-4.294l-.926-8.644-3.38-9.844h-6.154l1.906 21.162h2.251a7.67 7.67 0 0 0-.17 1.619c0 2.356 1.009 4.266 2.253 4.266s2.254-1.91 2.254-4.266a7.65 7.65 0 0 0-.171-1.619h.981c.354 0 .689-.3.913-.819s.313-1.2.243-1.856zM23 6.891h1.542l2.002 5.828h-3.018L23 6.891zm3.727 18.843c0 1.014-.434 1.836-.97 1.836s-.97-.821-.97-1.836c0-.706.213-1.311.521-1.619h.898c.308.308.521.913.521 1.619z"/></svg>