<svg xmlns="http://www.w3.org/2000/svg" width="31" height="31" fill="none" xmlns:v="https://vecta.io/nano"><path fill-rule="evenodd" d="M24.382 1.803a1.21 1.21 0 0 1 1.189 1.188v12.081a4.04 4.04 0 0 1-.819-.213 5.73 5.73 0 0 1-1.154-.744c-.525-.511-1.201-.841-1.927-.94a1.93 1.93 0 0 0-.854.219v-3.352c.002-.056-.007-.112-.027-.164s-.051-.1-.091-.139-.087-.071-.139-.091-.108-.03-.164-.027h-.906c-.098.005-.19.046-.26.115a.41.41 0 0 0-.115.306v4.529a3.65 3.65 0 0 1-.525.294 4.25 4.25 0 0 1-.71.202v-5.025c-.012-.104-.062-.2-.14-.269s-.179-.108-.284-.108-.206.038-.284.108-.128.165-.14.269v5.192l-.808.15v-5.342c.004-.056-.004-.113-.024-.166s-.051-.101-.092-.14a.4.4 0 0 0-.306-.115h-1.731c-.098.005-.19.046-.26.115-.041.039-.073.087-.094.14a.39.39 0 0 0-.027.166v6.421a.43.43 0 0 0 .121.265.4.4 0 0 0 .306.115h.577a6.69 6.69 0 0 0-.15.808H7.68c-.098.003-.192.044-.26.115a.4.4 0 0 0-.115.306v.462c.005.098.046.19.115.26a.39.39 0 0 0 .312.115h6.583a1.93 1.93 0 0 1-.11.323 5.45 5.45 0 0 1-.738 1.154 3.46 3.46 0 0 0-.946 1.944c.097.733.429 1.415.946 1.944l.323.433h-3.594v1.229a1.23 1.23 0 0 1-1.188 1.194H7.645a1.22 1.22 0 0 1-1.188-1.194v-1.194H3.82a1.21 1.21 0 0 1-1.188-1.188V2.991A1.21 1.21 0 0 1 3.82 1.803h20.562zM9.503 9.62h-.046a.4.4 0 0 1 .305.116.4.4 0 0 1 .116.305v6.346a.42.42 0 0 1-.115.311.41.41 0 0 1-.312.115H7.732a.41.41 0 0 1-.312-.115c-.068-.072-.109-.166-.115-.265v-6.392a.41.41 0 0 1 .115-.306.4.4 0 0 1 .26-.115h1.8.023zm2.544 0h-.04c.056-.002.112.007.164.027s.1.051.139.091.07.087.091.139.03.108.027.164v6.346c.003.058-.006.115-.027.169s-.053.102-.094.143-.088.071-.141.091-.109.028-.165.025h-.871a.41.41 0 0 1-.311-.115c-.068-.072-.109-.166-.115-.265v-6.392a.41.41 0 0 1 .115-.306c.069-.069.162-.11.26-.115h.946.023zm8.469-2.123h-.046a.4.4 0 0 1 .306.115.38.38 0 0 1 .115.306v.427a.38.38 0 0 1-.115.306c-.039.041-.087.074-.139.095s-.11.03-.166.026H7.732c-.053.003-.106-.004-.156-.022s-.096-.045-.136-.08-.072-.078-.095-.126-.036-.1-.039-.153v-.473a.4.4 0 0 1 .1-.288.4.4 0 0 1 .124-.094c.047-.023.098-.036.151-.039h12.837zm2.671 8.394a2.7 2.7 0 0 0-1.517-.739 2.7 2.7 0 0 0-1.523.739c-.272.231-.572.424-.894.577a4.86 4.86 0 0 1-1.09.248 2.74 2.74 0 0 0-1.552.548 2.53 2.53 0 0 0-.577 1.558c-.033.368-.113.73-.237 1.079a4.08 4.08 0 0 1-.577.894 2.7 2.7 0 0 0-.739 1.523 2.7 2.7 0 0 0 .739 1.523c.23.272.424.572.577.894a4.86 4.86 0 0 1 .248 1.09 2.78 2.78 0 0 0 .542 1.552 2.55 2.55 0 0 0 1.564.577 4.47 4.47 0 0 1 1.079.236c.32.157.62.35.894.577a2.7 2.7 0 0 0 1.546.727 2.7 2.7 0 0 0 1.523-.738 4.55 4.55 0 0 1 .894-.577 4.86 4.86 0 0 1 1.09-.248 2.74 2.74 0 0 0 1.552-.542 2.54 2.54 0 0 0 .577-1.563 4.47 4.47 0 0 1 .237-1.079c.153-.322.346-.623.577-.894a2.7 2.7 0 0 0 .738-1.523 2.7 2.7 0 0 0-.738-1.523c-.23-.272-.424-.572-.577-.894a4.86 4.86 0 0 1-.248-1.09c-.019-.559-.208-1.098-.542-1.546-.442-.362-.992-.565-1.564-.577a4.47 4.47 0 0 1-1.079-.237 4.08 4.08 0 0 1-.917-.571h-.006zm.629 4.096c.033-.037.073-.067.119-.087s.094-.031.144-.031.098.01.144.031.086.05.119.087l.519.49a.4.4 0 0 1 0 .496l-3.3 3.663a.68.68 0 0 1-.519.231c-.098-.002-.196-.023-.286-.063s-.172-.097-.239-.168l-1.788-1.783a.33.33 0 0 1-.113-.248.33.33 0 0 1 .113-.248l.519-.49c.033-.037.073-.066.119-.087s.094-.031.144-.031.099.011.144.031a.35.35 0 0 1 .119.087l1.269 1.292 2.775-3.173z" fill="#000"/></svg>