<?xml version="1.0" encoding="utf-8"?>
<!-- Generator: Adobe Illustrator 21.0.2, SVG Export Plug-In . SVG Version: 6.00 Build 0)  -->
<svg version="1.1" id="Capa_1" xmlns="http://www.w3.org/2000/svg" xmlns:xlink="http://www.w3.org/1999/xlink" x="0px" y="0px"
	 viewBox="0 0 612.1 612.1" style="enable-background:new 0 0 612.1 612.1;" xml:space="preserve">
<g>
	<g id="magnifying_glass">
		<g>
			<path d="M68.3,398.4c85.1,85.2,219.5,90.7,311,16.6l196.2,196.6l36.6-35.5L415.2,378.9c73.1-91.6,67.4-225.6-17.4-310.4
				c-91-91.1-238.5-91.1-329.6,0C-22.7,159.4-22.7,307.3,68.3,398.4z M100.9,100.9c73.4-73.5,192.4-73.1,265.3,1
				c71.5,72.6,71.5,190.3,0,262.9c-72.9,74.1-192.1,74.3-265.3,1C27.9,292.6,27.9,174.1,100.9,100.9z"/>
		</g>
	</g>
</g>
</svg>
