<svg xmlns="http://www.w3.org/2000/svg" width="30" height="30" fill="none" xmlns:v="https://vecta.io/nano"><path d="M15.677 20.496c-.428-.405-.926-.716-1.471-.91l-1.142-4.447 13.599-3.804 1.457 5.677-12.443 3.484zM11.348 8.455l9.067-2.536 1.458 5.679-9.066 2.536-1.459-5.679zm.407 11.046c-.253.071-.488.172-.717.284L7.04 4.208H5.536c-.151.329-.467.561-.84.561H2.819c-.518 0-.938-.44-.938-.981s.42-.98.938-.98h1.877c.315 0 .579.172.75.419h2.887v.048l.043-.013 4.134 16.109a4.34 4.34 0 0 0-.757.129zm.243.947c1.752-.49 3.553.595 4.023 2.426s-.57 3.71-2.323 4.2-3.553-.597-4.023-2.426.571-3.71 2.323-4.2zm-.494 3.753c.201.784.973 1.249 1.724 1.038s1.196-1.016.996-1.8-.973-1.249-1.724-1.04-1.197 1.017-.996 1.802zm16.5-3.856L17.05 23.408a4.54 4.54 0 0 0-.124-.789 4.48 4.48 0 0 0-.271-.749l10.897-3.047.452 1.521z" fill="#000"/></svg>