<svg xmlns="http://www.w3.org/2000/svg" width="30" height="30" fill="#000" xmlns:v="https://vecta.io/nano"><path d="M24.847 20.536c-2.846 0-5.153 2.119-5.153 4.732S22.001 30 24.847 30 30 27.881 30 25.268s-2.307-4.732-5.153-4.732zm3.348 7.024l-.806.74a.18.18 0 0 1-.24 0l-1.588-1.458-.06.055a.18.18 0 0 1-.24 0l-.385-.354c-.066-.061-.066-.16 0-.221l.395-.362-.351-.323-.884.812c.164.43.06.928-.314 1.271-.253.232-.589.359-.947.358-.031 0-.06-.012-.08-.031a.12.12 0 0 1-.025-.034c-.018-.039-.008-.084.025-.114l.371-.341-.222-.76-.828-.204-.371.341c-.033.03-.082.039-.124.023s-.07-.054-.071-.096c-.002-.328.137-.637.389-.869a1.42 1.42 0 0 1 1.384-.288l.884-.812-1.166-1.071-.826-.488-.369-.597.39-.358.65.338.532.759 1.166 1.071.791-.726c-.164-.43-.06-.928.314-1.271.253-.232.589-.359.946-.358.046 0 .087.026.105.065s.008.084-.025.114l-.371.341.222.76.828.204.371-.341c.032-.03.082-.039.124-.023s.07.054.071.096c.002.329-.137.637-.389.869a1.42 1.42 0 0 1-1.384.288l-.791.726.351.323.395-.363c.066-.061.174-.061.241 0l.385.353c.066.061.066.16 0 .221l-.06.055 1.588 1.458c.067.061.067.16 0 .221zm-6.051-7.643l-3.168-1.16-1.537-1.189a1.09 1.09 0 0 0-1.382.052l-2.137 1.951-2.143-1.952c-.377-.343-.976-.365-1.381-.051l-1.537 1.189-6.564 2.404C.18 21.934.181 28.808 0 29.439h20.195c-1.192-1.055-1.936-2.534-1.936-4.171 0-2.406 1.605-4.475 3.884-5.35zM6.401 11.373l1.233-.003c.761 3.654 3.464 5.732 6.284 5.732s4.459-1.231 5.545-3.5c-.83.598-2.035 1.144-3.722 1.257-.155.212-.418.352-.717.352h-.788c-.477 0-.863-.355-.863-.793s.386-.793.863-.793h.788a.89.89 0 0 1 .685.311c2.712-.2 3.987-1.71 4.495-2.563h1.231c.754 0 1.364-.561 1.364-1.253V7.28c0-.444-.252-.832-.63-1.055C21.713 2.729 18.187 0 13.918 0S6.123 2.729 5.667 6.225c-.379.223-.63.612-.63 1.055v2.84c0 .692.611 1.253 1.364 1.253zm7.517-9.953c3.36 0 6.154 2.035 6.669 4.689a1.39 1.39 0 0 0-.432.243c-.805-2.333-3.129-3.72-6.237-3.72S8.484 4.018 7.678 6.35c-.125-.103-.27-.186-.43-.241.515-2.655 3.309-4.689 6.669-4.689z"/></svg>