<svg width="45" height="45" viewBox="0 0 45 45" fill="none" xmlns="http://www.w3.org/2000/svg">
<g clip-path="url(#clip0_166_10)">
<path d="M22.9957 20.8321C26.2751 20.8321 28.9196 18.2411 28.9196 15.0286C28.9196 11.8161 26.296 9.2251 22.9957 9.2251C19.7163 9.2251 17.0718 11.8161 17.0718 15.0286C17.0927 18.2621 19.7375 20.8321 22.9957 20.8321ZM9.24366 37.6418H-1.39828C-4.84676 37.6418 -5.03723 32.4808 -1.33479 32.4808H7.88945L13.1787 24.8532C14.7443 22.7598 16.5216 21.7649 19.0391 21.7649H26.9307C29.4484 21.7649 31.2255 22.6769 32.7911 24.8532L38.1015 32.4808H47.3894C51.113 32.4808 50.8802 37.6418 47.5164 37.6418H36.8745C36.0282 37.6418 35.0126 37.3515 34.4202 36.4604L30.358 30.7813L30.3369 45H15.7811L15.7599 30.7813L11.6977 36.4604C11.1054 37.3308 10.09 37.6418 9.24366 37.6418Z" fill="black"/>
<path d="M39.5432 24.0893C42.3526 24.0893 44.6484 21.8086 44.6484 18.9841C44.6484 16.1597 42.3677 13.8789 39.5432 13.8789C36.7188 13.8789 34.4531 16.1748 34.4531 18.9992C34.4531 21.8086 36.7339 24.0893 39.5432 24.0893ZM39.2613 19.4171C38.3249 19.0898 37.7408 18.6166 37.7408 17.7758C37.7408 17.0004 38.2542 16.3912 39.1959 16.1999V15.3592H39.9008V16.1597C40.4847 16.1597 40.9076 16.2804 41.2198 16.4467L40.9328 17.4536C40.7011 17.358 40.3235 17.1968 39.805 17.1968C39.2864 17.1968 39.0045 17.4536 39.0045 17.7102C39.0045 18.0627 39.3318 18.1986 40.0366 18.4856C40.9983 18.838 41.4464 19.3264 41.4464 20.1269C41.4464 20.9274 40.9581 21.5366 39.9259 21.7681V22.5687H39.221V21.7933C38.6118 21.7933 37.9976 21.6321 37.7005 21.466L37.9573 20.4338C38.2846 20.595 38.7981 20.7862 39.342 20.7862C39.9259 20.7862 40.2129 20.5294 40.2129 20.177C40.2129 19.8245 39.9359 19.679 39.2613 19.4171Z" fill="black"/>
<path d="M7.37954 16.438L5.28335 19.334L3.94284 17.8776C3.79396 17.7122 3.79941 17.4639 3.95937 17.3039C4.12478 17.155 4.37316 17.1605 4.53312 17.3204L5.21163 18.0541L6.72317 15.969C6.85554 15.7925 7.10374 15.7428 7.2913 15.8753C7.46796 16.0022 7.51208 16.2615 7.37954 16.438ZM10.568 18.479C10.8438 18.7437 10.7169 19.2071 10.3529 19.2953L9.08409 19.6209L9.44269 20.8786C9.542 21.2426 9.19993 21.5791 8.84134 21.4799L7.60577 21.127L9.37097 24.6408L7.8981 24.2216L7.48993 25.5841L5.53718 21.6895L3.58443 25.5839L3.17626 24.2214L1.70339 24.6407L3.46859 21.1268L2.23302 21.4798C1.86898 21.5791 1.53253 21.237 1.63167 20.8784L1.99026 19.6207L0.721476 19.2955C0.357433 19.2073 0.230519 18.7439 0.506319 18.4792L1.43304 17.569L0.500694 16.6588C0.224893 16.3941 0.351808 15.9307 0.715851 15.8425L1.98464 15.5169L1.62605 14.2592C1.52673 13.8951 1.8688 13.5587 2.22739 13.6578L3.48511 14.0164L3.81066 12.7476C3.8989 12.3836 4.37333 12.2621 4.62698 12.5325L5.53718 13.4703L6.44737 12.5325C6.70665 12.2567 7.17546 12.3891 7.2637 12.7476L7.58925 14.0164L8.84696 13.6578C9.21101 13.5585 9.54745 13.9006 9.44831 14.2592L9.08972 15.5169L10.3585 15.8425C10.7225 15.9307 10.8495 16.3941 10.5737 16.6588L9.64132 17.569L10.568 18.479ZM8.69808 17.5688C8.69808 15.8808 7.32452 14.5183 5.64757 14.5183C3.95954 14.5183 2.59706 15.8864 2.59706 17.5742C2.59706 19.2621 3.95954 20.6248 5.64757 20.6248C7.3356 20.6248 8.69808 19.2568 8.69808 17.5688Z" fill="black"/>
</g>
<defs>
<clipPath id="clip0_166_10">
<rect width="45" height="45" fill="white"/>
</clipPath>
</defs>
</svg>
