<svg width="45" height="45" viewBox="0 0 45 45" fill="none" xmlns="http://www.w3.org/2000/svg">
<g clip-path="url(#clip0_166_22)">
<path d="M5.64469 2.95764C8.84259 2.46844 11.8523 4.34842 12.9034 7.28432H16.7739V10.6153H13.179C12.7209 13.3726 10.5692 15.6563 7.65466 16.1028C4.02671 16.6579 0.633782 14.1655 0.0765551 10.5357C-0.477595 6.90586 2.01481 3.51276 5.64469 2.95764Z" fill="black"/>
<path d="M30.7075 29.7267C30.7075 29.122 31.1977 28.6309 31.8034 28.6309H36.5483C37.154 28.6309 37.644 29.122 37.644 29.7267C37.644 30.3303 37.154 30.8224 36.5483 30.8224H31.8033C31.1977 30.8224 30.7075 30.3304 30.7075 29.7267Z" fill="black"/>
<path d="M10.4591 20.915L20.0151 29.9226L23.3519 30.7486V23.1356H45V42.1196H23.3519V36.8942L20.2277 36.3904C18.7379 36.1779 17.644 35.8022 16.331 35.0705L12.2614 32.941V42.1196H0.621654V23.8033C0.621654 17.8083 7.38141 17.7918 10.4591 20.915ZM26.016 39.4553H42.3358V25.7998H26.016V31.4076L29.2169 32.1995C30.6203 32.5858 31.4764 34.0028 31.1658 35.4247L31.1396 35.5343C30.8339 36.9329 29.5003 37.8578 28.0823 37.656L26.016 37.3231V39.4553Z" fill="black"/>
</g>
<defs>
<clipPath id="clip0_166_22">
<rect width="45" height="45" fill="white" transform="matrix(-1 0 0 1 45 0)"/>
</clipPath>
</defs>
</svg>
