<svg width="45" height="45" viewBox="0 0 45 45" fill="none" xmlns="http://www.w3.org/2000/svg">
<path d="M23.5157 30.7446C22.8744 30.1371 22.1263 29.6702 21.3093 29.3791L19.5964 22.7093L39.9955 17.0027L42.1808 25.519L23.5157 30.7446ZM17.0216 12.6827L30.6214 8.87883L32.8082 17.3979L19.2097 21.2018L17.0216 12.6827ZM17.6319 29.2512C17.2522 29.358 16.8993 29.5099 16.5561 29.6773L10.5599 6.31242H8.30426C8.07785 6.80602 7.60395 7.15336 7.04426 7.15336H4.22895C3.45129 7.15336 2.82129 6.49383 2.82129 5.68242C2.82129 4.87102 3.45129 4.21289 4.22895 4.21289H7.04426C7.51676 4.21289 7.91332 4.47164 8.16926 4.84148H12.5005V4.9132L12.5652 4.89352L18.7668 29.0571C18.3885 29.0923 18.0102 29.1471 17.6319 29.2512ZM17.9961 30.6715C20.6244 29.936 23.3258 31.5645 24.0304 34.3109C24.7349 37.0545 23.1754 39.8754 20.5457 40.6109C17.9174 41.3435 15.216 39.7151 14.5114 36.9715C13.8069 34.2279 15.3679 31.407 17.9961 30.6715ZM17.255 36.3007C17.556 37.4763 18.7147 38.1738 19.8411 37.8574C20.9675 37.541 21.6355 36.333 21.3346 35.1574C21.0336 33.9818 19.8749 33.2843 18.7485 33.5979C17.6207 33.9143 16.9527 35.1237 17.255 36.3007ZM42.005 30.5168L25.5744 35.1124C25.5449 34.7201 25.49 34.3235 25.3888 33.9284C25.2889 33.5332 25.1441 33.162 24.9824 32.8048L41.3272 28.2345L42.005 30.5168Z" fill="black"/>
</svg>
