<svg width="45" height="45" viewBox="0 0 45 45" fill="none" xmlns="http://www.w3.org/2000/svg">
<path d="M16.875 30C18.4695 31.1818 20.4086 31.875 22.5 31.875C24.5914 31.875 26.5305 31.1818 28.125 30" stroke="#1C274C" stroke-width="5.14695" stroke-linecap="round"/>
<path d="M28.125 22.5C29.1605 22.5 30 21.2408 30 19.6875C30 18.1342 29.1605 16.875 28.125 16.875C27.0895 16.875 26.25 18.1342 26.25 19.6875C26.25 21.2408 27.0895 22.5 28.125 22.5Z" fill="#1C274C"/>
<path d="M16.875 22.5C17.9105 22.5 18.75 21.2408 18.75 19.6875C18.75 18.1342 17.9105 16.875 16.875 16.875C15.8395 16.875 15 18.1342 15 19.6875C15 21.2408 15.8395 22.5 16.875 22.5Z" fill="#1C274C"/>
<path d="M41.25 22.4995C41.25 31.3383 41.25 35.7578 38.5041 38.5036C35.7583 41.2495 31.3387 41.2495 22.5 41.2495C13.6612 41.2495 9.24174 41.2495 6.49588 38.5036C3.75 35.7578 3.75 31.3383 3.75 22.4995C3.75 13.6607 3.75 9.24125 6.49588 6.49539C9.24174 3.74951 13.6612 3.74951 22.5 3.74951C31.3387 3.74951 35.7583 3.74951 38.5041 6.49539C40.3299 8.32115 40.9417 10.8868 41.1467 14.9995" stroke="#1C274C" stroke-width="5.14695" stroke-linecap="round"/>
</svg>
