<svg width="45" height="45" viewBox="0 0 45 45" fill="none" xmlns="http://www.w3.org/2000/svg">
<path d="M37.2703 30.8037C33.0015 30.8037 29.541 33.9816 29.541 37.9017C29.541 41.8222 33.0015 45 37.2703 45C41.5394 45 44.9999 41.8222 44.9999 37.9017C44.9997 33.9816 41.5391 30.8037 37.2703 30.8037ZM42.2919 41.3391L41.0829 42.4493C40.9837 42.5407 40.8217 42.5407 40.7224 42.4493L38.341 40.2623L38.2506 40.3451C38.1511 40.4364 37.9897 40.4364 37.8902 40.3451L37.3127 39.8147C37.2134 39.7235 37.2134 39.575 37.3127 39.4836L37.9047 38.94L37.3777 38.456L36.0522 39.6736C36.2984 40.3181 36.1416 41.0649 35.5814 41.5793C35.202 41.9276 34.6981 42.1181 34.1617 42.1161C34.1158 42.1158 34.0723 42.0988 34.0414 42.0698C34.0258 42.0552 34.0129 42.0381 34.0042 42.0187C33.9778 41.96 33.9925 41.8922 34.0414 41.8476L34.5981 41.3361L34.2656 40.1957L33.0239 39.8903L32.4668 40.4017C32.4179 40.4467 32.3442 40.4602 32.2807 40.4357C32.2168 40.4115 32.1749 40.3543 32.1747 40.2912C32.1722 39.7987 32.3801 39.3356 32.7589 38.9876C33.3193 38.4732 34.1324 38.329 34.8344 38.5554L36.16 37.3378L34.4103 35.7312L33.171 34.9987L32.6182 34.1028L33.2029 33.5661L34.1782 34.0738L34.976 35.2118L36.7256 36.8184L37.912 35.7289C37.6657 35.0843 37.8225 34.3375 38.3829 33.823C38.7622 33.4748 39.266 33.2842 39.8024 33.2863C39.8716 33.2867 39.9337 33.3248 39.96 33.3836C39.9863 33.4426 39.9716 33.5102 39.9227 33.5548L39.3658 34.0661L39.6986 35.2067L40.9404 35.5121L41.4975 35.0008C41.5462 34.9557 41.6199 34.9422 41.6835 34.9666C41.7475 34.9909 41.7891 35.0479 41.7896 35.1111C41.792 35.6037 41.5841 36.0667 41.2055 36.4148C40.645 36.9292 39.8319 37.0735 39.1298 36.8472L37.9434 37.9367L38.4701 38.4207L39.0621 37.8771C39.1617 37.7856 39.3233 37.7856 39.4229 37.8771L40.0001 38.4072C40.0998 38.4987 40.0998 38.6472 40.0001 38.7386L39.9101 38.8212L42.2915 41.0081C42.3916 41.0993 42.3916 41.2476 42.2919 41.3391Z" fill="black"/>
<path d="M33.216 29.8764L28.4633 28.1362L26.1574 26.3524C25.5485 25.8797 24.6491 25.9147 24.0844 26.4302L20.8787 29.3572L17.664 26.429C17.0988 25.9143 16.2006 25.881 15.5921 26.3521L13.2865 28.1359L3.4401 31.7417C0.269548 32.9012 0.2721 43.2122 0 44.1587H30.2932C28.5054 42.5762 27.3898 40.3571 27.3898 37.9017C27.3896 34.2921 29.7979 31.1898 33.216 29.8764Z" fill="black"/>
<path d="M9.60209 17.0597L11.4512 17.0555C12.5934 22.5358 16.6468 25.6539 20.8773 25.6539C25.1078 25.6539 27.5657 23.8071 29.1956 20.4037C27.9512 21.3 26.1424 22.12 23.6127 22.2893C23.3802 22.6073 22.9852 22.8167 22.5367 22.8167H21.355C20.6396 22.8167 20.0599 22.2842 20.0599 21.6272C20.0599 20.9703 20.6396 20.4378 21.355 20.4378H22.5367C22.9557 20.4378 23.327 20.6214 23.5637 20.9047C27.6311 20.6049 29.5438 18.3396 30.3065 17.0606L32.1525 17.06C33.2829 17.06 34.1992 16.2182 34.1992 15.1805V10.9205C34.1992 10.2552 33.8217 9.67183 33.2536 9.33781C32.5699 4.09364 27.2807 0 20.8773 0C14.4739 0 9.18478 4.09364 8.50117 9.3376C7.93308 9.67172 7.55566 10.255 7.55566 10.9202V15.1803C7.55543 16.2179 8.47159 17.0597 9.60209 17.0597ZM20.8772 2.13011C25.917 2.13011 30.1086 5.18229 30.8813 9.1642C30.6398 9.24845 30.4207 9.37285 30.2329 9.52942C29.026 6.03001 25.5389 3.94985 20.8772 3.94985C16.2154 3.94985 12.7264 6.02884 11.5178 9.52644C11.331 9.37136 11.113 9.24781 10.8731 9.1642C11.6459 5.18229 15.8373 2.13011 20.8772 2.13011Z" fill="black"/>
</svg>
