<svg width="46" height="46" viewBox="0 0 46 46" fill="none" xmlns="http://www.w3.org/2000/svg">
<path fill-rule="evenodd" clip-rule="evenodd" d="M36.1221 2.37988C36.5921 2.38875 37.0404 2.57942 37.3728 2.91184C37.7052 3.24425 37.8959 3.69255 37.9048 4.16258V22.2837C37.4851 22.2203 37.0732 22.113 36.6759 21.9635C36.0563 21.6622 35.4752 21.2873 34.9451 20.8472C34.1574 20.0799 33.1443 19.5855 32.0548 19.4366C31.6082 19.4461 31.1699 19.5586 30.774 19.7655V14.7376C30.7777 14.6536 30.7639 14.5698 30.7334 14.4915C30.703 14.4132 30.6566 14.3421 30.5971 14.2827C30.5377 14.2233 30.4666 14.1769 30.3883 14.1464C30.31 14.116 30.2262 14.1022 30.1423 14.1058H28.7836C28.6369 14.1137 28.4983 14.1753 28.3942 14.2789C28.3354 14.3394 28.2897 14.4113 28.2599 14.4902C28.2301 14.5691 28.2169 14.6533 28.2211 14.7376V21.5308C27.9712 21.6993 27.7078 21.8469 27.4336 21.9722C27.0883 22.1038 26.7321 22.2052 26.3692 22.2751V14.7376C26.351 14.5817 26.2761 14.4379 26.1589 14.3335C26.0416 14.2292 25.8901 14.1715 25.7331 14.1715C25.5762 14.1715 25.4247 14.2292 25.3074 14.3335C25.1901 14.4379 25.1153 14.5817 25.0971 14.7376V22.526C24.6817 22.5866 24.275 22.6558 23.8855 22.751V14.7376C23.8919 14.6531 23.8798 14.5683 23.8498 14.4891C23.8199 14.4098 23.7731 14.3381 23.7125 14.2789C23.6526 14.2193 23.5808 14.173 23.5017 14.1431C23.4226 14.1133 23.3381 14.1006 23.2538 14.1058H20.6576C20.511 14.1137 20.3723 14.1753 20.2682 14.2789C20.2065 14.3377 20.1583 14.4091 20.127 14.4883C20.0956 14.5675 20.0818 14.6525 20.0865 14.7376V24.3693C20.0992 24.519 20.1634 24.6597 20.2682 24.7674C20.3281 24.827 20.3999 24.8733 20.479 24.9032C20.558 24.933 20.6425 24.9457 20.7269 24.9405H21.5923C21.4925 25.3393 21.4174 25.7439 21.3673 26.152H11.0692C10.9217 26.1564 10.7818 26.2185 10.6798 26.3251C10.6201 26.3849 10.5738 26.4568 10.544 26.5358C10.5141 26.6149 10.5014 26.6994 10.5067 26.7837V27.476C10.5145 27.6227 10.5761 27.7614 10.6798 27.8655C10.7402 27.9267 10.8134 27.974 10.8942 28.0039C10.9749 28.0338 11.0613 28.0456 11.1471 28.0385H21.0211C20.9807 28.2046 20.9257 28.3668 20.8567 28.5232C20.5618 29.1444 20.1896 29.7259 19.749 30.2539C18.9767 31.0496 18.4793 32.0715 18.3298 33.1703C18.4757 34.2701 18.9736 35.2931 19.749 36.0866L20.2336 36.7357H14.8423V38.5789C14.8293 39.0484 14.6376 39.4953 14.3062 39.8282C13.9749 40.1611 13.529 40.355 13.0596 40.3703H11.0173C10.5465 40.3592 10.0981 40.1666 9.76594 39.8328C9.43375 39.499 9.24337 39.0498 9.23457 38.5789V36.7876H5.27976C4.80974 36.7787 4.36144 36.588 4.02902 36.2556C3.69661 35.9232 3.50594 35.4749 3.49707 35.0049V4.16258C3.50594 3.69255 3.69661 3.24425 4.02902 2.91184C4.36144 2.57942 4.80974 2.38875 5.27976 2.37988H36.1221ZM13.8038 14.1058H13.7346C13.8188 14.1008 13.9032 14.1137 13.9822 14.1436C14.0611 14.1736 14.1328 14.22 14.1925 14.2797C14.2522 14.3394 14.2985 14.411 14.3285 14.49C14.3585 14.5689 14.3713 14.6533 14.3663 14.7376V24.2568C14.3706 24.3424 14.3575 24.4279 14.3278 24.5082C14.298 24.5886 14.2523 24.662 14.1932 24.7241C14.1317 24.784 14.0584 24.8303 13.9779 24.8602C13.8974 24.89 13.8116 24.9026 13.7259 24.8972H11.1471C11.0614 24.9026 10.9756 24.89 10.8951 24.8602C10.8146 24.8303 10.7412 24.784 10.6798 24.7241C10.5775 24.6156 10.5163 24.4748 10.5067 24.326V14.7376C10.5025 14.6533 10.5157 14.5691 10.5455 14.4902C10.5753 14.4113 10.621 14.3394 10.6798 14.2789C10.7839 14.1753 10.9225 14.1137 11.0692 14.1058H13.7692H13.8038ZM17.6201 14.1058H17.5596C17.6435 14.1022 17.7273 14.116 17.8056 14.1464C17.8839 14.1769 17.955 14.2233 18.0145 14.2827C18.0739 14.3421 18.1203 14.4132 18.1507 14.4915C18.1812 14.5698 18.195 14.6536 18.1913 14.7376V24.2568C18.1961 24.3432 18.1824 24.4295 18.1511 24.5101C18.1197 24.5907 18.0715 24.6637 18.0096 24.7241C17.9497 24.7838 17.8779 24.8301 17.7988 24.8599C17.7198 24.8897 17.6353 24.9024 17.5509 24.8972H16.2442C16.1585 24.9026 16.0727 24.89 15.9922 24.8602C15.9117 24.8303 15.8384 24.784 15.7769 24.7241C15.6746 24.6156 15.6134 24.4748 15.6038 24.326V14.7376C15.5996 14.6533 15.6128 14.5691 15.6426 14.4902C15.6724 14.4113 15.7181 14.3394 15.7769 14.2789C15.881 14.1753 16.0196 14.1137 16.1663 14.1058H17.5855H17.6201ZM30.324 10.9212H30.2548C30.3391 10.916 30.4236 10.9287 30.5027 10.9585C30.5817 10.9884 30.6536 11.0346 30.7134 11.0943C30.7745 11.1531 30.8217 11.2248 30.8517 11.3041C30.8816 11.3835 30.8935 11.4685 30.8865 11.553V12.1933C30.8935 12.2778 30.8816 12.3629 30.8517 12.4422C30.8217 12.5215 30.7745 12.5932 30.7134 12.652C30.655 12.7142 30.5837 12.7627 30.5044 12.7941C30.4251 12.8255 30.3399 12.839 30.2548 12.8337H11.1471C11.0675 12.8384 10.9878 12.8273 10.9125 12.8011C10.8372 12.7749 10.7678 12.7341 10.7083 12.6811C10.6488 12.628 10.6004 12.5637 10.5658 12.4919C10.5312 12.4201 10.5111 12.3422 10.5067 12.2626V11.553C10.502 11.4745 10.5129 11.3959 10.5386 11.3217C10.5644 11.2474 10.6045 11.179 10.6568 11.1203C10.709 11.0616 10.7724 11.0138 10.8431 10.9797C10.9139 10.9455 10.9907 10.9256 11.0692 10.9212H30.324ZM34.3307 23.5126C33.7099 22.9097 32.9123 22.5215 32.0548 22.4049C31.1942 22.5197 30.3933 22.908 29.7701 23.5126C29.3627 23.8583 28.9117 24.1492 28.4288 24.378C27.8997 24.5645 27.3509 24.6893 26.7932 24.7501C25.9514 24.7791 25.1387 25.0661 24.4653 25.5722C23.9224 26.2316 23.6175 27.0547 23.6 27.9087C23.55 28.4609 23.4308 29.0046 23.2451 29.527C23.0164 30.0099 22.7255 30.4609 22.3798 30.8683C21.7752 31.4915 21.3869 32.2924 21.2721 33.153C21.3869 34.0135 21.7752 34.8145 22.3798 35.4376C22.7255 35.845 23.0164 36.296 23.2451 36.7789C23.4317 37.308 23.5565 37.8568 23.6173 38.4145C23.6476 39.2547 23.9312 40.0661 24.4307 40.7424C25.0935 41.2854 25.9193 41.5901 26.7759 41.6078C27.3279 41.6587 27.8715 41.7779 28.3942 41.9626C28.8736 42.1976 29.3238 42.488 29.7355 42.828C30.3702 43.4329 31.184 43.8155 32.0548 43.9183C32.9153 43.8035 33.7163 43.4152 34.3394 42.8107C34.7511 42.4707 35.2013 42.1803 35.6807 41.9453C36.2098 41.7588 36.7586 41.6339 37.3163 41.5732C38.1572 41.5466 38.9698 41.2627 39.6442 40.7597C40.1883 40.0976 40.4932 39.2713 40.5096 38.4145C40.5605 37.8625 40.6797 37.3189 40.8644 36.7962C41.0931 36.3133 41.384 35.8623 41.7298 35.4549C42.3343 34.8318 42.7226 34.0309 42.8375 33.1703C42.7226 32.3097 42.3343 31.5088 41.7298 30.8857C41.384 30.4782 41.0931 30.0272 40.8644 29.5443C40.6779 29.0152 40.553 28.4664 40.4923 27.9087C40.4634 27.0709 40.1796 26.2618 39.6788 25.5895C39.0157 25.0471 38.1901 24.7424 37.3336 24.7241C36.7816 24.6732 36.238 24.554 35.7153 24.3693C35.2208 24.1459 34.7581 23.8578 34.3394 23.5126H34.3307ZM35.274 29.6568C35.3235 29.6014 35.3842 29.557 35.452 29.5266C35.5199 29.4962 35.5934 29.4805 35.6677 29.4805C35.7421 29.4805 35.8156 29.4962 35.8834 29.5266C35.9513 29.557 36.012 29.6014 36.0615 29.6568L36.8403 30.3924C36.9246 30.4981 36.9705 30.6293 36.9705 30.7645C36.9705 30.8997 36.9246 31.0309 36.8403 31.1366L31.8903 36.6318C31.7931 36.7422 31.6732 36.8303 31.5388 36.89C31.4043 36.9498 31.2586 36.9798 31.1115 36.978C30.9639 36.9752 30.8182 36.9432 30.6831 36.8838C30.5479 36.8244 30.4258 36.7387 30.324 36.6318L27.6413 33.9578C27.5881 33.9115 27.5454 33.8543 27.5162 33.7901C27.487 33.7259 27.4718 33.6562 27.4718 33.5857C27.4718 33.5151 27.487 33.4454 27.5162 33.3812C27.5454 33.317 27.5881 33.2598 27.6413 33.2135L28.4201 32.478C28.4697 32.4225 28.5303 32.3781 28.5982 32.3478C28.666 32.3174 28.7396 32.3017 28.8139 32.3017C28.8882 32.3017 28.9617 32.3174 29.0296 32.3478C29.0975 32.3781 29.1581 32.4225 29.2076 32.478L31.1115 34.4164L35.274 29.6568Z" fill="black"/>
</svg>
