<svg width="45" height="45" viewBox="0 0 45 45" fill="none" xmlns="http://www.w3.org/2000/svg">
<path d="M27.3401 1.62495C27.2555 0.686544 26.8259 0 26.3225 0H3.11397C2.44513 0 1.90354 1.02624 1.90354 2.28987C1.90354 3.55582 2.44513 4.5809 3.11397 4.5809H8.76211C9.43096 4.5809 9.97254 5.60731 9.97254 6.8721C9.97254 8.13689 9.43096 9.16313 8.76211 9.16313H1.21043C0.542199 9.16313 0 10.1894 0 11.4542C0 12.719 0.542199 13.7439 1.21043 13.7439H11.5037C12.0943 13.7439 12.5735 14.6522 12.5735 15.7701C12.5735 16.888 12.0943 17.7949 11.5037 17.7949H6.03503C5.36618 17.7949 4.8246 18.8213 4.8246 20.0861C4.8246 21.3507 5.36618 22.3771 6.03503 22.3771H10.0654C10.6566 22.3771 11.1359 23.2841 11.1359 24.402C11.1359 25.5197 10.6566 26.4269 10.0654 26.4269H4.50133C3.83248 26.4269 3.2909 27.4531 3.2909 28.7179C3.2909 29.9827 3.83248 31.0089 4.50133 31.0089H12.1491L12.6314 36.1729H15.4017C15.2388 36.9222 15.1459 37.7401 15.1459 38.6014C15.1459 42.1355 16.6592 45 18.5265 45C20.3931 45 21.9065 42.1355 21.9065 38.6014C21.9065 37.7401 21.8136 36.9222 21.6506 36.1729H30.4432L27.3401 1.62495ZM19.9813 38.6012C19.9813 40.1227 19.3303 41.3548 18.5264 41.3548C17.7221 41.3548 17.071 40.1227 17.071 38.6012C17.071 37.5425 17.3897 36.6342 17.8525 36.1727H19.1998C19.6624 36.6342 19.9813 37.5423 19.9813 38.6012Z" fill="black"/>
<path d="M44.965 32.1605L43.5765 19.1946L38.5061 4.4292H29.2744L32.1339 36.1728H35.5106C35.3484 36.922 35.2554 37.74 35.2554 38.6012C35.2554 42.1354 36.7688 44.9999 38.6353 44.9999C40.5027 44.9999 42.016 42.1354 42.016 38.6012C42.016 37.74 41.9231 36.922 41.7602 36.1728H43.2316C43.7624 36.1728 44.2651 35.7223 44.6011 34.9441C44.9365 34.1674 45.0707 33.1446 44.965 32.1605ZM34.5 10.3364H36.8127L39.8153 19.0779H35.2878L34.5 10.3364ZM40.0908 38.6012C40.0908 40.1227 39.4398 41.3549 38.6353 41.3549C37.8322 41.3549 37.1806 40.1227 37.1806 38.6012C37.1806 37.5425 37.5 36.6342 37.9621 36.1728H39.3094C39.772 36.6342 40.0908 37.5424 40.0908 38.6012Z" fill="black"/>
</svg>
