<svg xmlns="http://www.w3.org/2000/svg" width="668" height="368" fill="none" xmlns:v="https://vecta.io/nano"><style><![CDATA[.B{fill:#d9d9d9}]]></style><g filter="url(#A)" class="B"><path d="M645.791 89.105l-.197-.132v.198l.197-.066zm-1.977-1.779l.462-.198v-.264l-.462.461zm8.172-5.141l-.065-.923-.132-.527.197 1.45zm-28.8-6.788l-.462.198-3.756 1.12-1.318.461-1.516.461-.528.198v.198l.198 3.427.198 3.163.198 2.9.329.198 1.186-.329 5.339-1.582.132.329 9.49-3.625.066.132.857-.33 3.031-1.186 2.9 3.493.396-.33.197-.989-.065 1.582h.659l.197.791.593 1.12 3.098-3.757 2.57.857.594-1.318 4.217-2.241-1.779-3.493.461 2.241-2.175 1.648-2.438.198-4.877-5.207-2.175-3.295 2.175-2.307-2.241-.132-.923-2.175-.065-.132-3.757 4.086-8.304 2.768-2.702.857z"/><path d="M375.71 35.326l1.318 4.679 2.768 16.872 1.318 6.722.396 5.932 1.516 3.559.329 3.032.264.989-.066.198-2.636 4.35 1.713 2.9 3.295 23.199.132 3.032 3.295-.198 12.984-.725 32.426-2.702 3.229-.33v-.329l-.923-5.075-4.02-2.043-3.163-3.295-5.009-3.032-1.582-.132-2.438-1.845.659-9.095-2.307-2.109.791-3.691 4.218-3.823-.725-7.909 1.516-1.713 5.14-5.404 5.866-7.513 2.241-1.582 3.954-1.911 4.152-3.098-2.768.527-1.648-1.252-6.327.857-.988-1.186-5.668 2.307-4.548-1.911-1.252-1.516-3.625.264-2.438-1.252.791-.923-3.098-.989h-2.768l-4.416 1.911-.856-1.318-6.986-.989-2.373-5.932-.264-1.779-3.031-.857.263 5.075-8.04.593-9.952.395-.659.066z"/><path d="M312.639 34.732l-21.815-1.45-15.884-1.516-15.817-1.845-9.82-1.318-15.685-2.439-7.843-1.318-17.531-3.361-1.846-.395-2.834 13.445 1.253 2.439.988 3.757-.593.527 1.252 3.427 1.714 1.45 4.877 8.172.461 1.384 1.977-.132-2.306 10.809-.923.264-1.252 3.625 6.525.461.527 3.032 3.69 9.029.66.527 2.57 5.272.659-.527 5.47-.066 6.92.725 1.714-2.241 2.043 3.691.395.198.066-.395.923-6.459 22.54 2.768 17.992 1.714 9.49.791 16.938.989.857.066h.198l.066-.923.197-4.547.264-5.998.066-1.516.132-2.636 1.054-20.694.857-16.081.066-2.636-1.252-.066z"/><path d="M374.324 35.325l-19.904.395-13.906-.066-11.929-.264-13.972-.527-.725-.066-.066 2.636-.856 16.081-1.055 20.694-.132 2.636 2.571.132 29.064.791 26.824-.198 11.138-.33 2.241-.132-.264-.989-.329-3.032-1.516-3.559-.396-5.931-1.318-6.722-2.768-16.872-1.318-4.679h-1.384z"/><path d="M279.157 334.867l-2.043-1.515-1.78.461.396 3.691-2.439 3.031 2.109 4.811.594 4.943 2.438 1.582 1.516-2.438 2.702-1.978 3.295-.856 3.625-3.098-3.559-3.032-.066-1.845-6.788-3.757zm-11.995-5.338l-.988-.857-.923 1.252 1.911-.395zm-4.943-2.834l.264-2.438-1.252-.198.988 2.636zm4.152-4.02l-1.12.527.791 2.504 1.713.132.528 2.175 1.845.791 4.086-1.911-3.822-3.164-4.021-1.054zm-8.436-2.702l-.593 1.779 2.834-.066 2.636.659-1.384-2.175-3.493-.197zm-8.304-5.207l-1.516-1.45-2.899 2.241 1.845 3.427 1.318-1.384 3.757.791-.33-1.582-2.175-2.043zm-29.526-2.9l.396-.922 1.12-.594-1.516 1.516zm10.479-5.997l-4.613 1.713-.461 1.253 1.845 1.318 2.57.659 1.846-3.625-1.187-1.318zm-31.964-12.127v-.066h-.132l.132.066zm-34.93-8.634v.132h.066l-.066-.132zm-19.64-5.008h-.132v.066l.132-.066zm-20.299-17.07l-.066-.198v.066l.066.132zm-45.146-14.433l-.198.197.132.066.066-.263zM4 202.99l.198-.066v-.132L4 202.99z"/><path d="M206.333 21.09l-5.866-1.186-1.911-.461-.857-.198-7.645 34.403.33 2.834-.264 2.966.132.659v.066l.066 1.252 2.241 2.438-3.23 8.106-6.854 8.963-.198 1.648 1.78 4.218-6.261 25.967-.264 1.384 1.846.395 18.651 3.691 7.447 1.384 1.912.329 1.845.33 9.49 1.516 17.004 2.57 1.911.264.264-2.175.593-4.284 2.241-17.136 1.186-8.502.264-2.175-.396-.198-2.043-3.691-1.713 2.241-6.92-.725-5.471.066-.659.527-2.57-5.272-.659-.527-3.691-9.029-.527-3.032-6.525-.461 1.253-3.625.922-.264 2.307-10.809-1.977.132-.462-1.384-4.877-8.172-1.713-1.45-1.252-3.427.593-.527-.989-3.757-1.252-2.439 2.834-13.445h-.066z"/><path d="M126.915 37.5l.066-1.12-.132.066.066 1.054zm14.038-5.997l.395-.659-.461-.066.066.725zm-1.252-1.186l.395-1.318-.395-.132v1.45zm4.811-1.911l-.066-1.318-1.121 1.714 1.187-.395zm.131-2.768l.198-1.318-.132-.329-.066 1.648zm.198-6.459l-.066-.725-.263-.066.329.791zm2.109-4.35l-.593-.066-1.186 1.845 1.779-1.779zm-1.647-1.78l.329-.264.066-.198-.395.461zm-.33.198l-.198-1.318-.593 1.12.791.198zm-.33-1.845l-.593-.264.462.659.131-.396zm1.978 1.12v-.857l-.198.329.198.527zm.593-.857l-.264-.198h-.066l.33.198zm-3.757-1.45l-.329-.264-.132-.066.461.329zm2.439-.264l-1.78.461.462.132 1.318-.593zm-1.45-.132l-.33-.395-.066.066.396.33zm1.384-.791h-.264l.33.132-.066-.132zm-12.918 33.81l2.373 2.57-.396 4.943.462 1.252 3.559 1.911 10.017.923.396 1.186 4.745.066 4.482.593 7.315-.791 3.625.593.989-.461 18.519 4.218 1.252.264-.131-.659.263-2.966-.329-2.834 7.645-34.403-1.055-.198-15.422-3.625-13.445-3.427-15.224-4.218-4.547-1.12 1.054 5.734-.988 1.845-1.78-.923 1.714 7.975-1.846 2.636-.856 2.439v2.504l-3.889 2.702-1.648-1.055-1.581.791 2.9-3.757-.725 2.57 1.647-1.779 1.318.264-.395-3.295.857.132 1.779-3.954-.593-.593-2.307 2.966-1.516.066 1.648-1.845 1.845-.461-.659-3.361-1.845-.461-.923-1.582-1.12.593-6.063-2.636-5.339-4.152-1.45 4.02-.131 1.714 1.12 3.032-.725 9.82-.527 1.516 2.965.264-2.965 2.109 1.581.791-1.252 4.218-.593-3.295-1.12 3.822 1.516 1.845 1.647-.132 1.977 1.186.989 1.911h1.186z"/><path d="M249.172 195.608l-22.211-2.768-11.929-1.714-17.003-2.702-1.714-.263v.131l-2.9 12.786-1.516-.066-2.306-2.043-2.9 2.439-.066 10.479-1.055 2.241v.197.066l-.131 1.648 2.306 6.195 2.043 2.768-3.69 2.175-1.45 2.702-2.373 5.8-1.186.263-.066 4.812 2.043 1.515-1.055 2.9-2.372.132-1.384 2.57 4.745 2.966 8.963 5.009 27.681 14.697 23.462 2.9h.264l1.845-19.442.462-4.812 4.942-51.011.264-2.372-1.713-.198z"/><path d="M136.341 232.186l.263 1.45v.264l-.263-1.714zm-9.688-5.668l.461.989.264-.066-.725-.923zm11.533-.197l.198 1.713 1.186.857-1.384-2.57zm-7.975-9.359l-.725-.198.594.264.131-.066zm-7.315-1.977l-1.78 1.054.462.462 1.318-1.516zm-3.427-1.252l-.132.527.593.132-.461-.659zm5.8 1.318l2.899 1.647.528-.461-3.427-1.186zm-15.422-57.734l-.066-.197v.263l.066-.066zm38.027-50.022l-2.57-.659-28.208-7.777-10.479-3.163v.264l-.593 6.525-2.768 7.711-4.613 5.733-.132 2.9 2.241 4.021 1.12 5.272-1.582 4.284.264 4.284-.791 1.779 2.702 5.866 1.714 2.241-.132 6.393 4.086 3.888 2.373-3.954 2.57 2.043.989-.923-3.559.659-.066 3.361.725 4.218-1.978-1.911-1.12-2.57-.329 3.559.922 7.051 3.691 4.548-2.439 3.163.396 4.021 2.636 4.086 4.614 12.654 1.449.791-.461 8.765.725 1.055 9.886 3.559 3.032 3.229 1.054 2.109 2.9 1.648 3.163.593 1.319 3.625 2.636 1.252 3.954 4.679 3.691 6.129-.264 5.668 2.043 2.702 26.956 2.637 2.372-.132 1.055-2.9-2.043-1.516.066-4.811 1.186-.264 2.373-5.799 1.45-2.702 3.69-2.175-2.043-2.768-2.306-6.196.131-1.647v-.066l-1.713-2.307-5.273-7.052-10.215-14.367-14.236-20.431-8.04-11.138-7.777-11.204 8.963-38.028.593-2.504z"/><path d="M328.916 158.701l.264-12.917-3.164-.132-16.081-.593-1.581-.066-1.318-.066-19.574-1.252-13.05-1.055-16.279-1.581-1.581-.198-.198 1.713-3.559 34.337-1.252 11.995-.527 5.207-.132 1.713 2.043.198 33.216 2.9 14.632.923 14.565.659 2.109.066 1.318.065 2.768.066 1.318.066 4.152.132h1.055v-1.318l.725-34.864.065-3.889v-1.252l.066-.857z"/><path d="M196.644 186.052l6.854-42.641 3.493-21.353.396-2.109-1.912-.33-7.447-1.384-18.651-3.69-1.846-.396-1.845-.395-9.293-2.043-16.674-3.955-1.845-.461-.593 2.504-8.964 38.028 7.777 11.204 8.041 11.138L168.37 190.6l10.216 14.367 5.272 7.052 1.714 2.307v-.198l1.054-2.24.066-10.48 2.9-2.438 2.307 2.043 1.516.066 2.9-12.786v-.132l.329-2.109z"/><path d="M317.251 205.692l.066-1.713.066-1.714.066-1.714-2.109-.066-14.565-.659-14.631-.922-33.217-2.9-2.043-.198-.263 2.373-4.943 51.011-.462 4.811-1.845 19.442.264.066 9.095.857.857-4.613 1.647-1.319 18.454 1.648h.132l-1.648-3.229 8.37.593 20.892 1.186 13.05.593 2.24-61.819.462.066.065-1.78z"/><path d="M106.617 95.695l10.479 3.164 28.207 7.776 2.571.659 1.845.462 16.674 3.954 9.293 2.043 1.845.396.264-1.384 6.261-25.967-1.78-4.218.198-1.648 6.854-8.963 3.23-8.106-2.241-2.438-.066-1.252v-.066l-1.252-.264-18.52-4.218-.988.461-3.625-.593-7.316.791-4.481-.593-4.745-.066-.396-1.186-10.018-.923-3.559-1.911-.461-1.252.396-4.943-2.373-2.57-.198.066-.461.329-3.295-1.713-1.978.593-1.318-.659-1.384 5.668-.922 1.582-4.087 9.952-1.186 5.47-.725.066-3.822 9.095-2.571 3.888-.922.659-2.373 4.613-.461 4.877-1.45 4.35.857 3.954v.066zm24.121-54.109l-.198-.593-.066.461.264.132z"/><path d="M235.724 124.364l-17.004-2.57-9.49-1.516-1.845-.33-.396 2.109-3.493 21.354-6.854 42.641-.33 2.109 1.714.263 17.004 2.703 11.929 1.713 22.21 2.768 1.714.198.131-1.714.528-5.206 1.252-11.995 3.559-34.337.197-1.714-1.318-.131-16.806-2.044-2.57-.329 1.648-12.852.131-.856-1.911-.264z"/><path d="M309.738 115.665l.527-10.281.659-13.841.066-1.714-.857-.066-16.937-.989-9.491-.791-17.992-1.713-22.54-2.768-.923 6.459-.066.395-.263 2.175-1.187 8.502-2.24 17.135-.594 4.284-.263 2.175-.132.857-1.648 12.852 2.571.329 16.806 2.043 1.318.132 1.582.198 16.278 1.581 13.05 1.055 19.574 1.252 1.318.066.066-1.713.329-6.921.593-12.06.264-5.141.066-1.714.066-1.779z"/><path d="M465.275 207.933l-7.118 1.054 2.9-4.613-1.253-2.57-25.11 2.438-21.221 1.714-3.098.198.395 1.845 2.571 13.313.066 2.966.725 17.926.066 2.966.197.066.989 1.054 3.954-.132.396 5.8.132 1.648 2.043-.198 6.261-.461 24.846-2.307h.132l-.066-1.45.659-.461-1.186-2.241 2.504-10.545-.988-1.186 3.756-4.152-.263-3.559 2.768-4.614v-.066l-.132-.131 2.373-2.175-.66-2.637 1.846-2.899-.396-2.703 1.978-3.822v-.066h-.066z"/><path d="M445.636 119.421l-3.625-1.911-1.977-2.702-.659-3.889.527-1.779-1.911-2.307-3.23.33-32.425 2.702-12.984.725-3.295.197-1.384.066 1.12 7.316-.922 3.493 1.449 2.175v.461l.462.066 2.109 6.195 2.043 3.23.132 3.69 2.241 3.098-.396 1.318 2.043 8.304v.198l13.511-.396 14.433-1.252 14.17-1.779 3.229 2.834.132.131.593-.263-.461-2.57 2.439-1.516.988-6.723-.988-.461.593-3.427 2.965-.593 3.296-2.373 1.45-4.152.066-2.109-2.637-2.504-.79-1.582-2.505-1.582.132-.329.066-.33z"/><path d="M409.915 197.52l-1.648-27.879-2.966-1.713-.263-1.318-2.373-2.109 2.307-2.834-.923-1.648-1.714.066-1.581-1.12-.659-.527-2.241.131-24.319.923-11.138.264h-22.145l-8.897-.132-2.505-.066v1.252l-.065 3.889-.725 34.864v1.318l2.834.066 15.29.198 35.787-.528 25.505-1.186 2.505-.198-.066-1.713z"/><path d="M440.297 149.804l-3.23-2.834-14.169 1.779-14.434 1.252-13.51.396-.066.395 1.647 3.164 1.516 1.054 1.78 3.164.263.263.659.528 1.582 1.12 1.714-.066.922 1.648-2.306 2.834 2.372 2.109.264 1.318 2.966 1.713 1.647 27.879.066 1.713.132 1.714.066 1.713.132 1.78.066 1.713 3.097-.198 21.222-1.713 25.11-2.439 1.252 2.571-2.9 4.613 7.118-1.054h.066v-.528l.132-3.031 1.318-1.648-.395-1.845-.066-.066-.066-.066.263-.857.396.132.198.527-.066.198v.066.527l.263.066.528-.659v-.066l.065-.198 1.714-1.054.264-.132.593-5.404-.132-.264-.198-.066-4.679-3.822.725-1.384-1.318-3.757-2.373-1.845-4.481-1.978-2.834-2.306.329-4.746.857-4.415-4.745.263-1.45-1.515-.659-3.032-7.514-6.327-2.109-5.866.528-2.9-.132-.131z"/><path d="M385.067 124.166l-2.043-2.043-7.184-2.109-2.307-.066-3.493.989-4.152-2.636-12.983.131-18.915-.197-22.342-.725-1.977-.066-.066 1.713-.264 5.141-.593 12.061-.33 6.92-.065 1.713 1.581.066 16.081.594 3.164.131-.264 12.918-.066.857 2.505.066 8.897.131h22.144l11.138-.263 24.32-.923 2.24-.132-.263-.263-1.78-3.164-1.515-1.054-1.648-3.164.066-.395v-.198l-2.043-8.304.395-1.318-2.241-3.098-.131-3.69-2.044-3.23-2.108-6.195-.462-.066-1.252-.132z"/><path d="M410.309 204.44l-.132-1.779-.066-1.714-.132-1.714-2.504.198-25.506 1.186-35.787.528-15.29-.198-2.834-.066h-1.054l-4.152-.132-1.319-.066-2.768-.066-1.318-.066-.066 1.714-.066 1.714-.065 1.713-.066 1.78h.395l15.949.395 16.872.198.198 22.539 1.186 3.955 2.636 2.504 2.834.132.593-1.186 3.889 3.559 5.075.527.922 1.054 1.846-.856 4.613 2.175v1.252l1.714-.066 1.779-1.516 3.295 2.109 3.098 1.12 2.109-2.899 6.722 3.163 2.505-2.043 2.043-.791 1.648.395 6.195-1.779 3.295 1.384 2.966 1.911 2.57.462h.066l-.066-2.966-.725-17.927-.066-2.965-2.57-13.313-.396-1.846-.065-1.713z"/><path d="M381.378 77.241l-11.139.33-26.823.198-29.065-.791-2.57-.132-.066 1.516-.264 5.997-.197 4.547-.066.923h-.198l-.066 1.713-.659 13.84-.527 10.281-.066 1.78 1.977.066 22.342.725 18.915.197 12.984-.131 4.152 2.636 3.493-.989 2.306.066 7.184 2.109 2.043 2.043 1.252.132v-.461l-1.45-2.175.923-3.493-1.12-7.316 1.384-.066-.132-3.031-3.295-23.199-1.714-2.9 2.636-4.35.066-.198-2.24.132z"/><path d="M464.287 303.826l-.857.198-.395.395 1.252-.593zm2.768 0l-.462-.198-.131.198h.593zm1.582-.527h-.462l-.263.329.725-.329zm-.791-.461l-.132-.198-.066.198h.198zm5.272-3.493l-.198.131h.33l-.132-.131zm9.227-3.889l.395-.527-.461.593.066-.066zm1.318-1.713l-.132.065v.066l.132-.131zm-33.876 5.799l.989-1.252-2.702-.725-1.186.989 2.899.988zm27.351-5.734l-.263-.263-.066.132.329.131zm.725-1.186l-.659-.198.198.66.461-.462zm5.405-1.12v-.198.066.132zm1.318-.857l-.066-.066.066.132v-.066zm-.527-.132l-.132-.066-.066.198.198-.132zm-4.614-.198l.593-.197v-.198l-.593.395zm.33-.329l.329-.33-.066-.066-.263.396zm-2.307-2.439l-.132.132h.066l.066-.132zm-24.319-36.907h-.132l-24.847 2.307-6.261.461-2.043.198.066 1.582 1.318 12.719 2.175 3.032.066 1.78 2.109 3.69 1.714 5.405-.594 3.031-.461 7.514-.988 2.438h.131l.198 1.714-1.12 1.581 8.172-.922 6.393 1.779 4.547.593 2.307-1.647-1.252-1.648 4.218-1.318-.132 1.45 2.175-.527 1.779 2.768 1.516-.528 3.955 2.703-2.439.856 5.602 1.648h2.109l1.252-1.516 2.702-1.45 1.912 2.768 1.318-2.504-.396-3.955 3.559 1.384.396 1.187 4.218.527 2.109 1.714-.264 1.384 2.966-2.768-1.121-1.45-4.943-1.253-1.845-1.054-.066-1.977 2.043.263 1.582-3.229-2.043-2.834-1.12 2.702-2.571-.461 1.78-2.9-1.187-.33-2.9 2.044-4.152.263-1.186-.923 1.911-3.361 2.241-.066 3.823 1.253 2.768.263-1.516-1.911-2.9-5.668.791-3.163-22.738 2.504.857-.857-.922-2.372 1.384-2.044.79-5.14 5.009-8.568-2.438-2.966.132-2.175-1.516-3.559v-.461z"/><path d="M386.188 349.762l-3.163-11.929v2.241l3.163 9.688zm-.725-20.958l-2.241 4.218-.263 1.384 2.504-5.602zm1.78-3.098l2.108-2.768-1.515.923-.593 1.845zm7.447-6.722l-4.943 2.57 1.384-.263 3.559-2.307zm.659-.923l1.384-1.12-.527.132-.857.988zm-78.164-110.59l-.462-.066-2.241 61.82-13.049-.593-20.892-1.186-8.37-.594 1.648 3.23.065.066 7.118 7.117 4.086 4.812 5.405 4.02 3.822 6.986 1.45 7.315 3.098 2.044 2.438 2.702 3.493 1.252 5.075 3.229 2.307.857 3.163-3.163.989-3.362 1.647-3.229 5.141-2.043 1.977.988 5.734.462 5.207 3.229 3.559.659-.989 1.846 2.043 1.318 1.911 2.306.396 2.439 1.252 1.648 2.9 6.986 2.9 2.438 2.241 3.691 2.833 2.9 1.253.395 1.054 7.513 3.098 1.714.132 2.373.79-.198 5.405 6.59 2.702.594 3.427 2.043h5.272l3.823 2.109 4.547-.989-2.043-1.911-1.845-5.536-.725-4.811-1.054-1.582.461-3.23-1.384-.131-1.845-3.032 2.109 2.241 2.438-.857 1.318-3.493-2.636-3.559 3.954.461 1.846-2.833-.264-.989 1.648-2.175-.396 1.911 1.846-1.45-.725-2.57 2.372 1.252 3.032-1.713-2.966-3.098 1.846.725 3.427.198 4.481-.989 5.009-3.361 3.032-2.504.461-1.846 1.845-1.911-.988-3.164.198-1.977 3.295-1.45-.264 3.493h1.977l-2.174 1.846 8.765-4.614 1.45-.066.923-4.218h.263l.989-2.438.461-7.513.593-3.032-1.713-5.404-2.109-3.691-.066-1.779-2.175-3.032-1.318-12.72-.066-1.582-.132-1.647-.395-5.8-3.955.132-.988-1.055-.198-.066h-.066l-2.57-.461-2.966-1.911-3.295-1.384-6.195 1.779-1.648-.395-2.043.791-2.505 2.043-6.722-3.164-2.109 2.9-3.098-1.12-3.295-2.109-1.779 1.515-1.714.066v-1.252l-4.613-2.175-1.846.857-.922-1.054-5.075-.528-3.889-3.559-.593 1.187-2.834-.132-2.636-2.505-1.186-3.954-.198-22.54-16.872-.197-15.949-.396h-.395z"/><path d="M632.675 82.514l-9.49 3.625-.132-.329-5.338 1.582-1.187.33.132.659 2.505 9.688.79.989-1.713 2.109 1.186 1.12 3.823-3.69 2.043-2.834.395.791 9.622-4.284.198-.198-.066-1.582-.395-1.384-2.043-5.734-.264-.725-.066-.132z"/><path d="M623.778 36.775l-.857 1.055-.988-.198-.527 4.35v.066l1.581 5.932-.132 1.186-2.834 3.757.725 3.427v4.284l-.527 3.954 2.966 10.808 2.702-.857 8.304-2.768 3.757-4.086v-1.054l.198-1.714-.462.198-.066-.395-4.152-5.075-.132-.461-9.556-22.408z"/><path d="M639.135 88.445l-.066-1.384-.198.527.264.857zm1.318-1.055l-.857-1.648-.066 1.714.923-.066zm-.395-2.043l.461 1.186.593 1.055.396-.791-.593-1.12-.198-.791h-.659v.461zm-7.316-2.702l.264.725 2.043 5.734.395 1.384.066 1.582.132-.198 3.164-2.504-.594-4.482 1.319-.264-2.9-3.493-3.032 1.186-.857.33z"/><path d="M623.186 75.396l-2.966-10.808.528-3.954v-4.284l-.725-3.427 2.834-3.757.131-1.186-1.581-5.931-.857.33-3.625 1.318-3.559 1.384-8.172 2.966-.462.132 2.966 6.92.989 6.525 3.493 5.47 3.295 10.808.132-.066.527-.198 1.516-.461 1.318-.461 3.757-1.12.461-.198z"/><path d="M484.191 219.334l.264.527.922.594.396 27.021.132 14.829 3.361 20.299.263-.066 2.966.593.791-5.866 1.318 3.296 2.241 2.043 4.284-2.505-.462-.395.132.066-2.966-6.788 28.472-4.614 1.911-.329v-.066l-1.779-3.362-.132-4.811-1.45-2.636.725-5.141 1.186-1.318-4.877-8.699-8.831-26.89-.066-.132-1.977.33-10.545 1.713-5.273.66-11.072 1.515.066.132z"/><path d="M576.789 348.642h-.132l.066.066.066-.066zm-.593-.066v.066h.066l-.066-.066zm-9.556.989h-.066v.066l.066-.066zm18.717-4.152h-.066l.066.132v-.132zm1.779-.462v-.131l-.131.197.131-.066zm-.659-.131l-.263-.264-.066.066.329.198zm-.197.527l-.791-.989.461.857.33.132zm6.261-3.889v.264l.132-.132-.132-.132zm.922-.659l.198-.329-.264.263.066.066zm.198-.659h-.066v.066l.066-.066zm-.593-1.186l-.066-.066v.132l.066-.066zm.461-1.582l-.132.066.198.066-.066-.132zm.264 0l-.132-.132.066.198.066-.066zm-.461-.132l-.066-.066v.132l.066-.066zm2.438-.461v-.066l-.132.264.132-.198zm-2.768.264h-.132l.132.066v-.066zm1.384-.791h-.198l-.066.066.264-.066zm-5.009-.066v-.132l-.066.132h.066zm.593-.198h-.197l.197.396v-.396zm-1.581.066v-.395l-.33.066.33.329zm-.923-.659l.329.33v-.132l-.329-.198zm9.688.395l-1.186.528.395.066.791-.594zm-9.227-.593h-.395v.132l.395-.132zm10.413-3.295l.066-.33.066-.856-.132 1.186zm.066-3.691l-.263-.659-.132.264.395.395zm-15.224 1.648l-.132.198.33.066-.198-.264zm-1.252-.593l-.593.197.461.066.132-.263zm-1.318.132v-.198l-.066.066.066.132zm-1.384-.066l-.396.263.528.264-.132-.527zm1.845.066l-.066-.198-.329-.066.395.264zm-8.634-6.459l-.395.198.791.263-.396-.461zm-1.581-2.109l-.528-.791.198.593.33.198zm2.043 1.318l-.923-2.109-.659-.198 1.582 2.307zm-2.636-2.636l-.198-.528-.132-.329.33.857zm-5.471-7.316l-1.186-.857.461.462.725.395zm29.658-4.416l-4.811-8.04h-.264l5.075 8.04zm-33.282-12.851l-.198-.066.198.132v-.066zm-.396-.462l-.066.066.066.066v-.132zm-.461-.659v-.065l-.066.065h.066zm.263-.263l.198.132v-.132h-.198zm.396-.264l-.264.066h.066l.198-.066zm-.462-.066l-.197-.197.066.065.131.132zm-.461-.725h-.132l.198.066-.066-.066zm.461-.791h-.263l-.066.066.329-.066zm.264.132l-.329-.329.131.066.198.263zm-2.504-2.834l-.132-.066v.066h.132zm-2.834 0l-.198-.263.066.329.132-.066zm-23.99-2.175l1.977-1.515-2.175 1.449.198.066zm3.954-3.163l.198-.198-.791.33.593-.132zm-25.044-4.416l-7.184 2.307 3.955-1.12 3.229-1.187zm17.861-11.204l-1.912.33-28.471 4.613 2.966 6.788.197.066-.724 2.703 2.109-.923 2.306-2.043 3.955-.132 4.547-1.648 3.098.462-.725 1.12 5.668 1.911 4.877 2.373 1.12 2.636 3.625-.791 8.568-6.986 3.163.132 12.918 9.754 2.636-.527 2.768 3.691.527 5.865-.857 3.691.396 1.845 2.306 4.614-1.054-3.625 2.966-.066.263 2.636-1.581 4.086 5.47 7.514 2.043.066-1.714-2.307 2.109.264 1.253-.791-.528 4.218 2.834 2.24 1.912 5.141 2.57 1.582 3.295.857 4.548 5.799 2.372 1.253-3.163.197 1.45 1.648 5.206-1.714 2.571-1.45 2.372-8.304-1.186-12.917-.264-1.318-6.327-10.545-5.404-7.645-3.032-6.261 2.571 2.174.527-.395 1.12 5.47 2.9 4.152-2.834-5.536.132-2.636-8.502-10.347-2.043-3.23-2.702-5.47-1.845-4.613-1.45-1.648-.33-2.109-.066-.066-4.547-.263-1.78 1.384-.988 5.074-.923-2.372-31.108 3.888-2.24-3.493.066-.066z"/><path d="M570.791 254.132l-.066-1.977-.462 1.714.528.263zm.725-3.031l-.264-1.516-.198.923.462.593zm-30.844-41.521l-.857.198-2.505.527-9.226 1.911-.857.198-.923.132-5.14.988-1.384.264-5.602 1.055-1.187.131.066.132 8.831 26.89 4.878 8.699-1.187 1.318-.725 5.141 1.45 2.636.132 4.811 1.779 3.362v.066l-.065.066 2.24 3.493 31.108-3.889.923 2.373.988-5.075 1.78-1.384 4.547.264-.395-7.118.857-1.516-.462-2.834.923-2.702 1.384-1.516-.989-.923 2.307-2.834h-.066l-3.954-3.69-5.405-7.711-2.965-1.384-12.72-10.677-3.098-3.955-5.997-2.504-.33-1.318 1.846-3.625z"/><path d="M483.136 285.834l-.329.065v.066l.329-.131zm6.13-.791h-.923l.857.066.066-.066zm-7.645.659l-.264.263.066.066.198-.329zm6.195-.528h-2.505l2.373.066.132-.066zm-27.483-62.808v.066l-2.768 4.614.264 3.558-3.757 4.153.989 1.186-2.505 10.545 1.186 2.241-.659.461.066 1.45v.461l1.516 3.559-.132 2.175 2.439 2.966-5.009 8.567-.791 5.141-1.384 2.043.923 2.373-.857.857 22.738-2.505-.791 3.164 2.9 5.668 1.515 1.911v-.066l2.439-2.768 5.14-1.121 4.746.528.725-.923v-.066l-3.362-20.299-.131-14.829-.396-27.021-.922-.593-.264-.528h-.132l-3.295.462-5.8.791-13.181 1.647-1.45.132z"/><path d="M540.672 209.58l-1.846 3.625.33 1.318 5.997 2.505 3.098 3.954 12.72 10.677 2.965 1.384 5.405 7.711 3.954 3.69.659-3.031-1.054-2.9 2.833 2.109 1.582-1.252-2.702-2.241 3.295-.198 5.141-4.35-.593-1.12 3.163-2.438-.329-1.187 2.307-1.45.131-3.361 3.625-6.722 2.439-3.098.263-.132-14.697-9.292-5.47 1.054-7.447-.264-3.691-1.911-21.881 6.92h-.197z"/><path d="M445.57 119.751l-.132.329 2.505 1.582.791 1.582 2.636 2.504-.066 2.109-1.45 4.152-3.295 2.373-2.966.593-.593 3.427.989.462-.989 6.722-2.439 1.516.462 2.57-.593.264-.528 2.9 2.109 5.865 7.514 6.327.659 3.032 1.45 1.516 4.745-.264-.857 4.416-.329 4.745 2.833 2.307 4.482 1.977 2.373 1.845 1.318 3.757-.725 1.384 4.679 3.822.198.066-.396-.395 1.319-3.098 5.074 1.384 1.253-1.45-.989-2.899 4.152-2.439-1.12-1.582.988-2.241v-.197l-.263-.066.065-5.866 1.45-1.054 2.505-5.866-.527-2.57-1.648-3.098.923-3.493-4.614-32.491-.659-.725-1.713-3.889-1.384-1.45-.594-3.822v-.132l-8.897 1.252-5.338.659-14.368 1.648z"/><path d="M505.94 121.135l-10.083 1.779-2.307.462-8.172 1.318-1.714 1.384-2.57 1.186-.989-.066-1.186-.593-.396-.395 4.614 32.491-.923 3.493 1.648 3.098.527 2.57-2.504 5.866-1.45 1.054-.066 5.866.263.066.264-.066.989-1.846h2.438l2.966-.988 3.691 1.384.395-1.516 2.109-1.582 3.164.462 1.713-3.362 4.679.396-.066-1.911 4.153-5.471-.66-2.504 2.9-.066 3.559-2.834-.857-3.229.132-.132-.132-1.121-3.954-23.33-1.779-9.952-.198-1.054-.198-.857z"/><path d="M467.12 200.551l-.197-.527-.396-.132-.263.857.066.066.725-.066.065-.198zm45.08-43.102l-.132.132.857 3.229-3.559 2.834-2.9.066.659 2.505-4.152 5.47.066 1.911-4.679-.395-1.714 3.361-3.163-.462-2.109 1.582-.396 1.516-3.69-1.384-2.966.989h-2.439l-.988 1.845-.264.066v.198l-.988 2.24 1.12 1.582-4.152 2.439.988 2.899-1.252 1.45-5.074-1.384-1.319 3.098.396.395.132.264-.593 5.404-.264.132-1.714 1.055-.066.197 1.912-.263 13.313-1.78-.659-2.636 2.24-.066 26.824-3.559 18.849-3.163.264-.198.461-.527 4.943-2.637 3.823-5.008.527-1.714 2.504-1.977 3.164-4.02.461-.659-.198-.066h-1.647l-2.109-1.187-3.757-4.547-1.318-4.614v-.131l-.132-.132-2.768-1.582-1.252-2.109-2.505 2.439-1.581.395-1.977-.791-1.714 1.318-3.559-1.581-.923.395-3.361-2.9-1.713-.857-3.23.396-.527.527z"/><path d="M600.909 210.766l-.725.725.132.132.593-.857zm.527-3.822l-.329.527.131.527.198-1.054zm3.954-6.13l-.988.659-.527.791 1.515-1.45zm8.502-4.152l-.395-.263-.857-.066 1.252.329zm-1.779-.395h-.593l-.989.527 1.582-.527zm2.043.725l1.911-4.745-1.318 1.977-.593 2.768zm2.834-6.261l.857-1.252h-.462l-.395 1.252zm5.536-5.141l-1.45-7.315 1.252 3.822.198 3.493zm-8.041-16.674l-.131.066-.198.066h.066l3.625 6.129 2.834 2.834-6.196-9.095zm-1.186.395l-.527.132.132.066h1.12l-.132-.395-.197.066h-.198v.131l-.132.066-.066-.066zm-60.963 15.027l-.329.989.066 2.834-.725-.066-1.714 3.493-1.911.197-3.559 3.493-1.582-.593-2.043 3.032-5.404 4.877-2.636.659-2.769 2.57-.131 1.714-2.439 1.318.066 2.9v.659l.857-.198 9.227-1.911 2.504-.527.857-.198h.198l21.88-6.92 3.691 1.911 7.447.264 5.471-1.055 14.697 9.293.263-.198 6.789-2.768.065-3.625 2.439-4.415 2.636-2.505 5.47-3.625.725-1.318 1.45.659.659-4.349-.79 1.515-2.769.923-2.636.066 3.23-2.373-.989-1.054 1.12-2.373-6.195-.988-.263-.33 5.272-.988 1.714.856 2.175-.197 1.779-1.318 1.318-2.571 1.186-.329-.197-3.625-1.516-1.45-1.516 1.384.33 3.493-1.121-4.284-.857-.198-6.524 2.702 2.9-2.833.131-1.121 3.032-.725.857-2.241 2.043 1.187-2.175-3.23-1.516-1.318-26.362 7.513-16.806 4.284-17.004 3.164-.066-.132z"/><path d="M552.008 125.485l-1.647-7.118-.33-1.45-1.845-8.106-2.373 1.515-5.075 3.889-3.295 4.02-2.57.396-4.746 2.702-2.636-1.582-7.974-.923-4.218 1.055-4.152.988-4.35.923-.659.198.197 1.054 1.78 9.952 3.954 23.331.132 1.12.527-.527 3.23-.396 1.713.857 3.361 2.9.923-.395 3.559 1.581 1.714-1.318 1.977.791 1.582-.395 2.504-2.439 1.252 2.109 2.768 1.582.132.132 2.834-1.384.989-2.175-.791-2.241 2.24-3.427 1.648-.264-.198-2.9 2.703-3.69.461.527 2.438-1.845 2.109-3.164.33-14.433.132-.066-.33-1.384z"/><path d="M530.325 189.216l-18.849 3.163-26.824 3.559-2.241.066.66 2.636-13.313 1.78-1.912.263v.066l-.527.659-.264-.065v-.528-.066l-.725.066.066.066.396 1.846-1.318 1.647-.132 3.032v.527.066l-1.977 3.823.395 2.702-1.845 2.9.659 2.636-2.373 2.175.132.132 1.45-.132 13.181-1.648 5.8-.791 3.295-.461h.132l-.066-.132 11.072-1.516 5.273-.659 10.545-1.713 1.977-.33 1.186-.132 5.602-1.054 1.384-.264 5.141-.988.922-.132v-.659l-.066-2.9 2.439-1.318.132-1.714 2.768-2.57 2.636-.659 5.404-4.877 2.043-3.032 1.582.593 3.559-3.493 1.911-.198 1.714-3.493.725.066-.066-2.834.33-.988-1.055.198-3.757 1.054-4.481.923-11.27 2.306-1.186.198-.264.198z"/><path d="M613.497 169.18h.198l.198-.066-.132-.329-.264.395zm-2.24-7.381v.329l.329-.197-.329-.132zm.791-1.516l-.132.857-.198.329.33-1.186zm.593-1.714l.066-.395-.132.395h.066zm.395-1.779l.198-.461-.33 1.186.132-.725zm.066-.989l.264-1.45-.33.33.066 1.12zm1.186-6.524l.132-.593-.066.131-.066.462zm-.263-1.516l-.857.329-1.318.594-.462.593.198.066-1.582 9.82.594 1.581.922-4.086 1.714-5.338.791-3.493v-.066zm1.318-.527l-.198.066-.066.263-.329 2.043.263-.725.33-1.647zm-68.872 25.242l-.461.659-3.164 4.02-2.504 1.977-.527 1.714-3.823 5.008-4.943 2.637-.461.527 1.186-.198 11.27-2.307 4.482-.922 3.756-1.055 1.055-.197.066.131 17.003-3.163 16.806-4.284 26.363-7.513-.198-.33-.066-.197.461.461.528-.132-.066-.066-.462-2.241.33.066 1.054 1.977.198-.066.132-.065-.264-.528-2.702-4.152-3.361.593-1.516 1.253-1.45-1.318-4.943-1.648-3.427-.132 6.657-.593 3.69 2.504 1.055-1.647-2.966-3.757 2.109.132-1.12-3.032-2.636.132-6.262-5.075h-.79l8.831 4.35-.593-3.032.593-.988-4.482-1.714-3.888-.263-1.911-1.714-1.582.989-.593-4.548.659.132-.132-3.691-.132-.132-.132.066-.131-.066-.33-.263-.198-.198-2.109-.923-2.175-1.581-3.031-.791-.198-.066v.066l-.395 2.768-6.13-2.636.132 3.822-3.361 6.393-2.043 2.241-1.318 3.888-4.02-1.384-1.978 8.963-1.581 3.032-.264 3.954-1.186 1.912-4.416 1.318-3.625 2.834-1.713.263-1.648 1.45-4.152-1.516-.725-2.043-.132-.065z"/><path d="M475.688 76.714l-1.647 2.043-.989 2.966.461 1.648 2.175-6.656zm-37.83-15.488l.989-1.384-.725.659-.264.725zm1.516-2.175l-.329-.395-.725.461 1.054-.066zm-14.367 3.691l-1.516 1.714.725 7.909-4.218 3.823-.791 3.691 2.307 2.109-.659 9.095 2.438 1.845 1.582.132 5.009 3.032 3.163 3.295 4.021 2.043.922 5.075v.329l1.911 2.307-.527 1.779.659 3.889 1.977 2.702 3.625 1.911-.066.33 14.368-1.648 5.338-.659 8.898-1.252-.264-.989v-3.097l-1.78-3.296-.461-4.152.857-4.613-.461-3.559 1.581-4.416-.593-.725.132-4.086.857-3.097-.989-1.055-1.911.659-1.055 2.768-2.504 1.45.791-3.493 2.241-2.966.131-1.318.066-.066-3.163-3.163v-4.482l-3.559-2.9-4.877-.329-5.009-1.318-10.808-3.295-2.109-1.186-.198.198-3.361-.461-1.121.659.462-4.811-5.405 2.768-6.59 1.055-.066-.132zm12.917-3.493l-.131-.461-.462.198.593.264zm-2.372-.461l.197-.395-.131-.132-.066.527zm4.811-1.12l-.198-.923-.198 1.12.396-.198z"/><path d="M564.596 137.084l-9.359 2.306-2.9-12.522-.132.066-.329 14.433-2.109 3.164-2.439 1.845-.461-.527-2.702 3.691.198 2.9-1.648.263-2.241 3.427.791 2.241-.989 2.175-2.834 1.384v.132l1.319 4.613 3.756 4.548 2.109 1.186h1.648l.197.066.132.066.725 2.043 4.152 1.516 1.648-1.45 1.714-.264 3.624-2.834 4.416-1.318 1.186-1.911.264-3.954 1.582-3.032 1.977-8.963 4.02 1.384 1.318-3.889 2.043-2.24 3.362-6.393-.132-3.823 6.129 2.636.395-2.768v-.066l-1.911-3.295-3.954-.461-2.307 1.779v1.318l-1.977.462-2.9 2.043-1.516.329-3.031 4.284-1.516-6.92-1.318.33z"/><path d="M603.348 126.209l.263.989 5.47 15.619 6.262-1.845-.066-.132h.131l.198.066.132-.066-.132-.263-1.582-4.218-7.711-7.316.33-5.075h-1.582l-1.186.923-.527 1.318z"/><path d="M592.737 140.775l.33.263.132.066.131-.066.132.066.462.264.131.198v.461l.132.264.857-1.582-.923-.527-1.12.066-.264.527z"/><path d="M615.408 146.97l.462-3.559-.396 2.636-.263 1.121-.066.131.197-.066.066-.263zm.33-6.129l-.132.066.132.395v.791-1.252zm-49.825-4.087l1.516 6.921 3.032-4.284 1.515-.33 2.9-2.043 1.977-.461v-1.318l2.307-1.78 3.955.461 1.911 3.296.198.066 3.031.791 2.175 1.581 2.109.923.198.198.263-.528 1.121-.065.922.527-.856 1.582v.065l-1.252 3.823 4.086 2.636 4.086.198 2.702 1.252-1.12-3.163-3.493-1.187-.857-2.702 2.175 2.9 1.779.264-1.582-1.582-1.252-4.679.33-2.702-1.384-2.966 1.45-1.187 1.054-3.822-.395 5.668 1.12 1.911 1.055-2.241.593 3.691-1.121 2.702 3.23 1.186-2.768.923 1.45 2.702 2.372.791 1.318-2.307-.131 3.23 2.24-.066 1.45 1.648h.066l.461-.594 1.319-.593.856-.329-.066-.132 1.714-5.075v-.198l-.33-1.318v-.066l-6.261 1.846-5.47-15.62-.263-.989-1.121.33-4.679 1.45-25.769 7.184-4.68 1.252-1.186.329z"/><path d="M618.968 125.946l-.33-.791v.791h.33zm.659-2.438l.197-1.978-.395 1.714.198.264zm-2.702-20.234l-6.921-1.713-1.186-.33-1.12-.263-2.768 6.129 1.186 1.45-.066 4.416 1.252.197 2.571 6.723-.132.197-3.23 4.746.33 3.625 7.777 2.636.066 3.031 1.779-2.504.264-3.625 1.845-1.252-.725-2.702 1.384-3.23v-7.051l-.461-2.307-3.098.066.791-3.164.462-5.075z"/><path d="M616.727 108.612l-.988 1.384-.264.396 1.252-1.78zm9.095-3.229l3.296-2.9v-.132l-3.296 3.032zm-8.633 2.043v-2.241l-.198 1.187.198 1.054zm15.29-10.545l-.791-.198-.132.593.923-.395zm1.779-1.186l-.066.659.132-.395-.066-.264zm-1.845.066l-4.416 4.086-6.788 2.9-1.779 1.516-.132 1.45-1.846 1.515.264 1.978 2.834-1.121 4.152-3.361 4.613-2.439 6.986-6.59-4.943 3.757-1.581.66 2.636-4.35zm2.043-2.768l.264-.395-.791.923.527-.527zm-74.078-2.439l-1.055-.132.791 1.055.264-.923zm21.881-20.167l.131-.725-.527.659.396.066zm.329-4.745l-.263.132-.33.725.593-.857zm-27.878 37.434l.461 1.978 3.493.856 20.036-5.47 20.167-6.063 3.691 2.834.725 1.648 4.283 1.846.132.263 1.121.264 1.186.329 6.92 1.714-.132-.329.593 2.702 1.319-.33.725-2.966v-.066l-1.187-1.12 1.714-2.109-.791-.989-2.504-9.688-.132-.659-.33-.198-.198-2.9-.197-3.163-.198-3.427v-.198l-.132.066-3.295-10.809-3.493-5.47-.989-6.525-2.965-6.92-.396.198-13.774 4.613-2.768 2.966-3.098 5.932.132 1.318-4.086 6.195 2.504.857.725 4.679-2.9 3.823-8.699 5.272-1.648-.659-6.459.923-5.997 3.625.329 1.911 2.109 1.845-1.186 5.8-4.745 5.536-.066.066z"/><path d="M607.565 100.704l-4.284-1.845-.725-1.648-3.691-2.834-20.167 6.063-20.035 5.47-3.493-.856-.462-1.977-1.12.856-1.78 1.253-3.229 3.295-.395.329 1.845 8.107.33 1.45 1.647 7.118.33 1.384 2.9 12.522 9.358-2.307 1.318-.33 1.187-.329 4.679-1.252 25.769-7.184 4.679-1.45 1.121-.33.527-1.318 1.186-.922h1.582l.198-.593 2.57-2.9.264-.462.197-.131-2.57-6.723-1.252-.198.066-4.415-1.186-1.45 2.768-6.129-.132-.264z"/><path d="M639.333 65.576h-.066l.132.066-.066-.066zm4.877-14.038l-.527-.791v.395l.527.395zm-.923-.725v-.659l-.065-.396.065 1.055zm2.373-2.768l-.132-.066.066.198.066-.132zm6.591-3.295l-.132-.989-.264.461.396.527zm-1.648.395l.066-.725-.791.132.725.593zm2.438-2.175h-.263v.132l.263-.132zm-3.295.989l-.593-.132-.066.593.659-.461zm3.361-2.043l.594.461-.198-.527-.396.066zm-1.779.066l-.593 1.12.791-.395-.198-.725zm-2.834.066l-.264.395.198.593.066-.988zm3.888-2.175l-.065-.527-.198.33.263.198zm-.329.264l-.593-.527v.461l.593.066zm-3.691 1.516l-.132-.725-.263.593.395.132zm6.261-2.307l-.988 1.45-.066-1.054 1.054-.396zm4.811-4.416l-.461-.659-.264.132.725.527zm1.78-2.966l-.396-.198-.066.198h.462zm.857-5.141h-.594l.659.198-.065-.198zm.988.659l-.198-1.186-.527-.066.725 1.252zm-1.054-1.055l-.132-1.252-.461.857.593.395zm-38.226 10.347l9.557 22.408.131.461 4.153 5.075v-.066l.659-.198.131-3.757 1.055-1.318.659-3.493-.593-.593 1.12-3.427 3.823-1.779 2.504-3.032.923-5.273 4.02-.264-.527-2.702 5.009-1.911.329-2.966 1.187.264 3.295-2.702 1.45-3.493-3.361-3.361-3.559-.725-1.318-2.702V19.64l-2.175.659-2.439-.857V16.74l-6.59-14.236L638.41 0l-5.338 4.482-1.45-.264-1.252-2.307-1.714.659-2.438 12.127.857 3.954.725 8.041-1.912 6.195 1.318.989-1.581 3.032-1.714-.264-.132.132z"/><path d="M485.311 79.021l-.329-.527-.066.659.395-.132zm1.055-1.186l-.791-1.055-.132.461.923.593zm.659-4.745l-.659-.593v.132l.659.461zm-1.648 51.605l8.172-1.318 2.307-.462 10.084-1.779.197.857.66-.198 4.349-.923 4.152-.988 4.218-1.055-.066-.198 2.175-4.283-.197-3.559 2.438-6.13 1.911 1.121.725-1.384-.197-5.273-1.78-3.295-2.636-6.986-2.307-2.57-1.186-.33-4.284 2.966.461.593-2.24 4.218-2.175-.396-.659-4.416.922-.329 1.912-4.416.197-7.777-2.965-6.591-6.591-1.12-.659-.989-6.129-1.779-2.768 3.427.263 2.966-2.109 2.636.462 4.086-2.043 1.45V75.33l-1.846 3.889-2.175 3.427-1.45 1.12.725 3.625-.922 3.757.527 4.679-.659 2.307 4.745 9.095.593 3.493-.593 6.459-3.163 7.249-.396.264zm14.104-59.381l-1.714.132 1.055.791.659-.923zm-10.018 1.714h-.527l.593.264-.066-.264zm11.534-8.37l-.659-1.055-.264.066.923.989zm-59.711 4.811l2.109 1.186 10.809 3.295 5.008 1.318 4.878.33 3.558 2.9v4.482l3.164 3.163v-.066l2.57-7.447 3.098-2.175 2.372-2.636.396 2.373 2.438-3.757 5.866-2.241.461-.923 5.932.725 2.307 1.186 1.12-2.9 1.054.659 4.614-.725-1.12-1.845-2.044-1.186.396-4.284-4.02 2.241-3.691-.461-1.186-2.834.395-.923-5.009 2.373-3.229.198-5.8 3.559-.659 1.318-3.559-.857-2.241.989-4.481-3.889-9.952-3.032-.198-1.186-6.393 6.129-3.624.923-5.141 3.888-.198.132zm23.331-14.961l-7.711 3.823 2.57 2.504.989-2.504 2.636-3.229 1.516-.593zm-8.634-9.029l-5.272 3.625-.264 1.779 4.152-3.032 1.384-2.373z"/><path d="M65.228 353.849l-.33.131.264.066.066-.197zm1.252-.725v.197l.132-.066-.132-.131zm.659.329v-.132l-.066.066.066.066zm-.132-.132v-.066h-.132l.132.066zm-51.406-43.3l-.066.462.132 1.318-.066-1.78zm-.33-1.779l.066.593.066-.198-.132-.395zm51.736 44.288l.066-.395-.264.132.198.263zm7.513 3.23l-.066-.066.132.264-.066-.198zm-4.877-2.307l-.725-.659v1.582l.725-.923zm1.648 1.45l-.066-.461-1.12-.066 1.186.527zm3.954.923l-.066.132h.132l-.066-.132zm.264.066h-.132l.264.066-.132-.066zm.791.263h-.066-.066.132zm-58.195-44.684l.264.066.198-.066h-.461zm56.745 43.762l-.527-.066.198.197.329-.131zM14.546 306.33l-.923-.395-.066.198.989.197zm61.951 49.034l-.132-.066v.066h.132zm4.02.791l-2.57.198-.593.264 3.163-.462zM9.867 295.983h-.725l.132.198.593-.198zm78.626 63.204v-.264h-.132l.132.264zm3.427.066l.132-.132-.132-.132v.264zm2.57.725l.132-.066h-.066l-.066.066zm-2.109-1.186l-.066-.264h-.132l.198.264zm4.416.988l-.066.066h.066v-.066zm-86.534-67.158l-.989.132 1.252 1.12-.264-1.252zm83.041 66.17l.132-.396h-.066l-.066.396zm11.138-.989l.066-.132-.131-.066.065.198zm-1.647-.593l-2.307 2.043 1.648-.132 1.911-1.516-1.252-.395zm4.152.725l-.461-.132.329.264.132-.132zm.923.066l-.725-.198-.132.066.857.132zm-2.505-.923h-.725l1.252.33-.527-.33zm3.032.659l-.066-.132-.264.066.33.066zm-1.977-.791l-.264-.132v.725l.264-.593zm8.436 1.648l-.066-.066h-.132l.198.066zm.131-.066v-.066l-.131-.066.131.132zm-1.12-.396l.132.264v-.066l-.132-.198zm.593 0l-.593-.197.725.527-.132-.33zm8.7.33l-.132-.264h-.066l.198.264zm70.914-4.416l-.131-.131.066.131h.065zm-79.877 2.043v-.066l-.066.066h.066zm81.789-3.229l.197.264h.132l-.329-.264zm-72.035 4.943l-.066.066v.198l.066-.264zm-8.173-1.186l.132-.528h-.066l-.066.528zm84.03-5.273l-.593.33.527.263.066-.593zm-87.786 3.493l-1.648.33-1.45 1.911 3.098-2.241zm11.797 2.505l-.396.329.396-.066v-.263zm75.989-6.327l-.132-.264-.065.132.197.132zm-82.316 4.613l-.462-.066.462.461v-.395zm77.966-3.757l-.131.132.131.462v-.594zm-76.912 3.691l-.197.066.263.198-.066-.264zm4.877 1.384h-.197l-.132-.132.329.132zm-5.404-1.384l-.329-.198.131.198h.198zm4.416.725l-.593.198-.396 1.054.989-1.252zm71.574-4.613v.461l.263-.329-.263-.132zm-79.351 2.504l.527-.132h-.066l-.461.132zm-.659-.395l-.132-.132v.066l.132.066zm80.01-2.571l-.132-.066-.066.198.198-.132zm-72.299 3.955l-.132-.066-.132.198.264-.132zm71.639-3.823l.066-.329-.131-.066.065.395zm-.527-.329l-.197.263.329.066-.132-.329zm-68.344 3.229l-.132-.132h-.066l.198.132zm68.147-4.416l.527.198.197-.264-.724.066zm.79-.461l-.197.132.329.198-.132-.33zm-1.515.395l-.132-.263-.132.132.264.131zm6.59-2.438l-.857 2.438.857-.527v-1.911zm-5.8.923l-.593.593.132.659.461-1.252zm-61.358 5.272v-.264l-.066.132.066.132zm60.633-5.931l1.912 2.899 4.284 2.703-.989-2.307-4.086-3.493-1.121.198zm-63.269 4.877l-.066-.198-.132.066.198.132zm65.51-5.998l-.263.989.461-.33-.198-.659zm1.384 0l-.066.659.594.198-.528-.857zm-64.785 5.141l-.33-.066-.329.132.659-.066zm6.788.527l-.264.461.132-.395.132-.066zm.989.066l-.593.066.329.395.264-.461zm-39.939-8.436l.659.33-.132-.132-.527-.198zm26.362 6.459h.066v-.066l-.066.066zm68.147-5.075l.329 1.252.659-.395-.988-.857zm-2.834.527l.329 3.032.659-.659-.988-2.373zm.329-.988l1.516 2.109-.198-1.384-1.318-.725zm-4.679.527l-.395 1.252.527-.857-.132-.395zm-46.464 3.361l-.131-.198.131.264v-.066zm46.596-4.35l2.636 4.35-.395-2.966-2.241-1.384zm-42.905 2.307l-.198.198.33.132-.132-.33zm-.857.132l.066-.198h-.263l.197.198zm-.659 0l-1.713 1.12-2.109 2.768 1.054 1.121 4.877-3.625-2.109-1.384zm41.587-4.284l-.461-.264v.396l.461-.132zm-41.982 3.493l.066.264.461.263-.527-.527zm43.234-4.745l-1.318.659 1.252.395.066-1.054zm-.857 0l-.131-.132-.066.132h.197zm4.021-1.055l-.528-.197-.131.395.659-.198zm-2.834.462l-.462-.066v.132l.462-.066zm1.45-.528l2.702 3.955-.725-3.625-1.977-.33zm-43.498 4.284l-1.582 1.187.725.79 2.109-1.581-1.252-.396zm-17.927-2.504l-.066-.066v.066h.066zm-.725-.33l-.066-.329v.132l.066.197zm20.233.857l-.131.066v.066l.131-.132zm-.659-.132h-.066l-.131.198.197-.198zm1.582-.527l-.198-.132v.066l.198.066zm.527-.066l-.197-.132v.066l.197.066zm-.856-.198h-.264v.066l.264-.066zm13.115-1.318l.066-.197-.132.131.066.066zm4.02-2.109l.791-.988-.264.197-.527.791zm-8.04-.132l.263-.197.066-.264-.329.461zm0-.724l-.264.197.461-.132-.197-.065zm-10.809 0l-.066-.264h-.066l.132.264zm10.545-.066l-.264.263-.131.264.395-.527zm7.25-.791h.066.065-.131zm.329 0l-.132-.066v.066h.132zm-.791-.066l.066.066v-.066h-.066zm-5.404.395l.264-.263-.33.263h.066zm.791-.593l-1.582 2.57 2.043-2.372-.461-.198zm-2.043.33l-.198-.264-.066.132.264.132zm5.009-.594l-.132-.065.066.065h.066zm1.713.132v-.461l-.132.198.132.263zm-48.375-5.075l-3.163-.131 2.175 2.306.988-2.175zm45.014 4.68l.132.461.329-.527-.461.066zm-2.636-.066l-.198 1.45.33-.923-.132-.527zm-.659-.923l.066.198.131-.066-.197-.132zm-.33.264l-.132-.396-.197.132.329.264zm3.098-.791v-.264l-.198.132.198.132zm-2.966-.395v.659l.198-.462-.198-.197zm-39.412-8.964l.132-.395-.066.066-.066.329zm.198-.659l-.066-.066-.066.066h.132zm4.482-3.427l-.264-.132v.066l.264.066zm-.396-.263v-.132l-.132.132h.132zm-10.545-3.098l-.132-.33-.066-.197.198.527zm.989-1.186h.066l.066.066-.132-.066zm-1.78-.33l-.527-.659.396.527.131.132zm-1.054-1.054h-.132l.198.066-.066-.066zm17.465 4.415l-.725.066.395.198.33-.264zm-18.19-6.393l-.527 1.978 1.647.263 2.175 2.241 1.318-.593-4.613-3.889zm11.533.791v-.132.066.066zm-3.295-6.986l-.132-.066.066.066h.066zm1.911.659l.198-.066h-.066l-.132.066zm1.318-.395h.198l.593-.264-.791.264zm2.373-.725l.132-.132-.198.132h.066zm.33-.066l.395-.198-.329.066-.066.132zm.988-.395l-.329.065v.066l.329-.131zm42.312-11.929l-.264-.198-.461-.198.725.396zm-34.535-1.45l.593-.791-.329.263-.264.528zm.791-.923l.264-.395-.132.131-.132.264zm.395-.527l.462-.396-.264.132-.198.264zm20.761.132l.329.329h.198l-.527-.329zm-10.611-4.35l-2.702 2.241-1.648-.462-3.822 2.175-.725-.461-4.35 4.877-4.416.988.396 2.373 1.977 2.702 3.69 3.559-.593 1.384 2.768 1.186-1.45.264-1.779-1.384.923 2.043-1.187.725-3.756-3.427-2.966.527-5.075 1.911 2.307 2.571-.33 1.582 1.516 1.845 5.009 1.977 3.625-1.845.593 1.384-.989 4.152h-3.031l-3.559 1.582-.198-1.121-1.845.725-.857 1.911-3.032 2.307v3.361l1.187.527-.923 2.834 3.954 3.428 2.505-1.055-.527 4.218.724.923 3.032.659 1.121 1.252 2.636.198 1.252 1.318 2.702-.791-1.252 1.714-.989 3.493-8.04 5.206-1.055 1.055-1.516-.594-2.438.594-3.493 2.306 5.47-1.581.791 1.186 7.052-2.307.198.923 2.768-2.768 5.799-4.02.462.263 5.075-4.02-1.319-1.582 1.714-2.834 4.482-5.338 3.427-.659 1.054.725-4.152 1.186-1.12 4.416.131 2.372 1.45-.131 6.986-4.218.528-1.582-.593-2.439 2.109.528 1.515-.989 4.35 2.636-.329.725 9.885 1.252 2.307-.725.659.989 8.568 4.086 1.45-.857.132-4.943 1.12 2.241 5.536 4.02.462 1.648 4.811 2.702 1.252 3.493 1.186-2.702 2.439 4.745 1.647-2.702-1.318-3.361-5.074-.527-7.777-7.448-4.218-3.097-3.23 3.163h-1.911l-4.416-2.9-4.349-.197-6.196-39.082-1.054-1.846-2.505-1.516-3.756.725-2.9-.593-3.691-1.45-3.888.264-.989-1.845-3.097-.462-.528-1.12-1.384 1.582-.395-2.966z"/></g><defs><filter id="A" x="0" y="0" width="667.06" height="367.978" filterUnits="userSpaceOnUse" color-interpolation-filters="sRGB"><feFlood flood-opacity="0" result="A"/><feColorMatrix in="SourceAlpha" values="0 0 0 0 0 0 0 0 0 0 0 0 0 0 0 0 0 0 127 0" result="B"/><feOffset dy="4"/><feGaussianBlur stdDeviation="2"/><feComposite in2="B" operator="out"/><feColorMatrix values="0 0 0 0 0 0 0 0 0 0 0 0 0 0 0 0 0 0 0.25 0"/><feBlend in2="A"/><feBlend in="SourceGraphic"/></filter></defs></svg>