<svg width="55" height="55" viewBox="0 0 55 55" fill="none" xmlns="http://www.w3.org/2000/svg">
<path fill-rule="evenodd" clip-rule="evenodd" d="M38.2938 7.39087L43.2498 12.347C50.5337 19.6309 54.1757 23.2728 54.1757 27.7984C54.1757 32.3239 50.5337 35.9659 43.2498 43.2498C35.9659 50.5337 32.3239 54.1757 27.7984 54.1757C23.2728 54.1757 19.6309 50.5337 12.347 43.2498L7.39087 38.2938C3.20436 34.1074 1.1111 32.0141 0.332212 29.2982C-0.4467 26.5824 0.218957 23.6978 1.55027 17.9288L2.31802 14.6019C3.43805 9.74841 3.99809 7.32164 5.65985 5.65985C7.32164 3.99809 9.74838 3.43805 14.6019 2.31802L17.9288 1.55027C23.6978 0.218957 26.5824 -0.4467 29.2982 0.332212C32.0141 1.1111 34.1074 3.20436 38.2938 7.39087ZM24.7765 33.395C22.9534 31.5723 22.9689 28.9566 24.0592 26.8839C23.5142 26.0924 23.5938 25.0007 24.2975 24.297C24.9988 23.5957 26.0851 23.5142 26.8758 24.0527C27.7962 23.5632 28.8079 23.3045 29.8159 23.314C30.9379 23.3245 31.8388 24.2428 31.8282 25.3648C31.8177 26.4868 30.8994 27.3877 29.7774 27.3772C29.2982 27.3726 28.6684 27.5876 28.1283 28.1278C27.0786 29.1774 27.3547 30.2271 27.6494 30.5221C27.9444 30.8168 28.994 31.0928 30.0437 30.0431C32.1676 27.9195 35.8343 27.2144 38.1841 29.5642C40.0071 31.3872 39.9917 34.0028 38.9014 36.0756C39.4464 36.8671 39.3668 37.9588 38.663 38.6625C37.9617 39.3638 36.875 39.4451 36.0843 38.9066C34.8466 39.5643 33.4389 39.8107 32.0964 39.5347C30.9974 39.3091 30.2896 38.2351 30.5156 37.1358C30.7412 36.0369 31.8152 35.3291 32.9145 35.5547C33.3942 35.6536 34.1678 35.4959 34.8323 34.8317C35.8819 33.7818 35.6059 32.7322 35.3112 32.4374C35.0162 32.1425 33.9665 31.8664 32.9169 32.9164C30.7929 35.04 27.1263 35.7449 24.7765 33.395ZM21.7272 22.4642C23.8427 20.3486 23.8427 16.9184 21.7272 14.8027C19.6114 12.687 16.1812 12.687 14.0655 14.8027C11.9498 16.9184 11.9498 20.3486 14.0655 22.4642C16.1812 24.5801 19.6114 24.5801 21.7272 22.4642Z" fill="#1C274C"/>
</svg>
