<svg xmlns="http://www.w3.org/2000/svg" width="19" height="19" fill="none" xmlns:v="https://vecta.io/nano"><path fill-rule="evenodd" d="M3.565 3.829l2.017-1.275C8.548.68 10.03-.256 11.533.083s2.44 1.822 4.313 4.787 2.81 4.448 2.471 5.951-1.822 2.44-4.787 4.313l-2.017 1.275c-1.704 1.077-2.556 1.615-3.517 1.671s-1.869-.382-3.685-1.256l-1.047-.504c-1.528-.736-2.292-1.104-2.72-1.78s-.432-1.524-.44-3.22l-.006-1.162C.089 8.139.085 7.131.547 6.288s1.314-1.382 3.018-2.459zm7.624 6.438c-.742.469-1.61.268-2.216-.25a.69.69 0 0 1-.729-1.148c-.094-.342-.104-.698-.025-1.032a.69.69 0 1 1 1.347.317c-.037.159-.013.384.126.604.27.427.639.414.759.338s.29-.404.02-.831c-.546-.865-.506-2.135.451-2.74.742-.469 1.61-.268 2.217.25a.69.69 0 0 1 .729 1.148 2.03 2.03 0 0 1-.09 1.372.69.69 0 0 1-1.261-.57c.069-.152.074-.421-.097-.691-.27-.427-.639-.414-.759-.338s-.29.404-.02.831c.546.865.506 2.135-.451 2.74zm-3.859.194c-.544-.861-1.684-1.118-2.545-.574s-1.118 1.684-.574 2.545 1.684 1.118 2.545.574 1.118-1.684.574-2.545z" fill="#1c274c"/></svg>