<svg xmlns="http://www.w3.org/2000/svg" width="55" height="55" fill="none" xmlns:v="https://vecta.io/nano"><path fill-rule="evenodd" d="M38.294 7.391l4.956 4.956c7.284 7.284 10.926 10.926 10.926 15.451S50.534 35.966 43.25 43.25 32.324 54.176 27.798 54.176s-8.167-3.642-15.451-10.926l-4.956-4.956c-4.187-4.186-6.28-6.28-7.059-8.996s-.113-5.6 1.218-11.369l.768-3.327c1.12-4.853 1.68-7.28 3.342-8.942s4.089-2.222 8.942-3.342l3.327-.768C23.698.219 26.582-.447 29.298.332s4.809 2.872 8.996 7.059zM24.777 33.395c-1.823-1.823-1.808-4.438-.717-6.511-.545-.791-.465-1.883.238-2.587s1.788-.783 2.578-.244c.92-.49 1.932-.748 2.94-.739a2.03 2.03 0 1 1-.038 4.063c-.479-.005-1.109.21-1.649.751-1.05 1.05-.774 2.099-.479 2.394s1.345.571 2.394-.479c2.124-2.124 5.791-2.829 8.14-.479 1.823 1.823 1.808 4.439.717 6.511.545.791.465 1.883-.238 2.587s-1.788.783-2.579.244c-1.238.658-2.645.904-3.988.628a2.03 2.03 0 0 1 .818-3.98c.48.099 1.253-.059 1.918-.723 1.05-1.05.774-2.099.479-2.394s-1.345-.571-2.394.479c-2.124 2.124-5.791 2.828-8.14.479zm-3.049-10.931a5.42 5.42 0 0 0 0-7.662 5.42 5.42 0 0 0-7.662 0 5.42 5.42 0 0 0 0 7.662 5.42 5.42 0 0 0 7.662 0z" fill="#1c274c"/></svg>