<svg xmlns="http://www.w3.org/2000/svg" width="30" height="30" fill="none" xmlns:v="https://vecta.io/nano"><path fill-rule="evenodd" d="M21.205 4.093l2.744 2.744c4.034 4.034 6.05 6.05 6.05 8.556s-2.017 4.523-6.05 8.556S17.9 30 15.394 30s-4.523-2.017-8.556-6.05l-2.744-2.744C1.774 18.887.615 17.728.184 16.224s-.063-3.101.675-6.296l.425-1.842c.62-2.688.93-4.031 1.851-4.952s2.264-1.23 4.952-1.851L9.928.858C13.123.121 14.72-.247 16.224.184s2.663 1.59 4.981 3.909zm-7.485 14.4c-1.01-1.009-1.001-2.458-.397-3.605-.302-.438-.258-1.043.132-1.433s.99-.433 1.428-.135a3.41 3.41 0 0 1 1.628-.409c.621.006 1.12.514 1.114 1.136s-.514 1.12-1.136 1.114c-.265-.002-.614.117-.913.416-.581.581-.428 1.162-.265 1.326s.745.316 1.326-.265c1.176-1.176 3.207-1.566 4.508-.265 1.009 1.009 1.001 2.458.397 3.606.302.438.258 1.043-.132 1.433s-.99.433-1.428.135c-.685.364-1.465.501-2.208.348-.608-.125-1-.72-.875-1.328s.72-1 1.328-.875c.266.055.694-.033 1.062-.4.581-.581.428-1.163.265-1.326s-.745-.316-1.326.265c-1.176 1.176-3.207 1.566-4.508.265zm-1.689-6.053a3 3 0 1 0-4.243-4.243 3 3 0 1 0 4.243 4.243z" fill="#1c274c"/></svg>